<svg width="1024" height="300" viewBox="0 0 1024 300" fill="none" xmlns="http://www.w3.org/2000/svg">
<g clip-path="url(#clip0_650_20)">
<rect width="1024" height="300" fill="#2D34FF"/>
<g opacity="0.2" filter="url(#filter0_f_650_20)">
<rect x="-220" y="542" width="485" height="365" fill="#84FFD3"/>
</g>
<path opacity="0.15" d="M-1568.7 0H-1672V103.3M-1568.7 0V103.3M-1568.7 0H-1465.41M-1568.7 103.3H-1672M-1568.7 103.3V206.6M-1568.7 103.3H-1465.41M-1672 103.3V206.6M-1568.7 206.6H-1672M-1568.7 206.6V309.9M-1568.7 206.6H-1465.41M-1672 206.6V309.9M-1568.7 309.9H-1672M-1568.7 309.9V413.2M-1568.7 309.9H-1465.41M-1672 309.9V413.2M-1568.7 413.2H-1672M-1568.7 413.2V516.5M-1568.7 413.2H-1465.41M-1672 413.2V516.5M-1568.7 516.5H-1672M-1568.7 516.5V619.8M-1568.7 516.5H-1465.41M-1672 516.5V619.8M-1568.7 619.8H-1672M-1568.7 619.8V723.1M-1568.7 619.8H-1465.41M-1672 619.8V723.1M-1568.7 723.1H-1672M-1568.7 723.1V826.4M-1568.7 723.1H-1465.41M-1672 723.1V826.4M-1568.7 826.4H-1672M-1568.7 826.4V929.7M-1568.7 826.4H-1465.41M-1672 826.4V929.7M-1568.7 929.7H-1672M-1568.7 929.7V1033M-1568.7 929.7H-1465.41M-1672 929.7V1033M-1568.7 1033H-1672M-1568.7 1033V1136.3M-1568.7 1033H-1465.41M-1672 1033V1136.3M-1568.7 1136.3H-1672M-1568.7 1136.3V1239.6M-1568.7 1136.3H-1465.41M-1672 1136.3V1239.6M-1568.7 1239.6H-1672M-1568.7 1239.6V1342.9M-1568.7 1239.6H-1465.41M-1672 1239.6V1342.9M-1568.7 1342.9H-1672M-1568.7 1342.9V1446.2M-1568.7 1342.9H-1465.41M-1672 1342.9V1446.2M-1568.7 1446.2H-1672M-1568.7 1446.2V1549.5M-1568.7 1446.2H-1465.41M-1672 1446.2V1549.5M-1568.7 1549.5H-1672M-1568.7 1549.5V1652.8M-1568.7 1549.5H-1465.41M-1672 1549.5V1652.8M-1568.7 1652.8H-1672M-1568.7 1652.8V1756.1M-1568.7 1652.8H-1465.41M-1672 1652.8V1756.1M-1568.7 1756.1H-1672M-1568.7 1756.1V1859.4M-1568.7 1756.1H-1465.41M-1672 1756.1V1859.4M-1568.7 1859.4H-1672M-1568.7 1859.4V1962.7M-1568.7 1859.4H-1465.41M-1672 1859.4V1962.7M-1568.7 1962.7H-1672M-1568.7 1962.7V2066M-1568.7 1962.7H-1465.41M-1672 1962.7V2066H-1568.7M-1568.7 2066H-1465.41M-1465.41 0V103.3M-1465.41 0H-1362.11M-1465.41 103.3V206.6M-1465.41 103.3H-1362.11M-1465.41 206.6V309.9M-1465.41 206.6H-1362.11M-1465.41 309.9V413.2M-1465.41 309.9H-1362.11M-1465.41 413.2V516.5M-1465.41 413.2H-1362.11M-1465.41 516.5V619.8M-1465.41 516.5H-1362.11M-1465.41 619.8V723.1M-1465.41 619.8H-1362.11M-1465.41 723.1V826.4M-1465.41 723.1H-1362.11M-1465.41 826.4V929.7M-1465.41 826.4H-1362.11M-1465.41 929.7V1033M-1465.41 929.7H-1362.11M-1465.41 1033V1136.3M-1465.41 1033H-1362.11M-1465.41 1136.3V1239.6M-1465.41 1136.3H-1362.11M-1465.41 1239.6V1342.9M-1465.41 1239.6H-1362.11M-1465.41 1342.9V1446.2M-1465.41 1342.9H-1362.11M-1465.41 1446.2V1549.5M-1465.41 1446.2H-1362.11M-1465.41 1549.5V1652.8M-1465.41 1549.5H-1362.11M-1465.41 1652.8V1756.1M-1465.41 1652.8H-1362.11M-1465.41 1756.1V1859.4M-1465.41 1756.1H-1362.11M-1465.41 1859.4V1962.7M-1465.41 1859.4H-1362.11M-1465.41 1962.7V2066M-1465.41 1962.7H-1362.11M-1465.41 2066H-1362.11M-1362.11 0V103.3M-1362.11 0H-1258.82M-1362.11 103.3V206.6M-1362.11 103.3H-1258.82M-1362.11 206.6V309.9M-1362.11 206.6H-1258.82M-1362.11 309.9V413.2M-1362.11 309.9H-1258.82M-1362.11 413.2V516.5M-1362.11 413.2H-1258.82M-1362.11 516.5V619.8M-1362.11 516.5H-1258.82M-1362.11 619.8V723.1M-1362.11 619.8H-1258.82M-1362.11 723.1V826.4M-1362.11 723.1H-1258.82M-1362.11 826.4V929.7M-1362.11 826.4H-1258.82M-1362.11 929.7V1033M-1362.11 929.7H-1258.82M-1362.11 1033V1136.3M-1362.11 1033H-1258.82M-1362.11 1136.3V1239.6M-1362.11 1136.3H-1258.82M-1362.11 1239.6V1342.9M-1362.11 1239.6H-1258.82M-1362.11 1342.9V1446.2M-1362.11 1342.9H-1258.82M-1362.11 1446.2V1549.5M-1362.11 1446.2H-1258.82M-1362.11 1549.5V1652.8M-1362.11 1549.5H-1258.82M-1362.11 1652.8V1756.1M-1362.11 1652.8H-1258.82M-1362.11 1756.1V1859.4M-1362.11 1756.1H-1258.82M-1362.11 1859.4V1962.7M-1362.11 1859.4H-1258.82M-1362.11 1962.7V2066M-1362.11 1962.7H-1258.82M-1362.11 2066H-1258.82M-1258.82 0V103.3M-1258.82 0H-1155.52M-1258.82 103.3V206.6M-1258.82 103.3H-1155.52M-1258.82 206.6V309.9M-1258.82 206.6H-1155.52M-1258.82 309.9V413.2M-1258.82 309.9H-1155.52M-1258.82 413.2V516.5M-1258.82 413.2H-1155.52M-1258.82 516.5V619.8M-1258.82 516.5H-1155.52M-1258.82 619.8V723.1M-1258.82 619.8H-1155.52M-1258.82 723.1V826.4M-1258.82 723.1H-1155.52M-1258.82 826.4V929.7M-1258.82 826.4H-1155.52M-1258.82 929.7V1033M-1258.82 929.7H-1155.52M-1258.82 1033V1136.3M-1258.82 1033H-1155.52M-1258.82 1136.3V1239.6M-1258.82 1136.3H-1155.52M-1258.82 1239.6V1342.9M-1258.82 1239.6H-1155.52M-1258.82 1342.9V1446.2M-1258.82 1342.9H-1155.52M-1258.82 1446.2V1549.5M-1258.82 1446.2H-1155.52M-1258.82 1549.5V1652.8M-1258.82 1549.5H-1155.52M-1258.82 1652.8V1756.1M-1258.82 1652.8H-1155.52M-1258.82 1756.1V1859.4M-1258.82 1756.1H-1155.52M-1258.82 1859.4V1962.7M-1258.82 1859.4H-1155.52M-1258.82 1962.7V2066M-1258.82 1962.7H-1155.52M-1258.82 2066H-1155.52M-1155.52 0V103.3M-1155.52 0H-1052.23M-1155.52 103.3V206.6M-1155.52 103.3H-1052.23M-1155.52 206.6V309.9M-1155.52 206.6H-1052.23M-1155.52 309.9V413.2M-1155.52 309.9H-1052.23M-1155.52 413.2V516.5M-1155.52 413.2H-1052.23M-1155.52 516.5V619.8M-1155.52 516.5H-1052.23M-1155.52 619.8V723.1M-1155.52 619.8H-1052.23M-1155.52 723.1V826.4M-1155.52 723.1H-1052.23M-1155.52 826.4V929.7M-1155.52 826.4H-1052.23M-1155.52 929.7V1033M-1155.52 929.7H-1052.23M-1155.52 1033V1136.3M-1155.52 1033H-1052.23M-1155.52 1136.3V1239.6M-1155.52 1136.3H-1052.23M-1155.52 1239.6V1342.9M-1155.52 1239.6H-1052.23M-1155.52 1342.9V1446.2M-1155.52 1342.9H-1052.23M-1155.52 1446.2V1549.5M-1155.52 1446.2H-1052.23M-1155.52 1549.5V1652.8M-1155.52 1549.5H-1052.23M-1155.52 1652.8V1756.1M-1155.52 1652.8H-1052.23M-1155.52 1756.1V1859.4M-1155.52 1756.1H-1052.23M-1155.52 1859.4V1962.7M-1155.52 1859.4H-1052.23M-1155.52 1962.7V2066M-1155.52 1962.7H-1052.23M-1155.52 2066H-1052.23M-1052.23 0V103.3M-1052.23 0H-948.932M-1052.23 103.3V206.6M-1052.23 103.3H-948.932M-1052.23 206.6V309.9M-1052.23 206.6H-948.932M-1052.23 309.9V413.2M-1052.23 309.9H-948.932M-1052.23 413.2V516.5M-1052.23 413.2H-948.932M-1052.23 516.5V619.8M-1052.23 516.5H-948.932M-1052.23 619.8V723.1M-1052.23 619.8H-948.932M-1052.23 723.1V826.4M-1052.23 723.1H-948.932M-1052.23 826.4V929.7M-1052.23 826.4H-948.932M-1052.23 929.7V1033M-1052.23 929.7H-948.932M-1052.23 1033V1136.3M-1052.23 1033H-948.932M-1052.23 1136.3V1239.6M-1052.23 1136.3H-948.932M-1052.23 1239.6V1342.9M-1052.23 1239.6H-948.932M-1052.23 1342.9V1446.2M-1052.23 1342.9H-948.932M-1052.23 1446.2V1549.5M-1052.23 1446.2H-948.932M-1052.23 1549.5V1652.8M-1052.23 1549.5H-948.932M-1052.23 1652.8V1756.1M-1052.23 1652.8H-948.932M-1052.23 1756.1V1859.4M-1052.23 1756.1H-948.932M-1052.23 1859.4V1962.7M-1052.23 1859.4H-948.932M-1052.23 1962.7V2066M-1052.23 1962.7H-948.932M-1052.23 2066H-948.932M-948.932 0V103.3M-948.932 0H-845.636M-948.932 103.3V206.6M-948.932 103.3H-845.636M-948.932 206.6V309.9M-948.932 206.6H-845.636M-948.932 309.9V413.2M-948.932 309.9H-845.636M-948.932 413.2V516.5M-948.932 413.2H-845.636M-948.932 516.5V619.8M-948.932 516.5H-845.636M-948.932 619.8V723.1M-948.932 619.8H-845.636M-948.932 723.1V826.4M-948.932 723.1H-845.636M-948.932 826.4V929.7M-948.932 826.4H-845.636M-948.932 929.7V1033M-948.932 929.7H-845.636M-948.932 1033V1136.3M-948.932 1033H-845.636M-948.932 1136.3V1239.6M-948.932 1136.3H-845.636M-948.932 1239.6V1342.9M-948.932 1239.6H-845.636M-948.932 1342.9V1446.2M-948.932 1342.9H-845.636M-948.932 1446.2V1549.5M-948.932 1446.2H-845.636M-948.932 1549.5V1652.8M-948.932 1549.5H-845.636M-948.932 1652.8V1756.1M-948.932 1652.8H-845.636M-948.932 1756.1V1859.4M-948.932 1756.1H-845.636M-948.932 1859.4V1962.7M-948.932 1859.4H-845.636M-948.932 1962.7V2066M-948.932 1962.7H-845.636M-948.932 2066H-845.636M-845.636 0V103.3M-845.636 0H-742.341M-845.636 103.3V206.6M-845.636 103.3H-742.341M-845.636 206.6V309.9M-845.636 206.6H-742.341M-845.636 309.9V413.2M-845.636 309.9H-742.341M-845.636 413.2V516.5M-845.636 413.2H-742.341M-845.636 516.5V619.8M-845.636 516.5H-742.341M-845.636 619.8V723.1M-845.636 619.8H-742.341M-845.636 723.1V826.4M-845.636 723.1H-742.341M-845.636 826.4V929.7M-845.636 826.4H-742.341M-845.636 929.7V1033M-845.636 929.7H-742.341M-845.636 1033V1136.3M-845.636 1033H-742.341M-845.636 1136.3V1239.6M-845.636 1136.3H-742.341M-845.636 1239.6V1342.9M-845.636 1239.6H-742.341M-845.636 1342.9V1446.2M-845.636 1342.9H-742.341M-845.636 1446.2V1549.5M-845.636 1446.2H-742.341M-845.636 1549.5V1652.8M-845.636 1549.5H-742.341M-845.636 1652.8V1756.1M-845.636 1652.8H-742.341M-845.636 1756.1V1859.4M-845.636 1756.1H-742.341M-845.636 1859.4V1962.7M-845.636 1859.4H-742.341M-845.636 1962.7V2066M-845.636 1962.7H-742.341M-845.636 2066H-742.341M-742.341 0V103.3M-742.341 0H-639.045M-742.341 103.3V206.6M-742.341 103.3H-639.045M-742.341 206.6V309.9M-742.341 206.6H-639.045M-742.341 309.9V413.2M-742.341 309.9H-639.045M-742.341 413.2V516.5M-742.341 413.2H-639.045M-742.341 516.5V619.8M-742.341 516.5H-639.045M-742.341 619.8V723.1M-742.341 619.8H-639.045M-742.341 723.1V826.4M-742.341 723.1H-639.045M-742.341 826.4V929.7M-742.341 826.4H-639.045M-742.341 929.7V1033M-742.341 929.7H-639.045M-742.341 1033V1136.3M-742.341 1033H-639.045M-742.341 1136.3V1239.6M-742.341 1136.3H-639.045M-742.341 1239.6V1342.9M-742.341 1239.6H-639.045M-742.341 1342.9V1446.2M-742.341 1342.9H-639.045M-742.341 1446.2V1549.5M-742.341 1446.2H-639.045M-742.341 1549.5V1652.8M-742.341 1549.5H-639.045M-742.341 1652.8V1756.1M-742.341 1652.8H-639.045M-742.341 1756.1V1859.4M-742.341 1756.1H-639.045M-742.341 1859.4V1962.7M-742.341 1859.4H-639.045M-742.341 1962.7V2066M-742.341 1962.7H-639.045M-742.341 2066H-639.045M-639.045 0V103.3M-639.045 0H-535.75M-639.045 103.3V206.6M-639.045 103.3H-535.75M-639.045 206.6V309.9M-639.045 206.6H-535.75M-639.045 309.9V413.2M-639.045 309.9H-535.75M-639.045 413.2V516.5M-639.045 413.2H-535.75M-639.045 516.5V619.8M-639.045 516.5H-535.75M-639.045 619.8V723.1M-639.045 619.8H-535.75M-639.045 723.1V826.4M-639.045 723.1H-535.75M-639.045 826.4V929.7M-639.045 826.4H-535.75M-639.045 929.7V1033M-639.045 929.7H-535.75M-639.045 1033V1136.3M-639.045 1033H-535.75M-639.045 1136.3V1239.6M-639.045 1136.3H-535.75M-639.045 1239.6V1342.9M-639.045 1239.6H-535.75M-639.045 1342.9V1446.2M-639.045 1342.9H-535.75M-639.045 1446.2V1549.5M-639.045 1446.2H-535.75M-639.045 1549.5V1652.8M-639.045 1549.5H-535.75M-639.045 1652.8V1756.1M-639.045 1652.8H-535.75M-639.045 1756.1V1859.4M-639.045 1756.1H-535.75M-639.045 1859.4V1962.7M-639.045 1859.4H-535.75M-639.045 1962.7V2066M-639.045 1962.7H-535.75M-639.045 2066H-535.75M-535.75 0V103.3M-535.75 0H-432.455M-535.75 103.3V206.6M-535.75 103.3H-432.455M-535.75 206.6V309.9M-535.75 206.6H-432.455M-535.75 309.9V413.2M-535.75 309.9H-432.455M-535.75 413.2V516.5M-535.75 413.2H-432.455M-535.75 516.5V619.8M-535.75 516.5H-432.455M-535.75 619.8V723.1M-535.75 619.8H-432.455M-535.75 723.1V826.4M-535.75 723.1H-432.455M-535.75 826.4V929.7M-535.75 826.4H-432.455M-535.75 929.7V1033M-535.75 929.7H-432.455M-535.75 1033V1136.3M-535.75 1033H-432.455M-535.75 1136.3V1239.6M-535.75 1136.3H-432.455M-535.75 1239.6V1342.9M-535.75 1239.6H-432.455M-535.75 1342.9V1446.2M-535.75 1342.9H-432.455M-535.75 1446.2V1549.5M-535.75 1446.2H-432.455M-535.75 1549.5V1652.8M-535.75 1549.5H-432.455M-535.75 1652.8V1756.1M-535.75 1652.8H-432.455M-535.75 1756.1V1859.4M-535.75 1756.1H-432.455M-535.75 1859.4V1962.7M-535.75 1859.4H-432.455M-535.75 1962.7V2066M-535.75 1962.7H-432.455M-535.75 2066H-432.455M-432.455 0V103.3M-432.455 0H-329.159M-432.455 103.3V206.6M-432.455 103.3H-329.159M-432.455 206.6V309.9M-432.455 206.6H-329.159M-432.455 309.9V413.2M-432.455 309.9H-329.159M-432.455 413.2V516.5M-432.455 413.2H-329.159M-432.455 516.5V619.8M-432.455 516.5H-329.159M-432.455 619.8V723.1M-432.455 619.8H-329.159M-432.455 723.1V826.4M-432.455 723.1H-329.159M-432.455 826.4V929.7M-432.455 826.4H-329.159M-432.455 929.7V1033M-432.455 929.7H-329.159M-432.455 1033V1136.3M-432.455 1033H-329.159M-432.455 1136.3V1239.6M-432.455 1136.3H-329.159M-432.455 1239.6V1342.9M-432.455 1239.6H-329.159M-432.455 1342.9V1446.2M-432.455 1342.9H-329.159M-432.455 1446.2V1549.5M-432.455 1446.2H-329.159M-432.455 1549.5V1652.8M-432.455 1549.5H-329.159M-432.455 1652.8V1756.1M-432.455 1652.8H-329.159M-432.455 1756.1V1859.4M-432.455 1756.1H-329.159M-432.455 1859.4V1962.7M-432.455 1859.4H-329.159M-432.455 1962.7V2066M-432.455 1962.7H-329.159M-432.455 2066H-329.159M-329.159 0V103.3M-329.159 0H-225.864M-329.159 103.3V206.6M-329.159 103.3H-225.864M-329.159 206.6V309.9M-329.159 206.6H-225.864M-329.159 309.9V413.2M-329.159 309.9H-225.864M-329.159 413.2V516.5M-329.159 413.2H-225.864M-329.159 516.5V619.8M-329.159 516.5H-225.864M-329.159 619.8V723.1M-329.159 619.8H-225.864M-329.159 723.1V826.4M-329.159 723.1H-225.864M-329.159 826.4V929.7M-329.159 826.4H-225.864M-329.159 929.7V1033M-329.159 929.7H-225.864M-329.159 1033V1136.3M-329.159 1033H-225.864M-329.159 1136.3V1239.6M-329.159 1136.3H-225.864M-329.159 1239.6V1342.9M-329.159 1239.6H-225.864M-329.159 1342.9V1446.2M-329.159 1342.9H-225.864M-329.159 1446.2V1549.5M-329.159 1446.2H-225.864M-329.159 1549.5V1652.8M-329.159 1549.5H-225.864M-329.159 1652.8V1756.1M-329.159 1652.8H-225.864M-329.159 1756.1V1859.4M-329.159 1756.1H-225.864M-329.159 1859.4V1962.7M-329.159 1859.4H-225.864M-329.159 1962.7V2066M-329.159 1962.7H-225.864M-329.159 2066H-225.864M-225.864 0V103.3M-225.864 0H-122.568M-225.864 103.3V206.6M-225.864 103.3H-122.568M-225.864 206.6V309.9M-225.864 206.6H-122.568M-225.864 309.9V413.2M-225.864 309.9H-122.568M-225.864 413.2V516.5M-225.864 413.2H-122.568M-225.864 516.5V619.8M-225.864 516.5H-122.568M-225.864 619.8V723.1M-225.864 619.8H-122.568M-225.864 723.1V826.4M-225.864 723.1H-122.568M-225.864 826.4V929.7M-225.864 826.4H-122.568M-225.864 929.7V1033M-225.864 929.7H-122.568M-225.864 1033V1136.3M-225.864 1033H-122.568M-225.864 1136.3V1239.6M-225.864 1136.3H-122.568M-225.864 1239.6V1342.9M-225.864 1239.6H-122.568M-225.864 1342.9V1446.2M-225.864 1342.9H-122.568M-225.864 1446.2V1549.5M-225.864 1446.2H-122.568M-225.864 1549.5V1652.8M-225.864 1549.5H-122.568M-225.864 1652.8V1756.1M-225.864 1652.8H-122.568M-225.864 1756.1V1859.4M-225.864 1756.1H-122.568M-225.864 1859.4V1962.7M-225.864 1859.4H-122.568M-225.864 1962.7V2066M-225.864 1962.7H-122.568M-225.864 2066H-122.568M-122.568 0V103.3M-122.568 0H-19.2727M-122.568 103.3V206.6M-122.568 103.3H-19.2727M-122.568 206.6V309.9M-122.568 206.6H-19.2727M-122.568 309.9V413.2M-122.568 309.9H-19.2727M-122.568 413.2V516.5M-122.568 413.2H-19.2727M-122.568 516.5V619.8M-122.568 516.5H-19.2727M-122.568 619.8V723.1M-122.568 619.8H-19.2727M-122.568 723.1V826.4M-122.568 723.1H-19.2727M-122.568 826.4V929.7M-122.568 826.4H-19.2727M-122.568 929.7V1033M-122.568 929.7H-19.2727M-122.568 1033V1136.3M-122.568 1033H-19.2727M-122.568 1136.3V1239.6M-122.568 1136.3H-19.2727M-122.568 1239.6V1342.9M-122.568 1239.6H-19.2727M-122.568 1342.9V1446.2M-122.568 1342.9H-19.2727M-122.568 1446.2V1549.5M-122.568 1446.2H-19.2727M-122.568 1549.5V1652.8M-122.568 1549.5H-19.2727M-122.568 1652.8V1756.1M-122.568 1652.8H-19.2727M-122.568 1756.1V1859.4M-122.568 1756.1H-19.2727M-122.568 1859.4V1962.7M-122.568 1859.4H-19.2727M-122.568 1962.7V2066M-122.568 1962.7H-19.2727M-122.568 2066H-19.2727M-19.2727 0V103.3M-19.2727 0H84.0226M-19.2727 103.3V206.6M-19.2727 103.3H84.0226M-19.2727 206.6V309.9M-19.2727 206.6H84.0226M-19.2727 309.9V413.2M-19.2727 309.9H84.0226M-19.2727 413.2V516.5M-19.2727 413.2H84.0226M-19.2727 516.5V619.8M-19.2727 516.5H84.0226M-19.2727 619.8V723.1M-19.2727 619.8H84.0226M-19.2727 723.1V826.4M-19.2727 723.1H84.0226M-19.2727 826.4V929.7M-19.2727 826.4H84.0226M-19.2727 929.7V1033M-19.2727 929.7H84.0226M-19.2727 1033V1136.3M-19.2727 1033H84.0226M-19.2727 1136.3V1239.6M-19.2727 1136.3H84.0226M-19.2727 1239.6V1342.9M-19.2727 1239.6H84.0226M-19.2727 1342.9V1446.2M-19.2727 1342.9H84.0226M-19.2727 1446.2V1549.5M-19.2727 1446.2H84.0226M-19.2727 1549.5V1652.8M-19.2727 1549.5H84.0226M-19.2727 1652.8V1756.1M-19.2727 1652.8H84.0226M-19.2727 1756.1V1859.4M-19.2727 1756.1H84.0226M-19.2727 1859.4V1962.7M-19.2727 1859.4H84.0226M-19.2727 1962.7V2066M-19.2727 1962.7H84.0226M-19.2727 2066H84.0226M84.0226 0V103.3M84.0226 0H187.318M84.0226 103.3V206.6M84.0226 103.3H187.318M84.0226 206.6V309.9M84.0226 206.6H187.318M84.0226 309.9V413.2M84.0226 309.9H187.318M84.0226 413.2V516.5M84.0226 413.2H187.318M84.0226 516.5V619.8M84.0226 516.5H187.318M84.0226 619.8V723.1M84.0226 619.8H187.318M84.0226 723.1V826.4M84.0226 723.1H187.318M84.0226 826.4V929.7M84.0226 826.4H187.318M84.0226 929.7V1033M84.0226 929.7H187.318M84.0226 1033V1136.3M84.0226 1033H187.318M84.0226 1136.3V1239.6M84.0226 1136.3H187.318M84.0226 1239.6V1342.9M84.0226 1239.6H187.318M84.0226 1342.9V1446.2M84.0226 1342.9H187.318M84.0226 1446.2V1549.5M84.0226 1446.2H187.318M84.0226 1549.5V1652.8M84.0226 1549.5H187.318M84.0226 1652.8V1756.1M84.0226 1652.8H187.318M84.0226 1756.1V1859.4M84.0226 1756.1H187.318M84.0226 1859.4V1962.7M84.0226 1859.4H187.318M84.0226 1962.7V2066M84.0226 1962.7H187.318M84.0226 2066H187.318M187.318 0V103.3M187.318 0H290.614M187.318 103.3V206.6M187.318 103.3H290.614M187.318 206.6V309.9M187.318 206.6H290.614M187.318 309.9V413.2M187.318 309.9H290.614M187.318 413.2V516.5M187.318 413.2H290.614M187.318 516.5V619.8M187.318 516.5H290.614M187.318 619.8V723.1M187.318 619.8H290.614M187.318 723.1V826.4M187.318 723.1H290.614M187.318 826.4V929.7M187.318 826.4H290.614M187.318 929.7V1033M187.318 929.7H290.614M187.318 1033V1136.3M187.318 1033H290.614M187.318 1136.3V1239.6M187.318 1136.3H290.614M187.318 1239.6V1342.9M187.318 1239.6H290.614M187.318 1342.9V1446.2M187.318 1342.9H290.614M187.318 1446.2V1549.5M187.318 1446.2H290.614M187.318 1549.5V1652.8M187.318 1549.5H290.614M187.318 1652.8V1756.1M187.318 1652.8H290.614M187.318 1756.1V1859.4M187.318 1756.1H290.614M187.318 1859.4V1962.7M187.318 1859.4H290.614M187.318 1962.7V2066M187.318 1962.7H290.614M187.318 2066H290.614M290.614 0V103.3M290.614 0H393.909M290.614 103.3V206.6M290.614 103.3H393.909M290.614 206.6V309.9M290.614 206.6H393.909M290.614 309.9V413.2M290.614 309.9H393.909M290.614 413.2V516.5M290.614 413.2H393.909M290.614 516.5V619.8M290.614 516.5H393.909M290.614 619.8V723.1M290.614 619.8H393.909M290.614 723.1V826.4M290.614 723.1H393.909M290.614 826.4V929.7M290.614 826.4H393.909M290.614 929.7V1033M290.614 929.7H393.909M290.614 1033V1136.3M290.614 1033H393.909M290.614 1136.3V1239.6M290.614 1136.3H393.909M290.614 1239.6V1342.9M290.614 1239.6H393.909M290.614 1342.9V1446.2M290.614 1342.9H393.909M290.614 1446.2V1549.5M290.614 1446.2H393.909M290.614 1549.5V1652.8M290.614 1549.5H393.909M290.614 1652.8V1756.1M290.614 1652.8H393.909M290.614 1756.1V1859.4M290.614 1756.1H393.909M290.614 1859.4V1962.7M290.614 1859.4H393.909M290.614 1962.7V2066M290.614 1962.7H393.909M290.614 2066H393.909M393.909 0V103.3M393.909 0H497.205M393.909 103.3V206.6M393.909 103.3H497.205M393.909 206.6V309.9M393.909 206.6H497.205M393.909 309.9V413.2M393.909 309.9H497.205M393.909 413.2V516.5M393.909 413.2H497.205M393.909 516.5V619.8M393.909 516.5H497.205M393.909 619.8V723.1M393.909 619.8H497.205M393.909 723.1V826.4M393.909 723.1H497.205M393.909 826.4V929.7M393.909 826.4H497.205M393.909 929.7V1033M393.909 929.7H497.205M393.909 1033V1136.3M393.909 1033H497.205M393.909 1136.3V1239.6M393.909 1136.3H497.205M393.909 1239.6V1342.9M393.909 1239.6H497.205M393.909 1342.9V1446.2M393.909 1342.9H497.205M393.909 1446.2V1549.5M393.909 1446.2H497.205M393.909 1549.5V1652.8M393.909 1549.5H497.205M393.909 1652.8V1756.1M393.909 1652.8H497.205M393.909 1756.1V1859.4M393.909 1756.1H497.205M393.909 1859.4V1962.7M393.909 1859.4H497.205M393.909 1962.7V2066M393.909 1962.7H497.205M393.909 2066H497.205M497.205 0V103.3M497.205 0H600.5M497.205 103.3V206.6M497.205 103.3H600.5M497.205 206.6V309.9M497.205 206.6H600.5M497.205 309.9V413.2M497.205 309.9H600.5M497.205 413.2V516.5M497.205 413.2H600.5M497.205 516.5V619.8M497.205 516.5H600.5M497.205 619.8V723.1M497.205 619.8H600.5M497.205 723.1V826.4M497.205 723.1H600.5M497.205 826.4V929.7M497.205 826.4H600.5M497.205 929.7V1033M497.205 929.7H600.5M497.205 1033V1136.3M497.205 1033H600.5M497.205 1136.3V1239.6M497.205 1136.3H600.5M497.205 1239.6V1342.9M497.205 1239.6H600.5M497.205 1342.9V1446.2M497.205 1342.9H600.5M497.205 1446.2V1549.5M497.205 1446.2H600.5M497.205 1549.5V1652.8M497.205 1549.5H600.5M497.205 1652.8V1756.1M497.205 1652.8H600.5M497.205 1756.1V1859.4M497.205 1756.1H600.5M497.205 1859.4V1962.7M497.205 1859.4H600.5M497.205 1962.7V2066M497.205 1962.7H600.5M497.205 2066H600.5M600.5 0V103.3M600.5 0H703.795M600.5 103.3V206.6M600.5 103.3H703.795M600.5 206.6V309.9M600.5 206.6H703.795M600.5 309.9V413.2M600.5 309.9H703.795M600.5 413.2V516.5M600.5 413.2H703.795M600.5 516.5V619.8M600.5 516.5H703.795M600.5 619.8V723.1M600.5 619.8H703.795M600.5 723.1V826.4M600.5 723.1H703.795M600.5 826.4V929.7M600.5 826.4H703.795M600.5 929.7V1033M600.5 929.7H703.795M600.5 1033V1136.3M600.5 1033H703.795M600.5 1136.3V1239.6M600.5 1136.3H703.795M600.5 1239.6V1342.9M600.5 1239.6H703.795M600.5 1342.9V1446.2M600.5 1342.9H703.795M600.5 1446.2V1549.5M600.5 1446.2H703.795M600.5 1549.5V1652.8M600.5 1549.5H703.795M600.5 1652.8V1756.1M600.5 1652.8H703.795M600.5 1756.1V1859.4M600.5 1756.1H703.795M600.5 1859.4V1962.7M600.5 1859.4H703.795M600.5 1962.7V2066M600.5 1962.7H703.795M600.5 2066H703.795M703.795 0V103.3M703.795 0H807.091M703.795 103.3V206.6M703.795 103.3H807.091M703.795 206.6V309.9M703.795 206.6H807.091M703.795 309.9V413.2M703.795 309.9H807.091M703.795 413.2V516.5M703.795 413.2H807.091M703.795 516.5V619.8M703.795 516.5H807.091M703.795 619.8V723.1M703.795 619.8H807.091M703.795 723.1V826.4M703.795 723.1H807.091M703.795 826.4V929.7M703.795 826.4H807.091M703.795 929.7V1033M703.795 929.7H807.091M703.795 1033V1136.3M703.795 1033H807.091M703.795 1136.3V1239.6M703.795 1136.3H807.091M703.795 1239.6V1342.9M703.795 1239.6H807.091M703.795 1342.9V1446.2M703.795 1342.9H807.091M703.795 1446.2V1549.5M703.795 1446.2H807.091M703.795 1549.5V1652.8M703.795 1549.5H807.091M703.795 1652.8V1756.1M703.795 1652.8H807.091M703.795 1756.1V1859.4M703.795 1756.1H807.091M703.795 1859.4V1962.7M703.795 1859.4H807.091M703.795 1962.7V2066M703.795 1962.7H807.091M703.795 2066H807.091M807.091 0V103.3M807.091 0H910.386M807.091 103.3V206.6M807.091 103.3H910.386M807.091 206.6V309.9M807.091 206.6H910.386M807.091 309.9V413.2M807.091 309.9H910.386M807.091 413.2V516.5M807.091 413.2H910.386M807.091 516.5V619.8M807.091 516.5H910.386M807.091 619.8V723.1M807.091 619.8H910.386M807.091 723.1V826.4M807.091 723.1H910.386M807.091 826.4V929.7M807.091 826.4H910.386M807.091 929.7V1033M807.091 929.7H910.386M807.091 1033V1136.3M807.091 1033H910.386M807.091 1136.3V1239.6M807.091 1136.3H910.386M807.091 1239.6V1342.9M807.091 1239.6H910.386M807.091 1342.9V1446.2M807.091 1342.9H910.386M807.091 1446.2V1549.5M807.091 1446.2H910.386M807.091 1549.5V1652.8M807.091 1549.5H910.386M807.091 1652.8V1756.1M807.091 1652.8H910.386M807.091 1756.1V1859.4M807.091 1756.1H910.386M807.091 1859.4V1962.7M807.091 1859.4H910.386M807.091 1962.7V2066M807.091 1962.7H910.386M807.091 2066H910.386M910.386 0V103.3M910.386 0H1013.68M910.386 103.3V206.6M910.386 103.3H1013.68M910.386 206.6V309.9M910.386 206.6H1013.68M910.386 309.9V413.2M910.386 309.9H1013.68M910.386 413.2V516.5M910.386 413.2H1013.68M910.386 516.5V619.8M910.386 516.5H1013.68M910.386 619.8V723.1M910.386 619.8H1013.68M910.386 723.1V826.4M910.386 723.1H1013.68M910.386 826.4V929.7M910.386 826.4H1013.68M910.386 929.7V1033M910.386 929.7H1013.68M910.386 1033V1136.3M910.386 1033H1013.68M910.386 1136.3V1239.6M910.386 1136.3H1013.68M910.386 1239.6V1342.9M910.386 1239.6H1013.68M910.386 1342.9V1446.2M910.386 1342.9H1013.68M910.386 1446.2V1549.5M910.386 1446.2H1013.68M910.386 1549.5V1652.8M910.386 1549.5H1013.68M910.386 1652.8V1756.1M910.386 1652.8H1013.68M910.386 1756.1V1859.4M910.386 1756.1H1013.68M910.386 1859.4V1962.7M910.386 1859.4H1013.68M910.386 1962.7V2066M910.386 1962.7H1013.68M910.386 2066H1013.68M1013.68 0V103.3M1013.68 0H1116.98M1013.68 103.3V206.6M1013.68 103.3H1116.98M1013.68 206.6V309.9M1013.68 206.6H1116.98M1013.68 309.9V413.2M1013.68 309.9H1116.98M1013.68 413.2V516.5M1013.68 413.2H1116.98M1013.68 516.5V619.8M1013.68 516.5H1116.98M1013.68 619.8V723.1M1013.68 619.8H1116.98M1013.68 723.1V826.4M1013.68 723.1H1116.98M1013.68 826.4V929.7M1013.68 826.4H1116.98M1013.68 929.7V1033M1013.68 929.7H1116.98M1013.68 1033V1136.3M1013.68 1033H1116.98M1013.68 1136.3V1239.6M1013.68 1136.3H1116.98M1013.68 1239.6V1342.9M1013.68 1239.6H1116.98M1013.68 1342.9V1446.2M1013.68 1342.9H1116.98M1013.68 1446.2V1549.5M1013.68 1446.2H1116.98M1013.68 1549.5V1652.8M1013.68 1549.5H1116.98M1013.68 1652.8V1756.1M1013.68 1652.8H1116.98M1013.68 1756.1V1859.4M1013.68 1756.1H1116.98M1013.68 1859.4V1962.7M1013.68 1859.4H1116.98M1013.68 1962.7V2066M1013.68 1962.7H1116.98M1013.68 2066H1116.98M1116.98 0V103.3M1116.98 0H1220.27M1116.98 103.3V206.6M1116.98 103.3H1220.27M1116.98 206.6V309.9M1116.98 206.6H1220.27M1116.98 309.9V413.2M1116.98 309.9H1220.27M1116.98 413.2V516.5M1116.98 413.2H1220.27M1116.98 516.5V619.8M1116.98 516.5H1220.27M1116.98 619.8V723.1M1116.98 619.8H1220.27M1116.98 723.1V826.4M1116.98 723.1H1220.27M1116.98 826.4V929.7M1116.98 826.4H1220.27M1116.98 929.7V1033M1116.98 929.7H1220.27M1116.98 1033V1136.3M1116.98 1033H1220.27M1116.98 1136.3V1239.6M1116.98 1136.3H1220.27M1116.98 1239.6V1342.9M1116.98 1239.6H1220.27M1116.98 1342.9V1446.2M1116.98 1342.9H1220.27M1116.98 1446.2V1549.5M1116.98 1446.2H1220.27M1116.98 1549.5V1652.8M1116.98 1549.5H1220.27M1116.98 1652.8V1756.1M1116.98 1652.8H1220.27M1116.98 1756.1V1859.4M1116.98 1756.1H1220.27M1116.98 1859.4V1962.7M1116.98 1859.4H1220.27M1116.98 1962.7V2066M1116.98 1962.7H1220.27M1116.98 2066H1220.27M1220.27 0V103.3M1220.27 0H1323.57M1220.27 103.3V206.6M1220.27 103.3H1323.57M1220.27 206.6V309.9M1220.27 206.6H1323.57M1220.27 309.9V413.2M1220.27 309.9H1323.57M1220.27 413.2V516.5M1220.27 413.2H1323.57M1220.27 516.5V619.8M1220.27 516.5H1323.57M1220.27 619.8V723.1M1220.27 619.8H1323.57M1220.27 723.1V826.4M1220.27 723.1H1323.57M1220.27 826.4V929.7M1220.27 826.4H1323.57M1220.27 929.7V1033M1220.27 929.7H1323.57M1220.27 1033V1136.3M1220.27 1033H1323.57M1220.27 1136.3V1239.6M1220.27 1136.3H1323.57M1220.27 1239.6V1342.9M1220.27 1239.6H1323.57M1220.27 1342.9V1446.2M1220.27 1342.9H1323.57M1220.27 1446.2V1549.5M1220.27 1446.2H1323.57M1220.27 1549.5V1652.8M1220.27 1549.5H1323.57M1220.27 1652.8V1756.1M1220.27 1652.8H1323.57M1220.27 1756.1V1859.4M1220.27 1756.1H1323.57M1220.27 1859.4V1962.7M1220.27 1859.4H1323.57M1220.27 1962.7V2066M1220.27 1962.7H1323.57M1220.27 2066H1323.57M1323.57 0V103.3M1323.57 0H1426.86M1323.57 103.3V206.6M1323.57 103.3H1426.86M1323.57 206.6V309.9M1323.57 206.6H1426.86M1323.57 309.9V413.2M1323.57 309.9H1426.86M1323.57 413.2V516.5M1323.57 413.2H1426.86M1323.57 516.5V619.8M1323.57 516.5H1426.86M1323.57 619.8V723.1M1323.57 619.8H1426.86M1323.57 723.1V826.4M1323.57 723.1H1426.86M1323.57 826.4V929.7M1323.57 826.4H1426.86M1323.57 929.7V1033M1323.57 929.7H1426.86M1323.57 1033V1136.3M1323.57 1033H1426.86M1323.57 1136.3V1239.6M1323.57 1136.3H1426.86M1323.57 1239.6V1342.9M1323.57 1239.6H1426.86M1323.57 1342.9V1446.2M1323.57 1342.9H1426.86M1323.57 1446.2V1549.5M1323.57 1446.2H1426.86M1323.57 1549.5V1652.8M1323.57 1549.5H1426.86M1323.57 1652.8V1756.1M1323.57 1652.8H1426.86M1323.57 1756.1V1859.4M1323.57 1756.1H1426.86M1323.57 1859.4V1962.7M1323.57 1859.4H1426.86M1323.57 1962.7V2066M1323.57 1962.7H1426.86M1323.57 2066H1426.86M1426.86 0V103.3M1426.86 0H1530.16M1426.86 103.3V206.6M1426.86 103.3H1530.16M1426.86 206.6V309.9M1426.86 206.6H1530.16M1426.86 309.9V413.2M1426.86 309.9H1530.16M1426.86 413.2V516.5M1426.86 413.2H1530.16M1426.86 516.5V619.8M1426.86 516.5H1530.16M1426.86 619.8V723.1M1426.86 619.8H1530.16M1426.86 723.1V826.4M1426.86 723.1H1530.16M1426.86 826.4V929.7M1426.86 826.4H1530.16M1426.86 929.7V1033M1426.86 929.7H1530.16M1426.86 1033V1136.3M1426.86 1033H1530.16M1426.86 1136.3V1239.6M1426.86 1136.3H1530.16M1426.86 1239.6V1342.9M1426.86 1239.6H1530.16M1426.86 1342.9V1446.2M1426.86 1342.9H1530.16M1426.86 1446.2V1549.5M1426.86 1446.2H1530.16M1426.86 1549.5V1652.8M1426.86 1549.5H1530.16M1426.86 1652.8V1756.1M1426.86 1652.8H1530.16M1426.86 1756.1V1859.4M1426.86 1756.1H1530.16M1426.86 1859.4V1962.7M1426.86 1859.4H1530.16M1426.86 1962.7V2066M1426.86 1962.7H1530.16M1426.86 2066H1530.16M1530.16 0V103.3M1530.16 0H1633.45M1530.16 103.3V206.6M1530.16 103.3H1633.45M1530.16 206.6V309.9M1530.16 206.6H1633.45M1530.16 309.9V413.2M1530.16 309.9H1633.45M1530.16 413.2V516.5M1530.16 413.2H1633.45M1530.16 516.5V619.8M1530.16 516.5H1633.45M1530.16 619.8V723.1M1530.16 619.8H1633.45M1530.16 723.1V826.4M1530.16 723.1H1633.45M1530.16 826.4V929.7M1530.16 826.4H1633.45M1530.16 929.7V1033M1530.16 929.7H1633.45M1530.16 1033V1136.3M1530.16 1033H1633.45M1530.16 1136.3V1239.6M1530.16 1136.3H1633.45M1530.16 1239.6V1342.9M1530.16 1239.6H1633.45M1530.16 1342.9V1446.2M1530.16 1342.9H1633.45M1530.16 1446.2V1549.5M1530.16 1446.2H1633.45M1530.16 1549.5V1652.8M1530.16 1549.5H1633.45M1530.16 1652.8V1756.1M1530.16 1652.8H1633.45M1530.16 1756.1V1859.4M1530.16 1756.1H1633.45M1530.16 1859.4V1962.7M1530.16 1859.4H1633.45M1530.16 1962.7V2066M1530.16 1962.7H1633.45M1530.16 2066H1633.45M1633.45 0V103.3M1633.45 0H1736.75M1633.45 103.3V206.6M1633.45 103.3H1736.75M1633.45 206.6V309.9M1633.45 206.6H1736.75M1633.45 309.9V413.2M1633.45 309.9H1736.75M1633.45 413.2V516.5M1633.45 413.2H1736.75M1633.45 516.5V619.8M1633.45 516.5H1736.75M1633.45 619.8V723.1M1633.45 619.8H1736.75M1633.45 723.1V826.4M1633.45 723.1H1736.75M1633.45 826.4V929.7M1633.45 826.4H1736.75M1633.45 929.7V1033M1633.45 929.7H1736.75M1633.45 1033V1136.3M1633.45 1033H1736.75M1633.45 1136.3V1239.6M1633.45 1136.3H1736.75M1633.45 1239.6V1342.9M1633.45 1239.6H1736.75M1633.45 1342.9V1446.2M1633.45 1342.9H1736.75M1633.45 1446.2V1549.5M1633.45 1446.2H1736.75M1633.45 1549.5V1652.8M1633.45 1549.5H1736.75M1633.45 1652.8V1756.1M1633.45 1652.8H1736.75M1633.45 1756.1V1859.4M1633.45 1756.1H1736.75M1633.45 1859.4V1962.7M1633.45 1859.4H1736.75M1633.45 1962.7V2066M1633.45 1962.7H1736.75M1633.45 2066H1736.75M1736.75 0V103.3M1736.75 0H1840.05M1736.75 103.3V206.6M1736.75 103.3H1840.05M1736.75 206.6V309.9M1736.75 206.6H1840.05M1736.75 309.9V413.2M1736.75 309.9H1840.05M1736.75 413.2V516.5M1736.75 413.2H1840.05M1736.75 516.5V619.8M1736.75 516.5H1840.05M1736.75 619.8V723.1M1736.75 619.8H1840.05M1736.75 723.1V826.4M1736.75 723.1H1840.05M1736.75 826.4V929.7M1736.75 826.4H1840.05M1736.75 929.7V1033M1736.75 929.7H1840.05M1736.75 1033V1136.3M1736.75 1033H1840.05M1736.75 1136.3V1239.6M1736.75 1136.3H1840.05M1736.75 1239.6V1342.9M1736.75 1239.6H1840.05M1736.75 1342.9V1446.2M1736.75 1342.9H1840.05M1736.75 1446.2V1549.5M1736.75 1446.2H1840.05M1736.75 1549.5V1652.8M1736.75 1549.5H1840.05M1736.75 1652.8V1756.1M1736.75 1652.8H1840.05M1736.75 1756.1V1859.4M1736.75 1756.1H1840.05M1736.75 1859.4V1962.7M1736.75 1859.4H1840.05M1736.75 1962.7V2066M1736.75 1962.7H1840.05M1736.75 2066H1840.05M1840.05 0V103.3M1840.05 0H1943.34M1840.05 103.3V206.6M1840.05 103.3H1943.34M1840.05 206.6V309.9M1840.05 206.6H1943.34M1840.05 309.9V413.2M1840.05 309.9H1943.34M1840.05 413.2V516.5M1840.05 413.2H1943.34M1840.05 516.5V619.8M1840.05 516.5H1943.34M1840.05 619.8V723.1M1840.05 619.8H1943.34M1840.05 723.1V826.4M1840.05 723.1H1943.34M1840.05 826.4V929.7M1840.05 826.4H1943.34M1840.05 929.7V1033M1840.05 929.7H1943.34M1840.05 1033V1136.3M1840.05 1033H1943.34M1840.05 1136.3V1239.6M1840.05 1136.3H1943.34M1840.05 1239.6V1342.9M1840.05 1239.6H1943.34M1840.05 1342.9V1446.2M1840.05 1342.9H1943.34M1840.05 1446.2V1549.5M1840.05 1446.2H1943.34M1840.05 1549.5V1652.8M1840.05 1549.5H1943.34M1840.05 1652.8V1756.1M1840.05 1652.8H1943.34M1840.05 1756.1V1859.4M1840.05 1756.1H1943.34M1840.05 1859.4V1962.7M1840.05 1859.4H1943.34M1840.05 1962.7V2066M1840.05 1962.7H1943.34M1840.05 2066H1943.34M1943.34 0V103.3M1943.34 0H2046.64M1943.34 103.3V206.6M1943.34 103.3H2046.64M1943.34 206.6V309.9M1943.34 206.6H2046.64M1943.34 309.9V413.2M1943.34 309.9H2046.64M1943.34 413.2V516.5M1943.34 413.2H2046.64M1943.34 516.5V619.8M1943.34 516.5H2046.64M1943.34 619.8V723.1M1943.34 619.8H2046.64M1943.34 723.1V826.4M1943.34 723.1H2046.64M1943.34 826.4V929.7M1943.34 826.4H2046.64M1943.34 929.7V1033M1943.34 929.7H2046.64M1943.34 1033V1136.3M1943.34 1033H2046.64M1943.34 1136.3V1239.6M1943.34 1136.3H2046.64M1943.34 1239.6V1342.9M1943.34 1239.6H2046.64M1943.34 1342.9V1446.2M1943.34 1342.9H2046.64M1943.34 1446.2V1549.5M1943.34 1446.2H2046.64M1943.34 1549.5V1652.8M1943.34 1549.5H2046.64M1943.34 1652.8V1756.1M1943.34 1652.8H2046.64M1943.34 1756.1V1859.4M1943.34 1756.1H2046.64M1943.34 1859.4V1962.7M1943.34 1859.4H2046.64M1943.34 1962.7V2066M1943.34 1962.7H2046.64M1943.34 2066H2046.64M2046.64 0V103.3M2046.64 0H2149.93M2046.64 103.3V206.6M2046.64 103.3H2149.93M2046.64 206.6V309.9M2046.64 206.6H2149.93M2046.64 309.9V413.2M2046.64 309.9H2149.93M2046.64 413.2V516.5M2046.64 413.2H2149.93M2046.64 516.5V619.8M2046.64 516.5H2149.93M2046.64 619.8V723.1M2046.64 619.8H2149.93M2046.64 723.1V826.4M2046.64 723.1H2149.93M2046.64 826.4V929.7M2046.64 826.4H2149.93M2046.64 929.7V1033M2046.64 929.7H2149.93M2046.64 1033V1136.3M2046.64 1033H2149.93M2046.64 1136.3V1239.6M2046.64 1136.3H2149.93M2046.64 1239.6V1342.9M2046.64 1239.6H2149.93M2046.64 1342.9V1446.2M2046.64 1342.9H2149.93M2046.64 1446.2V1549.5M2046.64 1446.2H2149.93M2046.64 1549.5V1652.8M2046.64 1549.5H2149.93M2046.64 1652.8V1756.1M2046.64 1652.8H2149.93M2046.64 1756.1V1859.4M2046.64 1756.1H2149.93M2046.64 1859.4V1962.7M2046.64 1859.4H2149.93M2046.64 1962.7V2066M2046.64 1962.7H2149.93M2046.64 2066H2149.93M2149.93 0V103.3M2149.93 0H2253.23M2149.93 103.3V206.6M2149.93 103.3H2253.23M2149.93 206.6V309.9M2149.93 206.6H2253.23M2149.93 309.9V413.2M2149.93 309.9H2253.23M2149.93 413.2V516.5M2149.93 413.2H2253.23M2149.93 516.5V619.8M2149.93 516.5H2253.23M2149.93 619.8V723.1M2149.93 619.8H2253.23M2149.93 723.1V826.4M2149.93 723.1H2253.23M2149.93 826.4V929.7M2149.93 826.4H2253.23M2149.93 929.7V1033M2149.93 929.7H2253.23M2149.93 1033V1136.3M2149.93 1033H2253.23M2149.93 1136.3V1239.6M2149.93 1136.3H2253.23M2149.93 1239.6V1342.9M2149.93 1239.6H2253.23M2149.93 1342.9V1446.2M2149.93 1342.9H2253.23M2149.93 1446.2V1549.5M2149.93 1446.2H2253.23M2149.93 1549.5V1652.8M2149.93 1549.5H2253.23M2149.93 1652.8V1756.1M2149.93 1652.8H2253.23M2149.93 1756.1V1859.4M2149.93 1756.1H2253.23M2149.93 1859.4V1962.7M2149.93 1859.4H2253.23M2149.93 1962.7V2066M2149.93 1962.7H2253.23M2149.93 2066H2253.23M2253.23 0V103.3M2253.23 0H2356.52M2253.23 103.3V206.6M2253.23 103.3H2356.52M2253.23 206.6V309.9M2253.23 206.6H2356.52M2253.23 309.9V413.2M2253.23 309.9H2356.52M2253.23 413.2V516.5M2253.23 413.2H2356.52M2253.23 516.5V619.8M2253.23 516.5H2356.52M2253.23 619.8V723.1M2253.23 619.8H2356.52M2253.23 723.1V826.4M2253.23 723.1H2356.52M2253.23 826.4V929.7M2253.23 826.4H2356.52M2253.23 929.7V1033M2253.23 929.7H2356.52M2253.23 1033V1136.3M2253.23 1033H2356.52M2253.23 1136.3V1239.6M2253.23 1136.3H2356.52M2253.23 1239.6V1342.9M2253.23 1239.6H2356.52M2253.23 1342.9V1446.2M2253.23 1342.9H2356.52M2253.23 1446.2V1549.5M2253.23 1446.2H2356.52M2253.23 1549.5V1652.8M2253.23 1549.5H2356.52M2253.23 1652.8V1756.1M2253.23 1652.8H2356.52M2253.23 1756.1V1859.4M2253.23 1756.1H2356.52M2253.23 1859.4V1962.7M2253.23 1859.4H2356.52M2253.23 1962.7V2066M2253.23 1962.7H2356.52M2253.23 2066H2356.52M2356.52 0V103.3M2356.52 0H2459.82M2356.52 103.3V206.6M2356.52 103.3H2459.82M2356.52 206.6V309.9M2356.52 206.6H2459.82M2356.52 309.9V413.2M2356.52 309.9H2459.82M2356.52 413.2V516.5M2356.52 413.2H2459.82M2356.52 516.5V619.8M2356.52 516.5H2459.82M2356.52 619.8V723.1M2356.52 619.8H2459.82M2356.52 723.1V826.4M2356.52 723.1H2459.82M2356.52 826.4V929.7M2356.52 826.4H2459.82M2356.52 929.7V1033M2356.52 929.7H2459.82M2356.52 1033V1136.3M2356.52 1033H2459.82M2356.52 1136.3V1239.6M2356.52 1136.3H2459.82M2356.52 1239.6V1342.9M2356.52 1239.6H2459.82M2356.52 1342.9V1446.2M2356.52 1342.9H2459.82M2356.52 1446.2V1549.5M2356.52 1446.2H2459.82M2356.52 1549.5V1652.8M2356.52 1549.5H2459.82M2356.52 1652.8V1756.1M2356.52 1652.8H2459.82M2356.52 1756.1V1859.4M2356.52 1756.1H2459.82M2356.52 1859.4V1962.7M2356.52 1859.4H2459.82M2356.52 1962.7V2066M2356.52 1962.7H2459.82M2356.52 2066H2459.82M2459.82 0V103.3M2459.82 0H2563.11M2459.82 103.3V206.6M2459.82 103.3H2563.11M2459.82 206.6V309.9M2459.82 206.6H2563.11M2459.82 309.9V413.2M2459.82 309.9H2563.11M2459.82 413.2V516.5M2459.82 413.2H2563.11M2459.82 516.5V619.8M2459.82 516.5H2563.11M2459.82 619.8V723.1M2459.82 619.8H2563.11M2459.82 723.1V826.4M2459.82 723.1H2563.11M2459.82 826.4V929.7M2459.82 826.4H2563.11M2459.82 929.7V1033M2459.82 929.7H2563.11M2459.82 1033V1136.3M2459.82 1033H2563.11M2459.82 1136.3V1239.6M2459.82 1136.3H2563.11M2459.82 1239.6V1342.9M2459.82 1239.6H2563.11M2459.82 1342.9V1446.2M2459.82 1342.9H2563.11M2459.82 1446.2V1549.5M2459.82 1446.2H2563.11M2459.82 1549.5V1652.8M2459.82 1549.5H2563.11M2459.82 1652.8V1756.1M2459.82 1652.8H2563.11M2459.82 1756.1V1859.4M2459.82 1756.1H2563.11M2459.82 1859.4V1962.7M2459.82 1859.4H2563.11M2459.82 1962.7V2066M2459.82 1962.7H2563.11M2459.82 2066H2563.11M2563.11 0V103.3M2563.11 0H2666.41M2563.11 103.3V206.6M2563.11 103.3H2666.41M2563.11 206.6V309.9M2563.11 206.6H2666.41M2563.11 309.9V413.2M2563.11 309.9H2666.41M2563.11 413.2V516.5M2563.11 413.2H2666.41M2563.11 516.5V619.8M2563.11 516.5H2666.41M2563.11 619.8V723.1M2563.11 619.8H2666.41M2563.11 723.1V826.4M2563.11 723.1H2666.41M2563.11 826.4V929.7M2563.11 826.4H2666.41M2563.11 929.7V1033M2563.11 929.7H2666.41M2563.11 1033V1136.3M2563.11 1033H2666.41M2563.11 1136.3V1239.6M2563.11 1136.3H2666.41M2563.11 1239.6V1342.9M2563.11 1239.6H2666.41M2563.11 1342.9V1446.2M2563.11 1342.9H2666.41M2563.11 1446.2V1549.5M2563.11 1446.2H2666.41M2563.11 1549.5V1652.8M2563.11 1549.5H2666.41M2563.11 1652.8V1756.1M2563.11 1652.8H2666.41M2563.11 1756.1V1859.4M2563.11 1756.1H2666.41M2563.11 1859.4V1962.7M2563.11 1859.4H2666.41M2563.11 1962.7V2066M2563.11 1962.7H2666.41M2563.11 2066H2666.41M2666.41 0V103.3M2666.41 0H2769.7M2666.41 103.3V206.6M2666.41 103.3H2769.7M2666.41 206.6V309.9M2666.41 206.6H2769.7M2666.41 309.9V413.2M2666.41 309.9H2769.7M2666.41 413.2V516.5M2666.41 413.2H2769.7M2666.41 516.5V619.8M2666.41 516.5H2769.7M2666.41 619.8V723.1M2666.41 619.8H2769.7M2666.41 723.1V826.4M2666.41 723.1H2769.7M2666.41 826.4V929.7M2666.41 826.4H2769.7M2666.41 929.7V1033M2666.41 929.7H2769.7M2666.41 1033V1136.3M2666.41 1033H2769.7M2666.41 1136.3V1239.6M2666.41 1136.3H2769.7M2666.41 1239.6V1342.9M2666.41 1239.6H2769.7M2666.41 1342.9V1446.2M2666.41 1342.9H2769.7M2666.41 1446.2V1549.5M2666.41 1446.2H2769.7M2666.41 1549.5V1652.8M2666.41 1549.5H2769.7M2666.41 1652.8V1756.1M2666.41 1652.8H2769.7M2666.41 1756.1V1859.4M2666.41 1756.1H2769.7M2666.41 1859.4V1962.7M2666.41 1859.4H2769.7M2666.41 1962.7V2066M2666.41 1962.7H2769.7M2666.41 2066H2769.7M2769.7 0V103.3M2769.7 0H2873V103.3M2769.7 103.3V206.6M2769.7 103.3H2873M2769.7 206.6V309.9M2769.7 206.6H2873M2769.7 309.9V413.2M2769.7 309.9H2873M2769.7 413.2V516.5M2769.7 413.2H2873M2769.7 516.5V619.8M2769.7 516.5H2873M2769.7 619.8V723.1M2769.7 619.8H2873M2769.7 723.1V826.4M2769.7 723.1H2873M2769.7 826.4V929.7M2769.7 826.4H2873M2769.7 929.7V1033M2769.7 929.7H2873M2769.7 1033V1136.3M2769.7 1033H2873M2769.7 1136.3V1239.6M2769.7 1136.3H2873M2769.7 1239.6V1342.9M2769.7 1239.6H2873M2769.7 1342.9V1446.2M2769.7 1342.9H2873M2769.7 1446.2V1549.5M2769.7 1446.2H2873M2769.7 1549.5V1652.8M2769.7 1549.5H2873M2769.7 1652.8V1756.1M2769.7 1652.8H2873M2769.7 1756.1V1859.4M2769.7 1756.1H2873M2769.7 1859.4V1962.7M2769.7 1859.4H2873M2769.7 1962.7V2066M2769.7 1962.7H2873M2769.7 2066H2873V1962.7M2873 103.3V206.6M2873 206.6V309.9M2873 309.9V413.2M2873 413.2V516.5M2873 516.5V619.8M2873 619.8V723.1M2873 723.1V826.4M2873 826.4V929.7M2873 929.7V1033M2873 1033V1136.3M2873 1136.3V1239.6M2873 1239.6V1342.9M2873 1342.9V1446.2M2873 1446.2V1549.5M2873 1549.5V1652.8M2873 1652.8V1756.1M2873 1756.1V1859.4M2873 1859.4V1962.7" stroke="url(#paint0_radial_650_20)" stroke-width="0.804612"/>
</g>
<defs>
<filter id="filter0_f_650_20" x="-620" y="142" width="1285" height="1165" filterUnits="userSpaceOnUse" color-interpolation-filters="sRGB">
<feFlood flood-opacity="0" result="BackgroundImageFix"/>
<feBlend mode="normal" in="SourceGraphic" in2="BackgroundImageFix" result="shape"/>
<feGaussianBlur stdDeviation="200" result="effect1_foregroundBlur_650_20"/>
</filter>
<radialGradient id="paint0_radial_650_20" cx="0" cy="0" r="1" gradientUnits="userSpaceOnUse" gradientTransform="translate(600 -8.16093e-05) rotate(105.35) scale(528.867 1163.46)">
<stop stop-color="#230394" stop-opacity="0.5"/>
<stop offset="0.515" stop-color="white"/>
<stop offset="1" stop-color="#230394" stop-opacity="0.5"/>
</radialGradient>
<clipPath id="clip0_650_20">
<rect width="1024" height="300" fill="white"/>
</clipPath>
</defs>
</svg>
