<svg width="1441" height="400" viewBox="0 0 1441 400" fill="none" xmlns="http://www.w3.org/2000/svg">
<g clip-path="url(#clip0_650_33)">
<rect width="1441" height="400" fill="#2D34FF"/>
<g opacity="0.2" filter="url(#filter0_f_650_33)">
<rect x="-11" y="542" width="485" height="365" fill="#84FFD3"/>
</g>
<path opacity="0.15" d="M-1359.7 0H-1463V103.3M-1359.7 0V103.3M-1359.7 0H-1256.41M-1359.7 103.3H-1463M-1359.7 103.3V206.6M-1359.7 103.3H-1256.41M-1463 103.3V206.6M-1359.7 206.6H-1463M-1359.7 206.6V309.9M-1359.7 206.6H-1256.41M-1463 206.6V309.9M-1359.7 309.9H-1463M-1359.7 309.9V413.2M-1359.7 309.9H-1256.41M-1463 309.9V413.2M-1359.7 413.2H-1463M-1359.7 413.2V516.5M-1359.7 413.2H-1256.41M-1463 413.2V516.5M-1359.7 516.5H-1463M-1359.7 516.5V619.8M-1359.7 516.5H-1256.41M-1463 516.5V619.8M-1359.7 619.8H-1463M-1359.7 619.8V723.1M-1359.7 619.8H-1256.41M-1463 619.8V723.1M-1359.7 723.1H-1463M-1359.7 723.1V826.4M-1359.7 723.1H-1256.41M-1463 723.1V826.4M-1359.7 826.4H-1463M-1359.7 826.4V929.7M-1359.7 826.4H-1256.41M-1463 826.4V929.7M-1359.7 929.7H-1463M-1359.7 929.7V1033M-1359.7 929.7H-1256.41M-1463 929.7V1033M-1359.7 1033H-1463M-1359.7 1033V1136.3M-1359.7 1033H-1256.41M-1463 1033V1136.3M-1359.7 1136.3H-1463M-1359.7 1136.3V1239.6M-1359.7 1136.3H-1256.41M-1463 1136.3V1239.6M-1359.7 1239.6H-1463M-1359.7 1239.6V1342.9M-1359.7 1239.6H-1256.41M-1463 1239.6V1342.9M-1359.7 1342.9H-1463M-1359.7 1342.9V1446.2M-1359.7 1342.9H-1256.41M-1463 1342.9V1446.2M-1359.7 1446.2H-1463M-1359.7 1446.2V1549.5M-1359.7 1446.2H-1256.41M-1463 1446.2V1549.5M-1359.7 1549.5H-1463M-1359.7 1549.5V1652.8M-1359.7 1549.5H-1256.41M-1463 1549.5V1652.8M-1359.7 1652.8H-1463M-1359.7 1652.8V1756.1M-1359.7 1652.8H-1256.41M-1463 1652.8V1756.1M-1359.7 1756.1H-1463M-1359.7 1756.1V1859.4M-1359.7 1756.1H-1256.41M-1463 1756.1V1859.4M-1359.7 1859.4H-1463M-1359.7 1859.4V1962.7M-1359.7 1859.4H-1256.41M-1463 1859.4V1962.7M-1359.7 1962.7H-1463M-1359.7 1962.7V2066M-1359.7 1962.7H-1256.41M-1463 1962.7V2066H-1359.7M-1359.7 2066H-1256.41M-1256.41 0V103.3M-1256.41 0H-1153.11M-1256.41 103.3V206.6M-1256.41 103.3H-1153.11M-1256.41 206.6V309.9M-1256.41 206.6H-1153.11M-1256.41 309.9V413.2M-1256.41 309.9H-1153.11M-1256.41 413.2V516.5M-1256.41 413.2H-1153.11M-1256.41 516.5V619.8M-1256.41 516.5H-1153.11M-1256.41 619.8V723.1M-1256.41 619.8H-1153.11M-1256.41 723.1V826.4M-1256.41 723.1H-1153.11M-1256.41 826.4V929.7M-1256.41 826.4H-1153.11M-1256.41 929.7V1033M-1256.41 929.7H-1153.11M-1256.41 1033V1136.3M-1256.41 1033H-1153.11M-1256.41 1136.3V1239.6M-1256.41 1136.3H-1153.11M-1256.41 1239.6V1342.9M-1256.41 1239.6H-1153.11M-1256.41 1342.9V1446.2M-1256.41 1342.9H-1153.11M-1256.41 1446.2V1549.5M-1256.41 1446.2H-1153.11M-1256.41 1549.5V1652.8M-1256.41 1549.5H-1153.11M-1256.41 1652.8V1756.1M-1256.41 1652.8H-1153.11M-1256.41 1756.1V1859.4M-1256.41 1756.1H-1153.11M-1256.41 1859.4V1962.7M-1256.41 1859.4H-1153.11M-1256.41 1962.7V2066M-1256.41 1962.7H-1153.11M-1256.41 2066H-1153.11M-1153.11 0V103.3M-1153.11 0H-1049.82M-1153.11 103.3V206.6M-1153.11 103.3H-1049.82M-1153.11 206.6V309.9M-1153.11 206.6H-1049.82M-1153.11 309.9V413.2M-1153.11 309.9H-1049.82M-1153.11 413.2V516.5M-1153.11 413.2H-1049.82M-1153.11 516.5V619.8M-1153.11 516.5H-1049.82M-1153.11 619.8V723.1M-1153.11 619.8H-1049.82M-1153.11 723.1V826.4M-1153.11 723.1H-1049.82M-1153.11 826.4V929.7M-1153.11 826.4H-1049.82M-1153.11 929.7V1033M-1153.11 929.7H-1049.82M-1153.11 1033V1136.3M-1153.11 1033H-1049.82M-1153.11 1136.3V1239.6M-1153.11 1136.3H-1049.82M-1153.11 1239.6V1342.9M-1153.11 1239.6H-1049.82M-1153.11 1342.9V1446.2M-1153.11 1342.9H-1049.82M-1153.11 1446.2V1549.5M-1153.11 1446.2H-1049.82M-1153.11 1549.5V1652.8M-1153.11 1549.5H-1049.82M-1153.11 1652.8V1756.1M-1153.11 1652.8H-1049.82M-1153.11 1756.1V1859.4M-1153.11 1756.1H-1049.82M-1153.11 1859.4V1962.7M-1153.11 1859.4H-1049.82M-1153.11 1962.7V2066M-1153.11 1962.7H-1049.82M-1153.11 2066H-1049.82M-1049.82 0V103.3M-1049.82 0H-946.523M-1049.82 103.3V206.6M-1049.82 103.3H-946.523M-1049.82 206.6V309.9M-1049.82 206.6H-946.523M-1049.82 309.9V413.2M-1049.82 309.9H-946.523M-1049.82 413.2V516.5M-1049.82 413.2H-946.523M-1049.82 516.5V619.8M-1049.82 516.5H-946.523M-1049.82 619.8V723.1M-1049.82 619.8H-946.523M-1049.82 723.1V826.4M-1049.82 723.1H-946.523M-1049.82 826.4V929.7M-1049.82 826.4H-946.523M-1049.82 929.7V1033M-1049.82 929.7H-946.523M-1049.82 1033V1136.3M-1049.82 1033H-946.523M-1049.82 1136.3V1239.6M-1049.82 1136.3H-946.523M-1049.82 1239.6V1342.9M-1049.82 1239.6H-946.523M-1049.82 1342.9V1446.2M-1049.82 1342.9H-946.523M-1049.82 1446.2V1549.5M-1049.82 1446.2H-946.523M-1049.82 1549.5V1652.8M-1049.82 1549.5H-946.523M-1049.82 1652.8V1756.1M-1049.82 1652.8H-946.523M-1049.82 1756.1V1859.4M-1049.82 1756.1H-946.523M-1049.82 1859.4V1962.7M-1049.82 1859.4H-946.523M-1049.82 1962.7V2066M-1049.82 1962.7H-946.523M-1049.82 2066H-946.523M-946.523 0V103.3M-946.523 0H-843.227M-946.523 103.3V206.6M-946.523 103.3H-843.227M-946.523 206.6V309.9M-946.523 206.6H-843.227M-946.523 309.9V413.2M-946.523 309.9H-843.227M-946.523 413.2V516.5M-946.523 413.2H-843.227M-946.523 516.5V619.8M-946.523 516.5H-843.227M-946.523 619.8V723.1M-946.523 619.8H-843.227M-946.523 723.1V826.4M-946.523 723.1H-843.227M-946.523 826.4V929.7M-946.523 826.4H-843.227M-946.523 929.7V1033M-946.523 929.7H-843.227M-946.523 1033V1136.3M-946.523 1033H-843.227M-946.523 1136.3V1239.6M-946.523 1136.3H-843.227M-946.523 1239.6V1342.9M-946.523 1239.6H-843.227M-946.523 1342.9V1446.2M-946.523 1342.9H-843.227M-946.523 1446.2V1549.5M-946.523 1446.2H-843.227M-946.523 1549.5V1652.8M-946.523 1549.5H-843.227M-946.523 1652.8V1756.1M-946.523 1652.8H-843.227M-946.523 1756.1V1859.4M-946.523 1756.1H-843.227M-946.523 1859.4V1962.7M-946.523 1859.4H-843.227M-946.523 1962.7V2066M-946.523 1962.7H-843.227M-946.523 2066H-843.227M-843.227 0V103.3M-843.227 0H-739.932M-843.227 103.3V206.6M-843.227 103.3H-739.932M-843.227 206.6V309.9M-843.227 206.6H-739.932M-843.227 309.9V413.2M-843.227 309.9H-739.932M-843.227 413.2V516.5M-843.227 413.2H-739.932M-843.227 516.5V619.8M-843.227 516.5H-739.932M-843.227 619.8V723.1M-843.227 619.8H-739.932M-843.227 723.1V826.4M-843.227 723.1H-739.932M-843.227 826.4V929.7M-843.227 826.4H-739.932M-843.227 929.7V1033M-843.227 929.7H-739.932M-843.227 1033V1136.3M-843.227 1033H-739.932M-843.227 1136.3V1239.6M-843.227 1136.3H-739.932M-843.227 1239.6V1342.9M-843.227 1239.6H-739.932M-843.227 1342.9V1446.2M-843.227 1342.9H-739.932M-843.227 1446.2V1549.5M-843.227 1446.2H-739.932M-843.227 1549.5V1652.8M-843.227 1549.5H-739.932M-843.227 1652.8V1756.1M-843.227 1652.8H-739.932M-843.227 1756.1V1859.4M-843.227 1756.1H-739.932M-843.227 1859.4V1962.7M-843.227 1859.4H-739.932M-843.227 1962.7V2066M-843.227 1962.7H-739.932M-843.227 2066H-739.932M-739.932 0V103.3M-739.932 0H-636.636M-739.932 103.3V206.6M-739.932 103.3H-636.636M-739.932 206.6V309.9M-739.932 206.6H-636.636M-739.932 309.9V413.2M-739.932 309.9H-636.636M-739.932 413.2V516.5M-739.932 413.2H-636.636M-739.932 516.5V619.8M-739.932 516.5H-636.636M-739.932 619.8V723.1M-739.932 619.8H-636.636M-739.932 723.1V826.4M-739.932 723.1H-636.636M-739.932 826.4V929.7M-739.932 826.4H-636.636M-739.932 929.7V1033M-739.932 929.7H-636.636M-739.932 1033V1136.3M-739.932 1033H-636.636M-739.932 1136.3V1239.6M-739.932 1136.3H-636.636M-739.932 1239.6V1342.9M-739.932 1239.6H-636.636M-739.932 1342.9V1446.2M-739.932 1342.9H-636.636M-739.932 1446.2V1549.5M-739.932 1446.2H-636.636M-739.932 1549.5V1652.8M-739.932 1549.5H-636.636M-739.932 1652.8V1756.1M-739.932 1652.8H-636.636M-739.932 1756.1V1859.4M-739.932 1756.1H-636.636M-739.932 1859.4V1962.7M-739.932 1859.4H-636.636M-739.932 1962.7V2066M-739.932 1962.7H-636.636M-739.932 2066H-636.636M-636.636 0V103.3M-636.636 0H-533.341M-636.636 103.3V206.6M-636.636 103.3H-533.341M-636.636 206.6V309.9M-636.636 206.6H-533.341M-636.636 309.9V413.2M-636.636 309.9H-533.341M-636.636 413.2V516.5M-636.636 413.2H-533.341M-636.636 516.5V619.8M-636.636 516.5H-533.341M-636.636 619.8V723.1M-636.636 619.8H-533.341M-636.636 723.1V826.4M-636.636 723.1H-533.341M-636.636 826.4V929.7M-636.636 826.4H-533.341M-636.636 929.7V1033M-636.636 929.7H-533.341M-636.636 1033V1136.3M-636.636 1033H-533.341M-636.636 1136.3V1239.6M-636.636 1136.3H-533.341M-636.636 1239.6V1342.9M-636.636 1239.6H-533.341M-636.636 1342.9V1446.2M-636.636 1342.9H-533.341M-636.636 1446.2V1549.5M-636.636 1446.2H-533.341M-636.636 1549.5V1652.8M-636.636 1549.5H-533.341M-636.636 1652.8V1756.1M-636.636 1652.8H-533.341M-636.636 1756.1V1859.4M-636.636 1756.1H-533.341M-636.636 1859.4V1962.7M-636.636 1859.4H-533.341M-636.636 1962.7V2066M-636.636 1962.7H-533.341M-636.636 2066H-533.341M-533.341 0V103.3M-533.341 0H-430.045M-533.341 103.3V206.6M-533.341 103.3H-430.045M-533.341 206.6V309.9M-533.341 206.6H-430.045M-533.341 309.9V413.2M-533.341 309.9H-430.045M-533.341 413.2V516.5M-533.341 413.2H-430.045M-533.341 516.5V619.8M-533.341 516.5H-430.045M-533.341 619.8V723.1M-533.341 619.8H-430.045M-533.341 723.1V826.4M-533.341 723.1H-430.045M-533.341 826.4V929.7M-533.341 826.4H-430.045M-533.341 929.7V1033M-533.341 929.7H-430.045M-533.341 1033V1136.3M-533.341 1033H-430.045M-533.341 1136.3V1239.6M-533.341 1136.3H-430.045M-533.341 1239.6V1342.9M-533.341 1239.6H-430.045M-533.341 1342.9V1446.2M-533.341 1342.9H-430.045M-533.341 1446.2V1549.5M-533.341 1446.2H-430.045M-533.341 1549.5V1652.8M-533.341 1549.5H-430.045M-533.341 1652.8V1756.1M-533.341 1652.8H-430.045M-533.341 1756.1V1859.4M-533.341 1756.1H-430.045M-533.341 1859.4V1962.7M-533.341 1859.4H-430.045M-533.341 1962.7V2066M-533.341 1962.7H-430.045M-533.341 2066H-430.045M-430.045 0V103.3M-430.045 0H-326.75M-430.045 103.3V206.6M-430.045 103.3H-326.75M-430.045 206.6V309.9M-430.045 206.6H-326.75M-430.045 309.9V413.2M-430.045 309.9H-326.75M-430.045 413.2V516.5M-430.045 413.2H-326.75M-430.045 516.5V619.8M-430.045 516.5H-326.75M-430.045 619.8V723.1M-430.045 619.8H-326.75M-430.045 723.1V826.4M-430.045 723.1H-326.75M-430.045 826.4V929.7M-430.045 826.4H-326.75M-430.045 929.7V1033M-430.045 929.7H-326.75M-430.045 1033V1136.3M-430.045 1033H-326.75M-430.045 1136.3V1239.6M-430.045 1136.3H-326.75M-430.045 1239.6V1342.9M-430.045 1239.6H-326.75M-430.045 1342.9V1446.2M-430.045 1342.9H-326.75M-430.045 1446.2V1549.5M-430.045 1446.2H-326.75M-430.045 1549.5V1652.8M-430.045 1549.5H-326.75M-430.045 1652.8V1756.1M-430.045 1652.8H-326.75M-430.045 1756.1V1859.4M-430.045 1756.1H-326.75M-430.045 1859.4V1962.7M-430.045 1859.4H-326.75M-430.045 1962.7V2066M-430.045 1962.7H-326.75M-430.045 2066H-326.75M-326.75 0V103.3M-326.75 0H-223.455M-326.75 103.3V206.6M-326.75 103.3H-223.455M-326.75 206.6V309.9M-326.75 206.6H-223.455M-326.75 309.9V413.2M-326.75 309.9H-223.455M-326.75 413.2V516.5M-326.75 413.2H-223.455M-326.75 516.5V619.8M-326.75 516.5H-223.455M-326.75 619.8V723.1M-326.75 619.8H-223.455M-326.75 723.1V826.4M-326.75 723.1H-223.455M-326.75 826.4V929.7M-326.75 826.4H-223.455M-326.75 929.7V1033M-326.75 929.7H-223.455M-326.75 1033V1136.3M-326.75 1033H-223.455M-326.75 1136.3V1239.6M-326.75 1136.3H-223.455M-326.75 1239.6V1342.9M-326.75 1239.6H-223.455M-326.75 1342.9V1446.2M-326.75 1342.9H-223.455M-326.75 1446.2V1549.5M-326.75 1446.2H-223.455M-326.75 1549.5V1652.8M-326.75 1549.5H-223.455M-326.75 1652.8V1756.1M-326.75 1652.8H-223.455M-326.75 1756.1V1859.4M-326.75 1756.1H-223.455M-326.75 1859.4V1962.7M-326.75 1859.4H-223.455M-326.75 1962.7V2066M-326.75 1962.7H-223.455M-326.75 2066H-223.455M-223.455 0V103.3M-223.455 0H-120.159M-223.455 103.3V206.6M-223.455 103.3H-120.159M-223.455 206.6V309.9M-223.455 206.6H-120.159M-223.455 309.9V413.2M-223.455 309.9H-120.159M-223.455 413.2V516.5M-223.455 413.2H-120.159M-223.455 516.5V619.8M-223.455 516.5H-120.159M-223.455 619.8V723.1M-223.455 619.8H-120.159M-223.455 723.1V826.4M-223.455 723.1H-120.159M-223.455 826.4V929.7M-223.455 826.4H-120.159M-223.455 929.7V1033M-223.455 929.7H-120.159M-223.455 1033V1136.3M-223.455 1033H-120.159M-223.455 1136.3V1239.6M-223.455 1136.3H-120.159M-223.455 1239.6V1342.9M-223.455 1239.6H-120.159M-223.455 1342.9V1446.2M-223.455 1342.9H-120.159M-223.455 1446.2V1549.5M-223.455 1446.2H-120.159M-223.455 1549.5V1652.8M-223.455 1549.5H-120.159M-223.455 1652.8V1756.1M-223.455 1652.8H-120.159M-223.455 1756.1V1859.4M-223.455 1756.1H-120.159M-223.455 1859.4V1962.7M-223.455 1859.4H-120.159M-223.455 1962.7V2066M-223.455 1962.7H-120.159M-223.455 2066H-120.159M-120.159 0V103.3M-120.159 0H-16.8636M-120.159 103.3V206.6M-120.159 103.3H-16.8636M-120.159 206.6V309.9M-120.159 206.6H-16.8636M-120.159 309.9V413.2M-120.159 309.9H-16.8636M-120.159 413.2V516.5M-120.159 413.2H-16.8636M-120.159 516.5V619.8M-120.159 516.5H-16.8636M-120.159 619.8V723.1M-120.159 619.8H-16.8636M-120.159 723.1V826.4M-120.159 723.1H-16.8636M-120.159 826.4V929.7M-120.159 826.4H-16.8636M-120.159 929.7V1033M-120.159 929.7H-16.8636M-120.159 1033V1136.3M-120.159 1033H-16.8636M-120.159 1136.3V1239.6M-120.159 1136.3H-16.8636M-120.159 1239.6V1342.9M-120.159 1239.6H-16.8636M-120.159 1342.9V1446.2M-120.159 1342.9H-16.8636M-120.159 1446.2V1549.5M-120.159 1446.2H-16.8636M-120.159 1549.5V1652.8M-120.159 1549.5H-16.8636M-120.159 1652.8V1756.1M-120.159 1652.8H-16.8636M-120.159 1756.1V1859.4M-120.159 1756.1H-16.8636M-120.159 1859.4V1962.7M-120.159 1859.4H-16.8636M-120.159 1962.7V2066M-120.159 1962.7H-16.8636M-120.159 2066H-16.8636M-16.8636 0V103.3M-16.8636 0H86.4318M-16.8636 103.3V206.6M-16.8636 103.3H86.4318M-16.8636 206.6V309.9M-16.8636 206.6H86.4318M-16.8636 309.9V413.2M-16.8636 309.9H86.4318M-16.8636 413.2V516.5M-16.8636 413.2H86.4318M-16.8636 516.5V619.8M-16.8636 516.5H86.4318M-16.8636 619.8V723.1M-16.8636 619.8H86.4318M-16.8636 723.1V826.4M-16.8636 723.1H86.4318M-16.8636 826.4V929.7M-16.8636 826.4H86.4318M-16.8636 929.7V1033M-16.8636 929.7H86.4318M-16.8636 1033V1136.3M-16.8636 1033H86.4318M-16.8636 1136.3V1239.6M-16.8636 1136.3H86.4318M-16.8636 1239.6V1342.9M-16.8636 1239.6H86.4318M-16.8636 1342.9V1446.2M-16.8636 1342.9H86.4318M-16.8636 1446.2V1549.5M-16.8636 1446.2H86.4318M-16.8636 1549.5V1652.8M-16.8636 1549.5H86.4318M-16.8636 1652.8V1756.1M-16.8636 1652.8H86.4318M-16.8636 1756.1V1859.4M-16.8636 1756.1H86.4318M-16.8636 1859.4V1962.7M-16.8636 1859.4H86.4318M-16.8636 1962.7V2066M-16.8636 1962.7H86.4318M-16.8636 2066H86.4318M86.4318 0V103.3M86.4318 0H189.727M86.4318 103.3V206.6M86.4318 103.3H189.727M86.4318 206.6V309.9M86.4318 206.6H189.727M86.4318 309.9V413.2M86.4318 309.9H189.727M86.4318 413.2V516.5M86.4318 413.2H189.727M86.4318 516.5V619.8M86.4318 516.5H189.727M86.4318 619.8V723.1M86.4318 619.8H189.727M86.4318 723.1V826.4M86.4318 723.1H189.727M86.4318 826.4V929.7M86.4318 826.4H189.727M86.4318 929.7V1033M86.4318 929.7H189.727M86.4318 1033V1136.3M86.4318 1033H189.727M86.4318 1136.3V1239.6M86.4318 1136.3H189.727M86.4318 1239.6V1342.9M86.4318 1239.6H189.727M86.4318 1342.9V1446.2M86.4318 1342.9H189.727M86.4318 1446.2V1549.5M86.4318 1446.2H189.727M86.4318 1549.5V1652.8M86.4318 1549.5H189.727M86.4318 1652.8V1756.1M86.4318 1652.8H189.727M86.4318 1756.1V1859.4M86.4318 1756.1H189.727M86.4318 1859.4V1962.7M86.4318 1859.4H189.727M86.4318 1962.7V2066M86.4318 1962.7H189.727M86.4318 2066H189.727M189.727 0V103.3M189.727 0H293.023M189.727 103.3V206.6M189.727 103.3H293.023M189.727 206.6V309.9M189.727 206.6H293.023M189.727 309.9V413.2M189.727 309.9H293.023M189.727 413.2V516.5M189.727 413.2H293.023M189.727 516.5V619.8M189.727 516.5H293.023M189.727 619.8V723.1M189.727 619.8H293.023M189.727 723.1V826.4M189.727 723.1H293.023M189.727 826.4V929.7M189.727 826.4H293.023M189.727 929.7V1033M189.727 929.7H293.023M189.727 1033V1136.3M189.727 1033H293.023M189.727 1136.3V1239.6M189.727 1136.3H293.023M189.727 1239.6V1342.9M189.727 1239.6H293.023M189.727 1342.9V1446.2M189.727 1342.9H293.023M189.727 1446.2V1549.5M189.727 1446.2H293.023M189.727 1549.5V1652.8M189.727 1549.5H293.023M189.727 1652.8V1756.1M189.727 1652.8H293.023M189.727 1756.1V1859.4M189.727 1756.1H293.023M189.727 1859.4V1962.7M189.727 1859.4H293.023M189.727 1962.7V2066M189.727 1962.7H293.023M189.727 2066H293.023M293.023 0V103.3M293.023 0H396.318M293.023 103.3V206.6M293.023 103.3H396.318M293.023 206.6V309.9M293.023 206.6H396.318M293.023 309.9V413.2M293.023 309.9H396.318M293.023 413.2V516.5M293.023 413.2H396.318M293.023 516.5V619.8M293.023 516.5H396.318M293.023 619.8V723.1M293.023 619.8H396.318M293.023 723.1V826.4M293.023 723.1H396.318M293.023 826.4V929.7M293.023 826.4H396.318M293.023 929.7V1033M293.023 929.7H396.318M293.023 1033V1136.3M293.023 1033H396.318M293.023 1136.3V1239.6M293.023 1136.3H396.318M293.023 1239.6V1342.9M293.023 1239.6H396.318M293.023 1342.9V1446.2M293.023 1342.9H396.318M293.023 1446.2V1549.5M293.023 1446.2H396.318M293.023 1549.5V1652.8M293.023 1549.5H396.318M293.023 1652.8V1756.1M293.023 1652.8H396.318M293.023 1756.1V1859.4M293.023 1756.1H396.318M293.023 1859.4V1962.7M293.023 1859.4H396.318M293.023 1962.7V2066M293.023 1962.7H396.318M293.023 2066H396.318M396.318 0V103.3M396.318 0H499.614M396.318 103.3V206.6M396.318 103.3H499.614M396.318 206.6V309.9M396.318 206.6H499.614M396.318 309.9V413.2M396.318 309.9H499.614M396.318 413.2V516.5M396.318 413.2H499.614M396.318 516.5V619.8M396.318 516.5H499.614M396.318 619.8V723.1M396.318 619.8H499.614M396.318 723.1V826.4M396.318 723.1H499.614M396.318 826.4V929.7M396.318 826.4H499.614M396.318 929.7V1033M396.318 929.7H499.614M396.318 1033V1136.3M396.318 1033H499.614M396.318 1136.3V1239.6M396.318 1136.3H499.614M396.318 1239.6V1342.9M396.318 1239.6H499.614M396.318 1342.9V1446.2M396.318 1342.9H499.614M396.318 1446.2V1549.5M396.318 1446.2H499.614M396.318 1549.5V1652.8M396.318 1549.5H499.614M396.318 1652.8V1756.1M396.318 1652.8H499.614M396.318 1756.1V1859.4M396.318 1756.1H499.614M396.318 1859.4V1962.7M396.318 1859.4H499.614M396.318 1962.7V2066M396.318 1962.7H499.614M396.318 2066H499.614M499.614 0V103.3M499.614 0H602.909M499.614 103.3V206.6M499.614 103.3H602.909M499.614 206.6V309.9M499.614 206.6H602.909M499.614 309.9V413.2M499.614 309.9H602.909M499.614 413.2V516.5M499.614 413.2H602.909M499.614 516.5V619.8M499.614 516.5H602.909M499.614 619.8V723.1M499.614 619.8H602.909M499.614 723.1V826.4M499.614 723.1H602.909M499.614 826.4V929.7M499.614 826.4H602.909M499.614 929.7V1033M499.614 929.7H602.909M499.614 1033V1136.3M499.614 1033H602.909M499.614 1136.3V1239.6M499.614 1136.3H602.909M499.614 1239.6V1342.9M499.614 1239.6H602.909M499.614 1342.9V1446.2M499.614 1342.9H602.909M499.614 1446.2V1549.5M499.614 1446.2H602.909M499.614 1549.5V1652.8M499.614 1549.5H602.909M499.614 1652.8V1756.1M499.614 1652.8H602.909M499.614 1756.1V1859.4M499.614 1756.1H602.909M499.614 1859.4V1962.7M499.614 1859.4H602.909M499.614 1962.7V2066M499.614 1962.7H602.909M499.614 2066H602.909M602.909 0V103.3M602.909 0H706.205M602.909 103.3V206.6M602.909 103.3H706.205M602.909 206.6V309.9M602.909 206.6H706.205M602.909 309.9V413.2M602.909 309.9H706.205M602.909 413.2V516.5M602.909 413.2H706.205M602.909 516.5V619.8M602.909 516.5H706.205M602.909 619.8V723.1M602.909 619.8H706.205M602.909 723.1V826.4M602.909 723.1H706.205M602.909 826.4V929.7M602.909 826.4H706.205M602.909 929.7V1033M602.909 929.7H706.205M602.909 1033V1136.3M602.909 1033H706.205M602.909 1136.3V1239.6M602.909 1136.3H706.205M602.909 1239.6V1342.9M602.909 1239.6H706.205M602.909 1342.9V1446.2M602.909 1342.9H706.205M602.909 1446.2V1549.5M602.909 1446.2H706.205M602.909 1549.5V1652.8M602.909 1549.5H706.205M602.909 1652.8V1756.1M602.909 1652.8H706.205M602.909 1756.1V1859.4M602.909 1756.1H706.205M602.909 1859.4V1962.7M602.909 1859.4H706.205M602.909 1962.7V2066M602.909 1962.7H706.205M602.909 2066H706.205M706.205 0V103.3M706.205 0H809.5M706.205 103.3V206.6M706.205 103.3H809.5M706.205 206.6V309.9M706.205 206.6H809.5M706.205 309.9V413.2M706.205 309.9H809.5M706.205 413.2V516.5M706.205 413.2H809.5M706.205 516.5V619.8M706.205 516.5H809.5M706.205 619.8V723.1M706.205 619.8H809.5M706.205 723.1V826.4M706.205 723.1H809.5M706.205 826.4V929.7M706.205 826.4H809.5M706.205 929.7V1033M706.205 929.7H809.5M706.205 1033V1136.3M706.205 1033H809.5M706.205 1136.3V1239.6M706.205 1136.3H809.5M706.205 1239.6V1342.9M706.205 1239.6H809.5M706.205 1342.9V1446.2M706.205 1342.9H809.5M706.205 1446.2V1549.5M706.205 1446.2H809.5M706.205 1549.5V1652.8M706.205 1549.5H809.5M706.205 1652.8V1756.1M706.205 1652.8H809.5M706.205 1756.1V1859.4M706.205 1756.1H809.5M706.205 1859.4V1962.7M706.205 1859.4H809.5M706.205 1962.7V2066M706.205 1962.7H809.5M706.205 2066H809.5M809.5 0V103.3M809.5 0H912.795M809.5 103.3V206.6M809.5 103.3H912.795M809.5 206.6V309.9M809.5 206.6H912.795M809.5 309.9V413.2M809.5 309.9H912.795M809.5 413.2V516.5M809.5 413.2H912.795M809.5 516.5V619.8M809.5 516.5H912.795M809.5 619.8V723.1M809.5 619.8H912.795M809.5 723.1V826.4M809.5 723.1H912.795M809.5 826.4V929.7M809.5 826.4H912.795M809.5 929.7V1033M809.5 929.7H912.795M809.5 1033V1136.3M809.5 1033H912.795M809.5 1136.3V1239.6M809.5 1136.3H912.795M809.5 1239.6V1342.9M809.5 1239.6H912.795M809.5 1342.9V1446.2M809.5 1342.9H912.795M809.5 1446.2V1549.5M809.5 1446.2H912.795M809.5 1549.5V1652.8M809.5 1549.5H912.795M809.5 1652.8V1756.1M809.5 1652.8H912.795M809.5 1756.1V1859.4M809.5 1756.1H912.795M809.5 1859.4V1962.7M809.5 1859.4H912.795M809.5 1962.7V2066M809.5 1962.7H912.795M809.5 2066H912.795M912.795 0V103.3M912.795 0H1016.09M912.795 103.3V206.6M912.795 103.3H1016.09M912.795 206.6V309.9M912.795 206.6H1016.09M912.795 309.9V413.2M912.795 309.9H1016.09M912.795 413.2V516.5M912.795 413.2H1016.09M912.795 516.5V619.8M912.795 516.5H1016.09M912.795 619.8V723.1M912.795 619.8H1016.09M912.795 723.1V826.4M912.795 723.1H1016.09M912.795 826.4V929.7M912.795 826.4H1016.09M912.795 929.7V1033M912.795 929.7H1016.09M912.795 1033V1136.3M912.795 1033H1016.09M912.795 1136.3V1239.6M912.795 1136.3H1016.09M912.795 1239.6V1342.9M912.795 1239.6H1016.09M912.795 1342.9V1446.2M912.795 1342.9H1016.09M912.795 1446.2V1549.5M912.795 1446.2H1016.09M912.795 1549.5V1652.8M912.795 1549.5H1016.09M912.795 1652.8V1756.1M912.795 1652.8H1016.09M912.795 1756.1V1859.4M912.795 1756.1H1016.09M912.795 1859.4V1962.7M912.795 1859.4H1016.09M912.795 1962.7V2066M912.795 1962.7H1016.09M912.795 2066H1016.09M1016.09 0V103.3M1016.09 0H1119.39M1016.09 103.3V206.6M1016.09 103.3H1119.39M1016.09 206.6V309.9M1016.09 206.6H1119.39M1016.09 309.9V413.2M1016.09 309.9H1119.39M1016.09 413.2V516.5M1016.09 413.2H1119.39M1016.09 516.5V619.8M1016.09 516.5H1119.39M1016.09 619.8V723.1M1016.09 619.8H1119.39M1016.09 723.1V826.4M1016.09 723.1H1119.39M1016.09 826.4V929.7M1016.09 826.4H1119.39M1016.09 929.7V1033M1016.09 929.7H1119.39M1016.09 1033V1136.3M1016.09 1033H1119.39M1016.09 1136.3V1239.6M1016.09 1136.3H1119.39M1016.09 1239.6V1342.9M1016.09 1239.6H1119.39M1016.09 1342.9V1446.2M1016.09 1342.9H1119.39M1016.09 1446.2V1549.5M1016.09 1446.2H1119.39M1016.09 1549.5V1652.8M1016.09 1549.5H1119.39M1016.09 1652.8V1756.1M1016.09 1652.8H1119.39M1016.09 1756.1V1859.4M1016.09 1756.1H1119.39M1016.09 1859.4V1962.7M1016.09 1859.4H1119.39M1016.09 1962.7V2066M1016.09 1962.7H1119.39M1016.09 2066H1119.39M1119.39 0V103.3M1119.39 0H1222.68M1119.39 103.3V206.6M1119.39 103.3H1222.68M1119.39 206.6V309.9M1119.39 206.6H1222.68M1119.39 309.9V413.2M1119.39 309.9H1222.68M1119.39 413.2V516.5M1119.39 413.2H1222.68M1119.39 516.5V619.8M1119.39 516.5H1222.68M1119.39 619.8V723.1M1119.39 619.8H1222.68M1119.39 723.1V826.4M1119.39 723.1H1222.68M1119.39 826.4V929.7M1119.39 826.4H1222.68M1119.39 929.7V1033M1119.39 929.7H1222.68M1119.39 1033V1136.3M1119.39 1033H1222.68M1119.39 1136.3V1239.6M1119.39 1136.3H1222.68M1119.39 1239.6V1342.9M1119.39 1239.6H1222.68M1119.39 1342.9V1446.2M1119.39 1342.9H1222.68M1119.39 1446.2V1549.5M1119.39 1446.2H1222.68M1119.39 1549.5V1652.8M1119.39 1549.5H1222.68M1119.39 1652.8V1756.1M1119.39 1652.8H1222.68M1119.39 1756.1V1859.4M1119.39 1756.1H1222.68M1119.39 1859.4V1962.7M1119.39 1859.4H1222.68M1119.39 1962.7V2066M1119.39 1962.7H1222.68M1119.39 2066H1222.68M1222.68 0V103.3M1222.68 0H1325.98M1222.68 103.3V206.6M1222.68 103.3H1325.98M1222.68 206.6V309.9M1222.68 206.6H1325.98M1222.68 309.9V413.2M1222.68 309.9H1325.98M1222.68 413.2V516.5M1222.68 413.2H1325.98M1222.68 516.5V619.8M1222.68 516.5H1325.98M1222.68 619.8V723.1M1222.68 619.8H1325.98M1222.68 723.1V826.4M1222.68 723.1H1325.98M1222.68 826.4V929.7M1222.68 826.4H1325.98M1222.68 929.7V1033M1222.68 929.7H1325.98M1222.68 1033V1136.3M1222.68 1033H1325.98M1222.68 1136.3V1239.6M1222.68 1136.3H1325.98M1222.68 1239.6V1342.9M1222.68 1239.6H1325.98M1222.68 1342.9V1446.2M1222.68 1342.9H1325.98M1222.68 1446.2V1549.5M1222.68 1446.2H1325.98M1222.68 1549.5V1652.8M1222.68 1549.5H1325.98M1222.68 1652.8V1756.1M1222.68 1652.8H1325.98M1222.68 1756.1V1859.4M1222.68 1756.1H1325.98M1222.68 1859.4V1962.7M1222.68 1859.4H1325.98M1222.68 1962.7V2066M1222.68 1962.7H1325.98M1222.68 2066H1325.98M1325.98 0V103.3M1325.98 0H1429.27M1325.98 103.3V206.6M1325.98 103.3H1429.27M1325.98 206.6V309.9M1325.98 206.6H1429.27M1325.98 309.9V413.2M1325.98 309.9H1429.27M1325.98 413.2V516.5M1325.98 413.2H1429.27M1325.98 516.5V619.8M1325.98 516.5H1429.27M1325.98 619.8V723.1M1325.98 619.8H1429.27M1325.98 723.1V826.4M1325.98 723.1H1429.27M1325.98 826.4V929.7M1325.98 826.4H1429.27M1325.98 929.7V1033M1325.98 929.7H1429.27M1325.98 1033V1136.3M1325.98 1033H1429.27M1325.98 1136.3V1239.6M1325.98 1136.3H1429.27M1325.98 1239.6V1342.9M1325.98 1239.6H1429.27M1325.98 1342.9V1446.2M1325.98 1342.9H1429.27M1325.98 1446.2V1549.5M1325.98 1446.2H1429.27M1325.98 1549.5V1652.8M1325.98 1549.5H1429.27M1325.98 1652.8V1756.1M1325.98 1652.8H1429.27M1325.98 1756.1V1859.4M1325.98 1756.1H1429.27M1325.98 1859.4V1962.7M1325.98 1859.4H1429.27M1325.98 1962.7V2066M1325.98 1962.7H1429.27M1325.98 2066H1429.27M1429.27 0V103.3M1429.27 0H1532.57M1429.27 103.3V206.6M1429.27 103.3H1532.57M1429.27 206.6V309.9M1429.27 206.6H1532.57M1429.27 309.9V413.2M1429.27 309.9H1532.57M1429.27 413.2V516.5M1429.27 413.2H1532.57M1429.27 516.5V619.8M1429.27 516.5H1532.57M1429.27 619.8V723.1M1429.27 619.8H1532.57M1429.27 723.1V826.4M1429.27 723.1H1532.57M1429.27 826.4V929.7M1429.27 826.4H1532.57M1429.27 929.7V1033M1429.27 929.7H1532.57M1429.27 1033V1136.3M1429.27 1033H1532.57M1429.27 1136.3V1239.6M1429.27 1136.3H1532.57M1429.27 1239.6V1342.9M1429.27 1239.6H1532.57M1429.27 1342.9V1446.2M1429.27 1342.9H1532.57M1429.27 1446.2V1549.5M1429.27 1446.2H1532.57M1429.27 1549.5V1652.8M1429.27 1549.5H1532.57M1429.27 1652.8V1756.1M1429.27 1652.8H1532.57M1429.27 1756.1V1859.4M1429.27 1756.1H1532.57M1429.27 1859.4V1962.7M1429.27 1859.4H1532.57M1429.27 1962.7V2066M1429.27 1962.7H1532.57M1429.27 2066H1532.57M1532.57 0V103.3M1532.57 0H1635.86M1532.57 103.3V206.6M1532.57 103.3H1635.86M1532.57 206.6V309.9M1532.57 206.6H1635.86M1532.57 309.9V413.2M1532.57 309.9H1635.86M1532.57 413.2V516.5M1532.57 413.2H1635.86M1532.57 516.5V619.8M1532.57 516.5H1635.86M1532.57 619.8V723.1M1532.57 619.8H1635.86M1532.57 723.1V826.4M1532.57 723.1H1635.86M1532.57 826.4V929.7M1532.57 826.4H1635.86M1532.57 929.7V1033M1532.57 929.7H1635.86M1532.57 1033V1136.3M1532.57 1033H1635.86M1532.57 1136.3V1239.6M1532.57 1136.3H1635.86M1532.57 1239.6V1342.9M1532.57 1239.6H1635.86M1532.57 1342.9V1446.2M1532.57 1342.9H1635.86M1532.57 1446.2V1549.5M1532.57 1446.2H1635.86M1532.57 1549.5V1652.8M1532.57 1549.5H1635.86M1532.57 1652.8V1756.1M1532.57 1652.8H1635.86M1532.57 1756.1V1859.4M1532.57 1756.1H1635.86M1532.57 1859.4V1962.7M1532.57 1859.4H1635.86M1532.57 1962.7V2066M1532.57 1962.7H1635.86M1532.57 2066H1635.86M1635.86 0V103.3M1635.86 0H1739.16M1635.86 103.3V206.6M1635.86 103.3H1739.16M1635.86 206.6V309.9M1635.86 206.6H1739.16M1635.86 309.9V413.2M1635.86 309.9H1739.16M1635.86 413.2V516.5M1635.86 413.2H1739.16M1635.86 516.5V619.8M1635.86 516.5H1739.16M1635.86 619.8V723.1M1635.86 619.8H1739.16M1635.86 723.1V826.4M1635.86 723.1H1739.16M1635.86 826.4V929.7M1635.86 826.4H1739.16M1635.86 929.7V1033M1635.86 929.7H1739.16M1635.86 1033V1136.3M1635.86 1033H1739.16M1635.86 1136.3V1239.6M1635.86 1136.3H1739.16M1635.86 1239.6V1342.9M1635.86 1239.6H1739.16M1635.86 1342.9V1446.2M1635.86 1342.9H1739.16M1635.86 1446.2V1549.5M1635.86 1446.2H1739.16M1635.86 1549.5V1652.8M1635.86 1549.5H1739.16M1635.86 1652.8V1756.1M1635.86 1652.8H1739.16M1635.86 1756.1V1859.4M1635.86 1756.1H1739.16M1635.86 1859.4V1962.7M1635.86 1859.4H1739.16M1635.86 1962.7V2066M1635.86 1962.7H1739.16M1635.86 2066H1739.16M1739.16 0V103.3M1739.16 0H1842.45M1739.16 103.3V206.6M1739.16 103.3H1842.45M1739.16 206.6V309.9M1739.16 206.6H1842.45M1739.16 309.9V413.2M1739.16 309.9H1842.45M1739.16 413.2V516.5M1739.16 413.2H1842.45M1739.16 516.5V619.8M1739.16 516.5H1842.45M1739.16 619.8V723.1M1739.16 619.8H1842.45M1739.16 723.1V826.4M1739.16 723.1H1842.45M1739.16 826.4V929.7M1739.16 826.4H1842.45M1739.16 929.7V1033M1739.16 929.7H1842.45M1739.16 1033V1136.3M1739.16 1033H1842.45M1739.16 1136.3V1239.6M1739.16 1136.3H1842.45M1739.16 1239.6V1342.9M1739.16 1239.6H1842.45M1739.16 1342.9V1446.2M1739.16 1342.9H1842.45M1739.16 1446.2V1549.5M1739.16 1446.2H1842.45M1739.16 1549.5V1652.8M1739.16 1549.5H1842.45M1739.16 1652.8V1756.1M1739.16 1652.8H1842.45M1739.16 1756.1V1859.4M1739.16 1756.1H1842.45M1739.16 1859.4V1962.7M1739.16 1859.4H1842.45M1739.16 1962.7V2066M1739.16 1962.7H1842.45M1739.16 2066H1842.45M1842.45 0V103.3M1842.45 0H1945.75M1842.45 103.3V206.6M1842.45 103.3H1945.75M1842.45 206.6V309.9M1842.45 206.6H1945.75M1842.45 309.9V413.2M1842.45 309.9H1945.75M1842.45 413.2V516.5M1842.45 413.2H1945.75M1842.45 516.5V619.8M1842.45 516.5H1945.75M1842.45 619.8V723.1M1842.45 619.8H1945.75M1842.45 723.1V826.4M1842.45 723.1H1945.75M1842.45 826.4V929.7M1842.45 826.4H1945.75M1842.45 929.7V1033M1842.45 929.7H1945.75M1842.45 1033V1136.3M1842.45 1033H1945.75M1842.45 1136.3V1239.6M1842.45 1136.3H1945.75M1842.45 1239.6V1342.9M1842.45 1239.6H1945.75M1842.45 1342.9V1446.2M1842.45 1342.9H1945.75M1842.45 1446.2V1549.5M1842.45 1446.2H1945.75M1842.45 1549.5V1652.8M1842.45 1549.5H1945.75M1842.45 1652.8V1756.1M1842.45 1652.8H1945.75M1842.45 1756.1V1859.4M1842.45 1756.1H1945.75M1842.45 1859.4V1962.7M1842.45 1859.4H1945.75M1842.45 1962.7V2066M1842.45 1962.7H1945.75M1842.45 2066H1945.75M1945.75 0V103.3M1945.75 0H2049.05M1945.75 103.3V206.6M1945.75 103.3H2049.05M1945.75 206.6V309.9M1945.75 206.6H2049.05M1945.75 309.9V413.2M1945.75 309.9H2049.05M1945.75 413.2V516.5M1945.75 413.2H2049.05M1945.75 516.5V619.8M1945.75 516.5H2049.05M1945.75 619.8V723.1M1945.75 619.8H2049.05M1945.75 723.1V826.4M1945.75 723.1H2049.05M1945.75 826.4V929.7M1945.75 826.4H2049.05M1945.75 929.7V1033M1945.75 929.7H2049.05M1945.75 1033V1136.3M1945.75 1033H2049.05M1945.75 1136.3V1239.6M1945.75 1136.3H2049.05M1945.75 1239.6V1342.9M1945.75 1239.6H2049.05M1945.75 1342.9V1446.2M1945.75 1342.9H2049.05M1945.75 1446.2V1549.5M1945.75 1446.2H2049.05M1945.75 1549.5V1652.8M1945.75 1549.5H2049.05M1945.75 1652.8V1756.1M1945.75 1652.8H2049.05M1945.75 1756.1V1859.4M1945.75 1756.1H2049.05M1945.75 1859.4V1962.7M1945.75 1859.4H2049.05M1945.75 1962.7V2066M1945.75 1962.7H2049.05M1945.75 2066H2049.05M2049.05 0V103.3M2049.05 0H2152.34M2049.05 103.3V206.6M2049.05 103.3H2152.34M2049.05 206.6V309.9M2049.05 206.6H2152.34M2049.05 309.9V413.2M2049.05 309.9H2152.34M2049.05 413.2V516.5M2049.05 413.2H2152.34M2049.05 516.5V619.8M2049.05 516.5H2152.34M2049.05 619.8V723.1M2049.05 619.8H2152.34M2049.05 723.1V826.4M2049.05 723.1H2152.34M2049.05 826.4V929.7M2049.05 826.4H2152.34M2049.05 929.7V1033M2049.05 929.7H2152.34M2049.05 1033V1136.3M2049.05 1033H2152.34M2049.05 1136.3V1239.6M2049.05 1136.3H2152.34M2049.05 1239.6V1342.9M2049.05 1239.6H2152.34M2049.05 1342.9V1446.2M2049.05 1342.9H2152.34M2049.05 1446.2V1549.5M2049.05 1446.2H2152.34M2049.05 1549.5V1652.8M2049.05 1549.5H2152.34M2049.05 1652.8V1756.1M2049.05 1652.8H2152.34M2049.05 1756.1V1859.4M2049.05 1756.1H2152.34M2049.05 1859.4V1962.7M2049.05 1859.4H2152.34M2049.05 1962.7V2066M2049.05 1962.7H2152.34M2049.05 2066H2152.34M2152.34 0V103.3M2152.34 0H2255.64M2152.34 103.3V206.6M2152.34 103.3H2255.64M2152.34 206.6V309.9M2152.34 206.6H2255.64M2152.34 309.9V413.2M2152.34 309.9H2255.64M2152.34 413.2V516.5M2152.34 413.2H2255.64M2152.34 516.5V619.8M2152.34 516.5H2255.64M2152.34 619.8V723.1M2152.34 619.8H2255.64M2152.34 723.1V826.4M2152.34 723.1H2255.64M2152.34 826.4V929.7M2152.34 826.4H2255.64M2152.34 929.7V1033M2152.34 929.7H2255.64M2152.34 1033V1136.3M2152.34 1033H2255.64M2152.34 1136.3V1239.6M2152.34 1136.3H2255.64M2152.34 1239.6V1342.9M2152.34 1239.6H2255.64M2152.34 1342.9V1446.2M2152.34 1342.9H2255.64M2152.34 1446.2V1549.5M2152.34 1446.2H2255.64M2152.34 1549.5V1652.8M2152.34 1549.5H2255.64M2152.34 1652.8V1756.1M2152.34 1652.8H2255.64M2152.34 1756.1V1859.4M2152.34 1756.1H2255.64M2152.34 1859.4V1962.7M2152.34 1859.4H2255.64M2152.34 1962.7V2066M2152.34 1962.7H2255.64M2152.34 2066H2255.64M2255.64 0V103.3M2255.64 0H2358.93M2255.64 103.3V206.6M2255.64 103.3H2358.93M2255.64 206.6V309.9M2255.64 206.6H2358.93M2255.64 309.9V413.2M2255.64 309.9H2358.93M2255.64 413.2V516.5M2255.64 413.2H2358.93M2255.64 516.5V619.8M2255.64 516.5H2358.93M2255.64 619.8V723.1M2255.64 619.8H2358.93M2255.64 723.1V826.4M2255.64 723.1H2358.93M2255.64 826.4V929.7M2255.64 826.4H2358.93M2255.64 929.7V1033M2255.64 929.7H2358.93M2255.64 1033V1136.3M2255.64 1033H2358.93M2255.64 1136.3V1239.6M2255.64 1136.3H2358.93M2255.64 1239.6V1342.9M2255.64 1239.6H2358.93M2255.64 1342.9V1446.2M2255.64 1342.9H2358.93M2255.64 1446.2V1549.5M2255.64 1446.2H2358.93M2255.64 1549.5V1652.8M2255.64 1549.5H2358.93M2255.64 1652.8V1756.1M2255.64 1652.8H2358.93M2255.64 1756.1V1859.4M2255.64 1756.1H2358.93M2255.64 1859.4V1962.7M2255.64 1859.4H2358.93M2255.64 1962.7V2066M2255.64 1962.7H2358.93M2255.64 2066H2358.93M2358.93 0V103.3M2358.93 0H2462.23M2358.93 103.3V206.6M2358.93 103.3H2462.23M2358.93 206.6V309.9M2358.93 206.6H2462.23M2358.93 309.9V413.2M2358.93 309.9H2462.23M2358.93 413.2V516.5M2358.93 413.2H2462.23M2358.93 516.5V619.8M2358.93 516.5H2462.23M2358.93 619.8V723.1M2358.93 619.8H2462.23M2358.93 723.1V826.4M2358.93 723.1H2462.23M2358.93 826.4V929.7M2358.93 826.4H2462.23M2358.93 929.7V1033M2358.93 929.7H2462.23M2358.93 1033V1136.3M2358.93 1033H2462.23M2358.93 1136.3V1239.6M2358.93 1136.3H2462.23M2358.93 1239.6V1342.9M2358.93 1239.6H2462.23M2358.93 1342.9V1446.2M2358.93 1342.9H2462.23M2358.93 1446.2V1549.5M2358.93 1446.2H2462.23M2358.93 1549.5V1652.8M2358.93 1549.5H2462.23M2358.93 1652.8V1756.1M2358.93 1652.8H2462.23M2358.93 1756.1V1859.4M2358.93 1756.1H2462.23M2358.93 1859.4V1962.7M2358.93 1859.4H2462.23M2358.93 1962.7V2066M2358.93 1962.7H2462.23M2358.93 2066H2462.23M2462.23 0V103.3M2462.23 0H2565.52M2462.23 103.3V206.6M2462.23 103.3H2565.52M2462.23 206.6V309.9M2462.23 206.6H2565.52M2462.23 309.9V413.2M2462.23 309.9H2565.52M2462.23 413.2V516.5M2462.23 413.2H2565.52M2462.23 516.5V619.8M2462.23 516.5H2565.52M2462.23 619.8V723.1M2462.23 619.8H2565.52M2462.23 723.1V826.4M2462.23 723.1H2565.52M2462.23 826.4V929.7M2462.23 826.4H2565.52M2462.23 929.7V1033M2462.23 929.7H2565.52M2462.23 1033V1136.3M2462.23 1033H2565.52M2462.23 1136.3V1239.6M2462.23 1136.3H2565.52M2462.23 1239.6V1342.9M2462.23 1239.6H2565.52M2462.23 1342.9V1446.2M2462.23 1342.9H2565.52M2462.23 1446.2V1549.5M2462.23 1446.2H2565.52M2462.23 1549.5V1652.8M2462.23 1549.5H2565.52M2462.23 1652.8V1756.1M2462.23 1652.8H2565.52M2462.23 1756.1V1859.4M2462.23 1756.1H2565.52M2462.23 1859.4V1962.7M2462.23 1859.4H2565.52M2462.23 1962.7V2066M2462.23 1962.7H2565.52M2462.23 2066H2565.52M2565.52 0V103.3M2565.52 0H2668.82M2565.52 103.3V206.6M2565.52 103.3H2668.82M2565.52 206.6V309.9M2565.52 206.6H2668.82M2565.52 309.9V413.2M2565.52 309.9H2668.82M2565.52 413.2V516.5M2565.52 413.2H2668.82M2565.52 516.5V619.8M2565.52 516.5H2668.82M2565.52 619.8V723.1M2565.52 619.8H2668.82M2565.52 723.1V826.4M2565.52 723.1H2668.82M2565.52 826.4V929.7M2565.52 826.4H2668.82M2565.52 929.7V1033M2565.52 929.7H2668.82M2565.52 1033V1136.3M2565.52 1033H2668.82M2565.52 1136.3V1239.6M2565.52 1136.3H2668.82M2565.52 1239.6V1342.9M2565.52 1239.6H2668.82M2565.52 1342.9V1446.2M2565.52 1342.9H2668.82M2565.52 1446.2V1549.5M2565.52 1446.2H2668.82M2565.52 1549.5V1652.8M2565.52 1549.5H2668.82M2565.52 1652.8V1756.1M2565.52 1652.8H2668.82M2565.52 1756.1V1859.4M2565.52 1756.1H2668.82M2565.52 1859.4V1962.7M2565.52 1859.4H2668.82M2565.52 1962.7V2066M2565.52 1962.7H2668.82M2565.52 2066H2668.82M2668.82 0V103.3M2668.82 0H2772.11M2668.82 103.3V206.6M2668.82 103.3H2772.11M2668.82 206.6V309.9M2668.82 206.6H2772.11M2668.82 309.9V413.2M2668.82 309.9H2772.11M2668.82 413.2V516.5M2668.82 413.2H2772.11M2668.82 516.5V619.8M2668.82 516.5H2772.11M2668.82 619.8V723.1M2668.82 619.8H2772.11M2668.82 723.1V826.4M2668.82 723.1H2772.11M2668.82 826.4V929.7M2668.82 826.4H2772.11M2668.82 929.7V1033M2668.82 929.7H2772.11M2668.82 1033V1136.3M2668.82 1033H2772.11M2668.82 1136.3V1239.6M2668.82 1136.3H2772.11M2668.82 1239.6V1342.9M2668.82 1239.6H2772.11M2668.82 1342.9V1446.2M2668.82 1342.9H2772.11M2668.82 1446.2V1549.5M2668.82 1446.2H2772.11M2668.82 1549.5V1652.8M2668.82 1549.5H2772.11M2668.82 1652.8V1756.1M2668.82 1652.8H2772.11M2668.82 1756.1V1859.4M2668.82 1756.1H2772.11M2668.82 1859.4V1962.7M2668.82 1859.4H2772.11M2668.82 1962.7V2066M2668.82 1962.7H2772.11M2668.82 2066H2772.11M2772.11 0V103.3M2772.11 0H2875.41M2772.11 103.3V206.6M2772.11 103.3H2875.41M2772.11 206.6V309.9M2772.11 206.6H2875.41M2772.11 309.9V413.2M2772.11 309.9H2875.41M2772.11 413.2V516.5M2772.11 413.2H2875.41M2772.11 516.5V619.8M2772.11 516.5H2875.41M2772.11 619.8V723.1M2772.11 619.8H2875.41M2772.11 723.1V826.4M2772.11 723.1H2875.41M2772.11 826.4V929.7M2772.11 826.4H2875.41M2772.11 929.7V1033M2772.11 929.7H2875.41M2772.11 1033V1136.3M2772.11 1033H2875.41M2772.11 1136.3V1239.6M2772.11 1136.3H2875.41M2772.11 1239.6V1342.9M2772.11 1239.6H2875.41M2772.11 1342.9V1446.2M2772.11 1342.9H2875.41M2772.11 1446.2V1549.5M2772.11 1446.2H2875.41M2772.11 1549.5V1652.8M2772.11 1549.5H2875.41M2772.11 1652.8V1756.1M2772.11 1652.8H2875.41M2772.11 1756.1V1859.4M2772.11 1756.1H2875.41M2772.11 1859.4V1962.7M2772.11 1859.4H2875.41M2772.11 1962.7V2066M2772.11 1962.7H2875.41M2772.11 2066H2875.41M2875.41 0V103.3M2875.41 0H2978.7M2875.41 103.3V206.6M2875.41 103.3H2978.7M2875.41 206.6V309.9M2875.41 206.6H2978.7M2875.41 309.9V413.2M2875.41 309.9H2978.7M2875.41 413.2V516.5M2875.41 413.2H2978.7M2875.41 516.5V619.8M2875.41 516.5H2978.7M2875.41 619.8V723.1M2875.41 619.8H2978.7M2875.41 723.1V826.4M2875.41 723.1H2978.7M2875.41 826.4V929.7M2875.41 826.4H2978.7M2875.41 929.7V1033M2875.41 929.7H2978.7M2875.41 1033V1136.3M2875.41 1033H2978.7M2875.41 1136.3V1239.6M2875.41 1136.3H2978.7M2875.41 1239.6V1342.9M2875.41 1239.6H2978.7M2875.41 1342.9V1446.2M2875.41 1342.9H2978.7M2875.41 1446.2V1549.5M2875.41 1446.2H2978.7M2875.41 1549.5V1652.8M2875.41 1549.5H2978.7M2875.41 1652.8V1756.1M2875.41 1652.8H2978.7M2875.41 1756.1V1859.4M2875.41 1756.1H2978.7M2875.41 1859.4V1962.7M2875.41 1859.4H2978.7M2875.41 1962.7V2066M2875.41 1962.7H2978.7M2875.41 2066H2978.7M2978.7 0V103.3M2978.7 0H3082V103.3M2978.7 103.3V206.6M2978.7 103.3H3082M2978.7 206.6V309.9M2978.7 206.6H3082M2978.7 309.9V413.2M2978.7 309.9H3082M2978.7 413.2V516.5M2978.7 413.2H3082M2978.7 516.5V619.8M2978.7 516.5H3082M2978.7 619.8V723.1M2978.7 619.8H3082M2978.7 723.1V826.4M2978.7 723.1H3082M2978.7 826.4V929.7M2978.7 826.4H3082M2978.7 929.7V1033M2978.7 929.7H3082M2978.7 1033V1136.3M2978.7 1033H3082M2978.7 1136.3V1239.6M2978.7 1136.3H3082M2978.7 1239.6V1342.9M2978.7 1239.6H3082M2978.7 1342.9V1446.2M2978.7 1342.9H3082M2978.7 1446.2V1549.5M2978.7 1446.2H3082M2978.7 1549.5V1652.8M2978.7 1549.5H3082M2978.7 1652.8V1756.1M2978.7 1652.8H3082M2978.7 1756.1V1859.4M2978.7 1756.1H3082M2978.7 1859.4V1962.7M2978.7 1859.4H3082M2978.7 1962.7V2066M2978.7 1962.7H3082M2978.7 2066H3082V1962.7M3082 103.3V206.6M3082 206.6V309.9M3082 309.9V413.2M3082 413.2V516.5M3082 516.5V619.8M3082 619.8V723.1M3082 723.1V826.4M3082 826.4V929.7M3082 929.7V1033M3082 1033V1136.3M3082 1136.3V1239.6M3082 1239.6V1342.9M3082 1342.9V1446.2M3082 1446.2V1549.5M3082 1549.5V1652.8M3082 1652.8V1756.1M3082 1756.1V1859.4M3082 1859.4V1962.7" stroke="url(#paint0_radial_650_33)" stroke-width="0.804612"/>
</g>
<defs>
<filter id="filter0_f_650_33" x="-411" y="142" width="1285" height="1165" filterUnits="userSpaceOnUse" color-interpolation-filters="sRGB">
<feFlood flood-opacity="0" result="BackgroundImageFix"/>
<feBlend mode="normal" in="SourceGraphic" in2="BackgroundImageFix" result="shape"/>
<feGaussianBlur stdDeviation="200" result="effect1_foregroundBlur_650_33"/>
</filter>
<radialGradient id="paint0_radial_650_33" cx="0" cy="0" r="1" gradientUnits="userSpaceOnUse" gradientTransform="translate(809 -8.16093e-05) rotate(105.35) scale(528.867 1163.46)">
<stop stop-color="#230394" stop-opacity="0.5"/>
<stop offset="0.515" stop-color="white"/>
<stop offset="1" stop-color="#230394" stop-opacity="0.5"/>
</radialGradient>
<clipPath id="clip0_650_33">
<rect width="1441" height="400" fill="white"/>
</clipPath>
</defs>
</svg>
