<svg width="768" height="300" viewBox="0 0 768 300" fill="none" xmlns="http://www.w3.org/2000/svg">
<g clip-path="url(#clip0_650_7)">
<rect width="768" height="300" fill="#2D34FF"/>
<g opacity="0.2" filter="url(#filter0_f_650_7)">
<rect x="-348" y="542" width="485" height="365" fill="#84FFD3"/>
</g>
<path opacity="0.15" d="M-1696.7 0H-1800V103.3M-1696.7 0V103.3M-1696.7 0H-1593.41M-1696.7 103.3H-1800M-1696.7 103.3V206.6M-1696.7 103.3H-1593.41M-1800 103.3V206.6M-1696.7 206.6H-1800M-1696.7 206.6V309.9M-1696.7 206.6H-1593.41M-1800 206.6V309.9M-1696.7 309.9H-1800M-1696.7 309.9V413.2M-1696.7 309.9H-1593.41M-1800 309.9V413.2M-1696.7 413.2H-1800M-1696.7 413.2V516.5M-1696.7 413.2H-1593.41M-1800 413.2V516.5M-1696.7 516.5H-1800M-1696.7 516.5V619.8M-1696.7 516.5H-1593.41M-1800 516.5V619.8M-1696.7 619.8H-1800M-1696.7 619.8V723.1M-1696.7 619.8H-1593.41M-1800 619.8V723.1M-1696.7 723.1H-1800M-1696.7 723.1V826.4M-1696.7 723.1H-1593.41M-1800 723.1V826.4M-1696.7 826.4H-1800M-1696.7 826.4V929.7M-1696.7 826.4H-1593.41M-1800 826.4V929.7M-1696.7 929.7H-1800M-1696.7 929.7V1033M-1696.7 929.7H-1593.41M-1800 929.7V1033M-1696.7 1033H-1800M-1696.7 1033V1136.3M-1696.7 1033H-1593.41M-1800 1033V1136.3M-1696.7 1136.3H-1800M-1696.7 1136.3V1239.6M-1696.7 1136.3H-1593.41M-1800 1136.3V1239.6M-1696.7 1239.6H-1800M-1696.7 1239.6V1342.9M-1696.7 1239.6H-1593.41M-1800 1239.6V1342.9M-1696.7 1342.9H-1800M-1696.7 1342.9V1446.2M-1696.7 1342.9H-1593.41M-1800 1342.9V1446.2M-1696.7 1446.2H-1800M-1696.7 1446.2V1549.5M-1696.7 1446.2H-1593.41M-1800 1446.2V1549.5M-1696.7 1549.5H-1800M-1696.7 1549.5V1652.8M-1696.7 1549.5H-1593.41M-1800 1549.5V1652.8M-1696.7 1652.8H-1800M-1696.7 1652.8V1756.1M-1696.7 1652.8H-1593.41M-1800 1652.8V1756.1M-1696.7 1756.1H-1800M-1696.7 1756.1V1859.4M-1696.7 1756.1H-1593.41M-1800 1756.1V1859.4M-1696.7 1859.4H-1800M-1696.7 1859.4V1962.7M-1696.7 1859.4H-1593.41M-1800 1859.4V1962.7M-1696.7 1962.7H-1800M-1696.7 1962.7V2066M-1696.7 1962.7H-1593.41M-1800 1962.7V2066H-1696.7M-1696.7 2066H-1593.41M-1593.41 0V103.3M-1593.41 0H-1490.11M-1593.41 103.3V206.6M-1593.41 103.3H-1490.11M-1593.41 206.6V309.9M-1593.41 206.6H-1490.11M-1593.41 309.9V413.2M-1593.41 309.9H-1490.11M-1593.41 413.2V516.5M-1593.41 413.2H-1490.11M-1593.41 516.5V619.8M-1593.41 516.5H-1490.11M-1593.41 619.8V723.1M-1593.41 619.8H-1490.11M-1593.41 723.1V826.4M-1593.41 723.1H-1490.11M-1593.41 826.4V929.7M-1593.41 826.4H-1490.11M-1593.41 929.7V1033M-1593.41 929.7H-1490.11M-1593.41 1033V1136.3M-1593.41 1033H-1490.11M-1593.41 1136.3V1239.6M-1593.41 1136.3H-1490.11M-1593.41 1239.6V1342.9M-1593.41 1239.6H-1490.11M-1593.41 1342.9V1446.2M-1593.41 1342.9H-1490.11M-1593.41 1446.2V1549.5M-1593.41 1446.2H-1490.11M-1593.41 1549.5V1652.8M-1593.41 1549.5H-1490.11M-1593.41 1652.8V1756.1M-1593.41 1652.8H-1490.11M-1593.41 1756.1V1859.4M-1593.41 1756.1H-1490.11M-1593.41 1859.4V1962.7M-1593.41 1859.4H-1490.11M-1593.41 1962.7V2066M-1593.41 1962.7H-1490.11M-1593.41 2066H-1490.11M-1490.11 0V103.3M-1490.11 0H-1386.82M-1490.11 103.3V206.6M-1490.11 103.3H-1386.82M-1490.11 206.6V309.9M-1490.11 206.6H-1386.82M-1490.11 309.9V413.2M-1490.11 309.9H-1386.82M-1490.11 413.2V516.5M-1490.11 413.2H-1386.82M-1490.11 516.5V619.8M-1490.11 516.5H-1386.82M-1490.11 619.8V723.1M-1490.11 619.8H-1386.82M-1490.11 723.1V826.4M-1490.11 723.1H-1386.82M-1490.11 826.4V929.7M-1490.11 826.4H-1386.82M-1490.11 929.7V1033M-1490.11 929.7H-1386.82M-1490.11 1033V1136.3M-1490.11 1033H-1386.82M-1490.11 1136.3V1239.6M-1490.11 1136.3H-1386.82M-1490.11 1239.6V1342.9M-1490.11 1239.6H-1386.82M-1490.11 1342.9V1446.2M-1490.11 1342.9H-1386.82M-1490.11 1446.2V1549.5M-1490.11 1446.2H-1386.82M-1490.11 1549.5V1652.8M-1490.11 1549.5H-1386.82M-1490.11 1652.8V1756.1M-1490.11 1652.8H-1386.82M-1490.11 1756.1V1859.4M-1490.11 1756.1H-1386.82M-1490.11 1859.4V1962.7M-1490.11 1859.4H-1386.82M-1490.11 1962.7V2066M-1490.11 1962.7H-1386.82M-1490.11 2066H-1386.82M-1386.82 0V103.3M-1386.82 0H-1283.52M-1386.82 103.3V206.6M-1386.82 103.3H-1283.52M-1386.82 206.6V309.9M-1386.82 206.6H-1283.52M-1386.82 309.9V413.2M-1386.82 309.9H-1283.52M-1386.82 413.2V516.5M-1386.82 413.2H-1283.52M-1386.82 516.5V619.8M-1386.82 516.5H-1283.52M-1386.82 619.8V723.1M-1386.82 619.8H-1283.52M-1386.82 723.1V826.4M-1386.82 723.1H-1283.52M-1386.82 826.4V929.7M-1386.82 826.4H-1283.52M-1386.82 929.7V1033M-1386.82 929.7H-1283.52M-1386.82 1033V1136.3M-1386.82 1033H-1283.52M-1386.82 1136.3V1239.6M-1386.82 1136.3H-1283.52M-1386.82 1239.6V1342.9M-1386.82 1239.6H-1283.52M-1386.82 1342.9V1446.2M-1386.82 1342.9H-1283.52M-1386.82 1446.2V1549.5M-1386.82 1446.2H-1283.52M-1386.82 1549.5V1652.8M-1386.82 1549.5H-1283.52M-1386.82 1652.8V1756.1M-1386.82 1652.8H-1283.52M-1386.82 1756.1V1859.4M-1386.82 1756.1H-1283.52M-1386.82 1859.4V1962.7M-1386.82 1859.4H-1283.52M-1386.82 1962.7V2066M-1386.82 1962.7H-1283.52M-1386.82 2066H-1283.52M-1283.52 0V103.3M-1283.52 0H-1180.23M-1283.52 103.3V206.6M-1283.52 103.3H-1180.23M-1283.52 206.6V309.9M-1283.52 206.6H-1180.23M-1283.52 309.9V413.2M-1283.52 309.9H-1180.23M-1283.52 413.2V516.5M-1283.52 413.2H-1180.23M-1283.52 516.5V619.8M-1283.52 516.5H-1180.23M-1283.52 619.8V723.1M-1283.52 619.8H-1180.23M-1283.52 723.1V826.4M-1283.52 723.1H-1180.23M-1283.52 826.4V929.7M-1283.52 826.4H-1180.23M-1283.52 929.7V1033M-1283.52 929.7H-1180.23M-1283.52 1033V1136.3M-1283.52 1033H-1180.23M-1283.52 1136.3V1239.6M-1283.52 1136.3H-1180.23M-1283.52 1239.6V1342.9M-1283.52 1239.6H-1180.23M-1283.52 1342.9V1446.2M-1283.52 1342.9H-1180.23M-1283.52 1446.2V1549.5M-1283.52 1446.2H-1180.23M-1283.52 1549.5V1652.8M-1283.52 1549.5H-1180.23M-1283.52 1652.8V1756.1M-1283.52 1652.8H-1180.23M-1283.52 1756.1V1859.4M-1283.52 1756.1H-1180.23M-1283.52 1859.4V1962.7M-1283.52 1859.4H-1180.23M-1283.52 1962.7V2066M-1283.52 1962.7H-1180.23M-1283.52 2066H-1180.23M-1180.23 0V103.3M-1180.23 0H-1076.93M-1180.23 103.3V206.6M-1180.23 103.3H-1076.93M-1180.23 206.6V309.9M-1180.23 206.6H-1076.93M-1180.23 309.9V413.2M-1180.23 309.9H-1076.93M-1180.23 413.2V516.5M-1180.23 413.2H-1076.93M-1180.23 516.5V619.8M-1180.23 516.5H-1076.93M-1180.23 619.8V723.1M-1180.23 619.8H-1076.93M-1180.23 723.1V826.4M-1180.23 723.1H-1076.93M-1180.23 826.4V929.7M-1180.23 826.4H-1076.93M-1180.23 929.7V1033M-1180.23 929.7H-1076.93M-1180.23 1033V1136.3M-1180.23 1033H-1076.93M-1180.23 1136.3V1239.6M-1180.23 1136.3H-1076.93M-1180.23 1239.6V1342.9M-1180.23 1239.6H-1076.93M-1180.23 1342.9V1446.2M-1180.23 1342.9H-1076.93M-1180.23 1446.2V1549.5M-1180.23 1446.2H-1076.93M-1180.23 1549.5V1652.8M-1180.23 1549.5H-1076.93M-1180.23 1652.8V1756.1M-1180.23 1652.8H-1076.93M-1180.23 1756.1V1859.4M-1180.23 1756.1H-1076.93M-1180.23 1859.4V1962.7M-1180.23 1859.4H-1076.93M-1180.23 1962.7V2066M-1180.23 1962.7H-1076.93M-1180.23 2066H-1076.93M-1076.93 0V103.3M-1076.93 0H-973.636M-1076.93 103.3V206.6M-1076.93 103.3H-973.636M-1076.93 206.6V309.9M-1076.93 206.6H-973.636M-1076.93 309.9V413.2M-1076.93 309.9H-973.636M-1076.93 413.2V516.5M-1076.93 413.2H-973.636M-1076.93 516.5V619.8M-1076.93 516.5H-973.636M-1076.93 619.8V723.1M-1076.93 619.8H-973.636M-1076.93 723.1V826.4M-1076.93 723.1H-973.636M-1076.93 826.4V929.7M-1076.93 826.4H-973.636M-1076.93 929.7V1033M-1076.93 929.7H-973.636M-1076.93 1033V1136.3M-1076.93 1033H-973.636M-1076.93 1136.3V1239.6M-1076.93 1136.3H-973.636M-1076.93 1239.6V1342.9M-1076.93 1239.6H-973.636M-1076.93 1342.9V1446.2M-1076.93 1342.9H-973.636M-1076.93 1446.2V1549.5M-1076.93 1446.2H-973.636M-1076.93 1549.5V1652.8M-1076.93 1549.5H-973.636M-1076.93 1652.8V1756.1M-1076.93 1652.8H-973.636M-1076.93 1756.1V1859.4M-1076.93 1756.1H-973.636M-1076.93 1859.4V1962.7M-1076.93 1859.4H-973.636M-1076.93 1962.7V2066M-1076.93 1962.7H-973.636M-1076.93 2066H-973.636M-973.636 0V103.3M-973.636 0H-870.341M-973.636 103.3V206.6M-973.636 103.3H-870.341M-973.636 206.6V309.9M-973.636 206.6H-870.341M-973.636 309.9V413.2M-973.636 309.9H-870.341M-973.636 413.2V516.5M-973.636 413.2H-870.341M-973.636 516.5V619.8M-973.636 516.5H-870.341M-973.636 619.8V723.1M-973.636 619.8H-870.341M-973.636 723.1V826.4M-973.636 723.1H-870.341M-973.636 826.4V929.7M-973.636 826.4H-870.341M-973.636 929.7V1033M-973.636 929.7H-870.341M-973.636 1033V1136.3M-973.636 1033H-870.341M-973.636 1136.3V1239.6M-973.636 1136.3H-870.341M-973.636 1239.6V1342.9M-973.636 1239.6H-870.341M-973.636 1342.9V1446.2M-973.636 1342.9H-870.341M-973.636 1446.2V1549.5M-973.636 1446.2H-870.341M-973.636 1549.5V1652.8M-973.636 1549.5H-870.341M-973.636 1652.8V1756.1M-973.636 1652.8H-870.341M-973.636 1756.1V1859.4M-973.636 1756.1H-870.341M-973.636 1859.4V1962.7M-973.636 1859.4H-870.341M-973.636 1962.7V2066M-973.636 1962.7H-870.341M-973.636 2066H-870.341M-870.341 0V103.3M-870.341 0H-767.045M-870.341 103.3V206.6M-870.341 103.3H-767.045M-870.341 206.6V309.9M-870.341 206.6H-767.045M-870.341 309.9V413.2M-870.341 309.9H-767.045M-870.341 413.2V516.5M-870.341 413.2H-767.045M-870.341 516.5V619.8M-870.341 516.5H-767.045M-870.341 619.8V723.1M-870.341 619.8H-767.045M-870.341 723.1V826.4M-870.341 723.1H-767.045M-870.341 826.4V929.7M-870.341 826.4H-767.045M-870.341 929.7V1033M-870.341 929.7H-767.045M-870.341 1033V1136.3M-870.341 1033H-767.045M-870.341 1136.3V1239.6M-870.341 1136.3H-767.045M-870.341 1239.6V1342.9M-870.341 1239.6H-767.045M-870.341 1342.9V1446.2M-870.341 1342.9H-767.045M-870.341 1446.2V1549.5M-870.341 1446.2H-767.045M-870.341 1549.5V1652.8M-870.341 1549.5H-767.045M-870.341 1652.8V1756.1M-870.341 1652.8H-767.045M-870.341 1756.1V1859.4M-870.341 1756.1H-767.045M-870.341 1859.4V1962.7M-870.341 1859.4H-767.045M-870.341 1962.7V2066M-870.341 1962.7H-767.045M-870.341 2066H-767.045M-767.045 0V103.3M-767.045 0H-663.75M-767.045 103.3V206.6M-767.045 103.3H-663.75M-767.045 206.6V309.9M-767.045 206.6H-663.75M-767.045 309.9V413.2M-767.045 309.9H-663.75M-767.045 413.2V516.5M-767.045 413.2H-663.75M-767.045 516.5V619.8M-767.045 516.5H-663.75M-767.045 619.8V723.1M-767.045 619.8H-663.75M-767.045 723.1V826.4M-767.045 723.1H-663.75M-767.045 826.4V929.7M-767.045 826.4H-663.75M-767.045 929.7V1033M-767.045 929.7H-663.75M-767.045 1033V1136.3M-767.045 1033H-663.75M-767.045 1136.3V1239.6M-767.045 1136.3H-663.75M-767.045 1239.6V1342.9M-767.045 1239.6H-663.75M-767.045 1342.9V1446.2M-767.045 1342.9H-663.75M-767.045 1446.2V1549.5M-767.045 1446.2H-663.75M-767.045 1549.5V1652.8M-767.045 1549.5H-663.75M-767.045 1652.8V1756.1M-767.045 1652.8H-663.75M-767.045 1756.1V1859.4M-767.045 1756.1H-663.75M-767.045 1859.4V1962.7M-767.045 1859.4H-663.75M-767.045 1962.7V2066M-767.045 1962.7H-663.75M-767.045 2066H-663.75M-663.75 0V103.3M-663.75 0H-560.455M-663.75 103.3V206.6M-663.75 103.3H-560.455M-663.75 206.6V309.9M-663.75 206.6H-560.455M-663.75 309.9V413.2M-663.75 309.9H-560.455M-663.75 413.2V516.5M-663.75 413.2H-560.455M-663.75 516.5V619.8M-663.75 516.5H-560.455M-663.75 619.8V723.1M-663.75 619.8H-560.455M-663.75 723.1V826.4M-663.75 723.1H-560.455M-663.75 826.4V929.7M-663.75 826.4H-560.455M-663.75 929.7V1033M-663.75 929.7H-560.455M-663.75 1033V1136.3M-663.75 1033H-560.455M-663.75 1136.3V1239.6M-663.75 1136.3H-560.455M-663.75 1239.6V1342.9M-663.75 1239.6H-560.455M-663.75 1342.9V1446.2M-663.75 1342.9H-560.455M-663.75 1446.2V1549.5M-663.75 1446.2H-560.455M-663.75 1549.5V1652.8M-663.75 1549.5H-560.455M-663.75 1652.8V1756.1M-663.75 1652.8H-560.455M-663.75 1756.1V1859.4M-663.75 1756.1H-560.455M-663.75 1859.4V1962.7M-663.75 1859.4H-560.455M-663.75 1962.7V2066M-663.75 1962.7H-560.455M-663.75 2066H-560.455M-560.455 0V103.3M-560.455 0H-457.159M-560.455 103.3V206.6M-560.455 103.3H-457.159M-560.455 206.6V309.9M-560.455 206.6H-457.159M-560.455 309.9V413.2M-560.455 309.9H-457.159M-560.455 413.2V516.5M-560.455 413.2H-457.159M-560.455 516.5V619.8M-560.455 516.5H-457.159M-560.455 619.8V723.1M-560.455 619.8H-457.159M-560.455 723.1V826.4M-560.455 723.1H-457.159M-560.455 826.4V929.7M-560.455 826.4H-457.159M-560.455 929.7V1033M-560.455 929.7H-457.159M-560.455 1033V1136.3M-560.455 1033H-457.159M-560.455 1136.3V1239.6M-560.455 1136.3H-457.159M-560.455 1239.6V1342.9M-560.455 1239.6H-457.159M-560.455 1342.9V1446.2M-560.455 1342.9H-457.159M-560.455 1446.2V1549.5M-560.455 1446.2H-457.159M-560.455 1549.5V1652.8M-560.455 1549.5H-457.159M-560.455 1652.8V1756.1M-560.455 1652.8H-457.159M-560.455 1756.1V1859.4M-560.455 1756.1H-457.159M-560.455 1859.4V1962.7M-560.455 1859.4H-457.159M-560.455 1962.7V2066M-560.455 1962.7H-457.159M-560.455 2066H-457.159M-457.159 0V103.3M-457.159 0H-353.864M-457.159 103.3V206.6M-457.159 103.3H-353.864M-457.159 206.6V309.9M-457.159 206.6H-353.864M-457.159 309.9V413.2M-457.159 309.9H-353.864M-457.159 413.2V516.5M-457.159 413.2H-353.864M-457.159 516.5V619.8M-457.159 516.5H-353.864M-457.159 619.8V723.1M-457.159 619.8H-353.864M-457.159 723.1V826.4M-457.159 723.1H-353.864M-457.159 826.4V929.7M-457.159 826.4H-353.864M-457.159 929.7V1033M-457.159 929.7H-353.864M-457.159 1033V1136.3M-457.159 1033H-353.864M-457.159 1136.3V1239.6M-457.159 1136.3H-353.864M-457.159 1239.6V1342.9M-457.159 1239.6H-353.864M-457.159 1342.9V1446.2M-457.159 1342.9H-353.864M-457.159 1446.2V1549.5M-457.159 1446.2H-353.864M-457.159 1549.5V1652.8M-457.159 1549.5H-353.864M-457.159 1652.8V1756.1M-457.159 1652.8H-353.864M-457.159 1756.1V1859.4M-457.159 1756.1H-353.864M-457.159 1859.4V1962.7M-457.159 1859.4H-353.864M-457.159 1962.7V2066M-457.159 1962.7H-353.864M-457.159 2066H-353.864M-353.864 0V103.3M-353.864 0H-250.568M-353.864 103.3V206.6M-353.864 103.3H-250.568M-353.864 206.6V309.9M-353.864 206.6H-250.568M-353.864 309.9V413.2M-353.864 309.9H-250.568M-353.864 413.2V516.5M-353.864 413.2H-250.568M-353.864 516.5V619.8M-353.864 516.5H-250.568M-353.864 619.8V723.1M-353.864 619.8H-250.568M-353.864 723.1V826.4M-353.864 723.1H-250.568M-353.864 826.4V929.7M-353.864 826.4H-250.568M-353.864 929.7V1033M-353.864 929.7H-250.568M-353.864 1033V1136.3M-353.864 1033H-250.568M-353.864 1136.3V1239.6M-353.864 1136.3H-250.568M-353.864 1239.6V1342.9M-353.864 1239.6H-250.568M-353.864 1342.9V1446.2M-353.864 1342.9H-250.568M-353.864 1446.2V1549.5M-353.864 1446.2H-250.568M-353.864 1549.5V1652.8M-353.864 1549.5H-250.568M-353.864 1652.8V1756.1M-353.864 1652.8H-250.568M-353.864 1756.1V1859.4M-353.864 1756.1H-250.568M-353.864 1859.4V1962.7M-353.864 1859.4H-250.568M-353.864 1962.7V2066M-353.864 1962.7H-250.568M-353.864 2066H-250.568M-250.568 0V103.3M-250.568 0H-147.273M-250.568 103.3V206.6M-250.568 103.3H-147.273M-250.568 206.6V309.9M-250.568 206.6H-147.273M-250.568 309.9V413.2M-250.568 309.9H-147.273M-250.568 413.2V516.5M-250.568 413.2H-147.273M-250.568 516.5V619.8M-250.568 516.5H-147.273M-250.568 619.8V723.1M-250.568 619.8H-147.273M-250.568 723.1V826.4M-250.568 723.1H-147.273M-250.568 826.4V929.7M-250.568 826.4H-147.273M-250.568 929.7V1033M-250.568 929.7H-147.273M-250.568 1033V1136.3M-250.568 1033H-147.273M-250.568 1136.3V1239.6M-250.568 1136.3H-147.273M-250.568 1239.6V1342.9M-250.568 1239.6H-147.273M-250.568 1342.9V1446.2M-250.568 1342.9H-147.273M-250.568 1446.2V1549.5M-250.568 1446.2H-147.273M-250.568 1549.5V1652.8M-250.568 1549.5H-147.273M-250.568 1652.8V1756.1M-250.568 1652.8H-147.273M-250.568 1756.1V1859.4M-250.568 1756.1H-147.273M-250.568 1859.4V1962.7M-250.568 1859.4H-147.273M-250.568 1962.7V2066M-250.568 1962.7H-147.273M-250.568 2066H-147.273M-147.273 0V103.3M-147.273 0H-43.9774M-147.273 103.3V206.6M-147.273 103.3H-43.9774M-147.273 206.6V309.9M-147.273 206.6H-43.9774M-147.273 309.9V413.2M-147.273 309.9H-43.9774M-147.273 413.2V516.5M-147.273 413.2H-43.9774M-147.273 516.5V619.8M-147.273 516.5H-43.9774M-147.273 619.8V723.1M-147.273 619.8H-43.9774M-147.273 723.1V826.4M-147.273 723.1H-43.9774M-147.273 826.4V929.7M-147.273 826.4H-43.9774M-147.273 929.7V1033M-147.273 929.7H-43.9774M-147.273 1033V1136.3M-147.273 1033H-43.9774M-147.273 1136.3V1239.6M-147.273 1136.3H-43.9774M-147.273 1239.6V1342.9M-147.273 1239.6H-43.9774M-147.273 1342.9V1446.2M-147.273 1342.9H-43.9774M-147.273 1446.2V1549.5M-147.273 1446.2H-43.9774M-147.273 1549.5V1652.8M-147.273 1549.5H-43.9774M-147.273 1652.8V1756.1M-147.273 1652.8H-43.9774M-147.273 1756.1V1859.4M-147.273 1756.1H-43.9774M-147.273 1859.4V1962.7M-147.273 1859.4H-43.9774M-147.273 1962.7V2066M-147.273 1962.7H-43.9774M-147.273 2066H-43.9774M-43.9774 0V103.3M-43.9774 0H59.3181M-43.9774 103.3V206.6M-43.9774 103.3H59.3181M-43.9774 206.6V309.9M-43.9774 206.6H59.3181M-43.9774 309.9V413.2M-43.9774 309.9H59.3181M-43.9774 413.2V516.5M-43.9774 413.2H59.3181M-43.9774 516.5V619.8M-43.9774 516.5H59.3181M-43.9774 619.8V723.1M-43.9774 619.8H59.3181M-43.9774 723.1V826.4M-43.9774 723.1H59.3181M-43.9774 826.4V929.7M-43.9774 826.4H59.3181M-43.9774 929.7V1033M-43.9774 929.7H59.3181M-43.9774 1033V1136.3M-43.9774 1033H59.3181M-43.9774 1136.3V1239.6M-43.9774 1136.3H59.3181M-43.9774 1239.6V1342.9M-43.9774 1239.6H59.3181M-43.9774 1342.9V1446.2M-43.9774 1342.9H59.3181M-43.9774 1446.2V1549.5M-43.9774 1446.2H59.3181M-43.9774 1549.5V1652.8M-43.9774 1549.5H59.3181M-43.9774 1652.8V1756.1M-43.9774 1652.8H59.3181M-43.9774 1756.1V1859.4M-43.9774 1756.1H59.3181M-43.9774 1859.4V1962.7M-43.9774 1859.4H59.3181M-43.9774 1962.7V2066M-43.9774 1962.7H59.3181M-43.9774 2066H59.3181M59.3181 0V103.3M59.3181 0H162.614M59.3181 103.3V206.6M59.3181 103.3H162.614M59.3181 206.6V309.9M59.3181 206.6H162.614M59.3181 309.9V413.2M59.3181 309.9H162.614M59.3181 413.2V516.5M59.3181 413.2H162.614M59.3181 516.5V619.8M59.3181 516.5H162.614M59.3181 619.8V723.1M59.3181 619.8H162.614M59.3181 723.1V826.4M59.3181 723.1H162.614M59.3181 826.4V929.7M59.3181 826.4H162.614M59.3181 929.7V1033M59.3181 929.7H162.614M59.3181 1033V1136.3M59.3181 1033H162.614M59.3181 1136.3V1239.6M59.3181 1136.3H162.614M59.3181 1239.6V1342.9M59.3181 1239.6H162.614M59.3181 1342.9V1446.2M59.3181 1342.9H162.614M59.3181 1446.2V1549.5M59.3181 1446.2H162.614M59.3181 1549.5V1652.8M59.3181 1549.5H162.614M59.3181 1652.8V1756.1M59.3181 1652.8H162.614M59.3181 1756.1V1859.4M59.3181 1756.1H162.614M59.3181 1859.4V1962.7M59.3181 1859.4H162.614M59.3181 1962.7V2066M59.3181 1962.7H162.614M59.3181 2066H162.614M162.614 0V103.3M162.614 0H265.909M162.614 103.3V206.6M162.614 103.3H265.909M162.614 206.6V309.9M162.614 206.6H265.909M162.614 309.9V413.2M162.614 309.9H265.909M162.614 413.2V516.5M162.614 413.2H265.909M162.614 516.5V619.8M162.614 516.5H265.909M162.614 619.8V723.1M162.614 619.8H265.909M162.614 723.1V826.4M162.614 723.1H265.909M162.614 826.4V929.7M162.614 826.4H265.909M162.614 929.7V1033M162.614 929.7H265.909M162.614 1033V1136.3M162.614 1033H265.909M162.614 1136.3V1239.6M162.614 1136.3H265.909M162.614 1239.6V1342.9M162.614 1239.6H265.909M162.614 1342.9V1446.2M162.614 1342.9H265.909M162.614 1446.2V1549.5M162.614 1446.2H265.909M162.614 1549.5V1652.8M162.614 1549.5H265.909M162.614 1652.8V1756.1M162.614 1652.8H265.909M162.614 1756.1V1859.4M162.614 1756.1H265.909M162.614 1859.4V1962.7M162.614 1859.4H265.909M162.614 1962.7V2066M162.614 1962.7H265.909M162.614 2066H265.909M265.909 0V103.3M265.909 0H369.205M265.909 103.3V206.6M265.909 103.3H369.205M265.909 206.6V309.9M265.909 206.6H369.205M265.909 309.9V413.2M265.909 309.9H369.205M265.909 413.2V516.5M265.909 413.2H369.205M265.909 516.5V619.8M265.909 516.5H369.205M265.909 619.8V723.1M265.909 619.8H369.205M265.909 723.1V826.4M265.909 723.1H369.205M265.909 826.4V929.7M265.909 826.4H369.205M265.909 929.7V1033M265.909 929.7H369.205M265.909 1033V1136.3M265.909 1033H369.205M265.909 1136.3V1239.6M265.909 1136.3H369.205M265.909 1239.6V1342.9M265.909 1239.6H369.205M265.909 1342.9V1446.2M265.909 1342.9H369.205M265.909 1446.2V1549.5M265.909 1446.2H369.205M265.909 1549.5V1652.8M265.909 1549.5H369.205M265.909 1652.8V1756.1M265.909 1652.8H369.205M265.909 1756.1V1859.4M265.909 1756.1H369.205M265.909 1859.4V1962.7M265.909 1859.4H369.205M265.909 1962.7V2066M265.909 1962.7H369.205M265.909 2066H369.205M369.205 0V103.3M369.205 0H472.5M369.205 103.3V206.6M369.205 103.3H472.5M369.205 206.6V309.9M369.205 206.6H472.5M369.205 309.9V413.2M369.205 309.9H472.5M369.205 413.2V516.5M369.205 413.2H472.5M369.205 516.5V619.8M369.205 516.5H472.5M369.205 619.8V723.1M369.205 619.8H472.5M369.205 723.1V826.4M369.205 723.1H472.5M369.205 826.4V929.7M369.205 826.4H472.5M369.205 929.7V1033M369.205 929.7H472.5M369.205 1033V1136.3M369.205 1033H472.5M369.205 1136.3V1239.6M369.205 1136.3H472.5M369.205 1239.6V1342.9M369.205 1239.6H472.5M369.205 1342.9V1446.2M369.205 1342.9H472.5M369.205 1446.2V1549.5M369.205 1446.2H472.5M369.205 1549.5V1652.8M369.205 1549.5H472.5M369.205 1652.8V1756.1M369.205 1652.8H472.5M369.205 1756.1V1859.4M369.205 1756.1H472.5M369.205 1859.4V1962.7M369.205 1859.4H472.5M369.205 1962.7V2066M369.205 1962.7H472.5M369.205 2066H472.5M472.5 0V103.3M472.5 0H575.795M472.5 103.3V206.6M472.5 103.3H575.795M472.5 206.6V309.9M472.5 206.6H575.795M472.5 309.9V413.2M472.5 309.9H575.795M472.5 413.2V516.5M472.5 413.2H575.795M472.5 516.5V619.8M472.5 516.5H575.795M472.5 619.8V723.1M472.5 619.8H575.795M472.5 723.1V826.4M472.5 723.1H575.795M472.5 826.4V929.7M472.5 826.4H575.795M472.5 929.7V1033M472.5 929.7H575.795M472.5 1033V1136.3M472.5 1033H575.795M472.5 1136.3V1239.6M472.5 1136.3H575.795M472.5 1239.6V1342.9M472.5 1239.6H575.795M472.5 1342.9V1446.2M472.5 1342.9H575.795M472.5 1446.2V1549.5M472.5 1446.2H575.795M472.5 1549.5V1652.8M472.5 1549.5H575.795M472.5 1652.8V1756.1M472.5 1652.8H575.795M472.5 1756.1V1859.4M472.5 1756.1H575.795M472.5 1859.4V1962.7M472.5 1859.4H575.795M472.5 1962.7V2066M472.5 1962.7H575.795M472.5 2066H575.795M575.795 0V103.3M575.795 0H679.091M575.795 103.3V206.6M575.795 103.3H679.091M575.795 206.6V309.9M575.795 206.6H679.091M575.795 309.9V413.2M575.795 309.9H679.091M575.795 413.2V516.5M575.795 413.2H679.091M575.795 516.5V619.8M575.795 516.5H679.091M575.795 619.8V723.1M575.795 619.8H679.091M575.795 723.1V826.4M575.795 723.1H679.091M575.795 826.4V929.7M575.795 826.4H679.091M575.795 929.7V1033M575.795 929.7H679.091M575.795 1033V1136.3M575.795 1033H679.091M575.795 1136.3V1239.6M575.795 1136.3H679.091M575.795 1239.6V1342.9M575.795 1239.6H679.091M575.795 1342.9V1446.2M575.795 1342.9H679.091M575.795 1446.2V1549.5M575.795 1446.2H679.091M575.795 1549.5V1652.8M575.795 1549.5H679.091M575.795 1652.8V1756.1M575.795 1652.8H679.091M575.795 1756.1V1859.4M575.795 1756.1H679.091M575.795 1859.4V1962.7M575.795 1859.4H679.091M575.795 1962.7V2066M575.795 1962.7H679.091M575.795 2066H679.091M679.091 0V103.3M679.091 0H782.386M679.091 103.3V206.6M679.091 103.3H782.386M679.091 206.6V309.9M679.091 206.6H782.386M679.091 309.9V413.2M679.091 309.9H782.386M679.091 413.2V516.5M679.091 413.2H782.386M679.091 516.5V619.8M679.091 516.5H782.386M679.091 619.8V723.1M679.091 619.8H782.386M679.091 723.1V826.4M679.091 723.1H782.386M679.091 826.4V929.7M679.091 826.4H782.386M679.091 929.7V1033M679.091 929.7H782.386M679.091 1033V1136.3M679.091 1033H782.386M679.091 1136.3V1239.6M679.091 1136.3H782.386M679.091 1239.6V1342.9M679.091 1239.6H782.386M679.091 1342.9V1446.2M679.091 1342.9H782.386M679.091 1446.2V1549.5M679.091 1446.2H782.386M679.091 1549.5V1652.8M679.091 1549.5H782.386M679.091 1652.8V1756.1M679.091 1652.8H782.386M679.091 1756.1V1859.4M679.091 1756.1H782.386M679.091 1859.4V1962.7M679.091 1859.4H782.386M679.091 1962.7V2066M679.091 1962.7H782.386M679.091 2066H782.386M782.386 0V103.3M782.386 0H885.682M782.386 103.3V206.6M782.386 103.3H885.682M782.386 206.6V309.9M782.386 206.6H885.682M782.386 309.9V413.2M782.386 309.9H885.682M782.386 413.2V516.5M782.386 413.2H885.682M782.386 516.5V619.8M782.386 516.5H885.682M782.386 619.8V723.1M782.386 619.8H885.682M782.386 723.1V826.4M782.386 723.1H885.682M782.386 826.4V929.7M782.386 826.4H885.682M782.386 929.7V1033M782.386 929.7H885.682M782.386 1033V1136.3M782.386 1033H885.682M782.386 1136.3V1239.6M782.386 1136.3H885.682M782.386 1239.6V1342.9M782.386 1239.6H885.682M782.386 1342.9V1446.2M782.386 1342.9H885.682M782.386 1446.2V1549.5M782.386 1446.2H885.682M782.386 1549.5V1652.8M782.386 1549.5H885.682M782.386 1652.8V1756.1M782.386 1652.8H885.682M782.386 1756.1V1859.4M782.386 1756.1H885.682M782.386 1859.4V1962.7M782.386 1859.4H885.682M782.386 1962.7V2066M782.386 1962.7H885.682M782.386 2066H885.682M885.682 0V103.3M885.682 0H988.977M885.682 103.3V206.6M885.682 103.3H988.977M885.682 206.6V309.9M885.682 206.6H988.977M885.682 309.9V413.2M885.682 309.9H988.977M885.682 413.2V516.5M885.682 413.2H988.977M885.682 516.5V619.8M885.682 516.5H988.977M885.682 619.8V723.1M885.682 619.8H988.977M885.682 723.1V826.4M885.682 723.1H988.977M885.682 826.4V929.7M885.682 826.4H988.977M885.682 929.7V1033M885.682 929.7H988.977M885.682 1033V1136.3M885.682 1033H988.977M885.682 1136.3V1239.6M885.682 1136.3H988.977M885.682 1239.6V1342.9M885.682 1239.6H988.977M885.682 1342.9V1446.2M885.682 1342.9H988.977M885.682 1446.2V1549.5M885.682 1446.2H988.977M885.682 1549.5V1652.8M885.682 1549.5H988.977M885.682 1652.8V1756.1M885.682 1652.8H988.977M885.682 1756.1V1859.4M885.682 1756.1H988.977M885.682 1859.4V1962.7M885.682 1859.4H988.977M885.682 1962.7V2066M885.682 1962.7H988.977M885.682 2066H988.977M988.977 0V103.3M988.977 0H1092.27M988.977 103.3V206.6M988.977 103.3H1092.27M988.977 206.6V309.9M988.977 206.6H1092.27M988.977 309.9V413.2M988.977 309.9H1092.27M988.977 413.2V516.5M988.977 413.2H1092.27M988.977 516.5V619.8M988.977 516.5H1092.27M988.977 619.8V723.1M988.977 619.8H1092.27M988.977 723.1V826.4M988.977 723.1H1092.27M988.977 826.4V929.7M988.977 826.4H1092.27M988.977 929.7V1033M988.977 929.7H1092.27M988.977 1033V1136.3M988.977 1033H1092.27M988.977 1136.3V1239.6M988.977 1136.3H1092.27M988.977 1239.6V1342.9M988.977 1239.6H1092.27M988.977 1342.9V1446.2M988.977 1342.9H1092.27M988.977 1446.2V1549.5M988.977 1446.2H1092.27M988.977 1549.5V1652.8M988.977 1549.5H1092.27M988.977 1652.8V1756.1M988.977 1652.8H1092.27M988.977 1756.1V1859.4M988.977 1756.1H1092.27M988.977 1859.4V1962.7M988.977 1859.4H1092.27M988.977 1962.7V2066M988.977 1962.7H1092.27M988.977 2066H1092.27M1092.27 0V103.3M1092.27 0H1195.57M1092.27 103.3V206.6M1092.27 103.3H1195.57M1092.27 206.6V309.9M1092.27 206.6H1195.57M1092.27 309.9V413.2M1092.27 309.9H1195.57M1092.27 413.2V516.5M1092.27 413.2H1195.57M1092.27 516.5V619.8M1092.27 516.5H1195.57M1092.27 619.8V723.1M1092.27 619.8H1195.57M1092.27 723.1V826.4M1092.27 723.1H1195.57M1092.27 826.4V929.7M1092.27 826.4H1195.57M1092.27 929.7V1033M1092.27 929.7H1195.57M1092.27 1033V1136.3M1092.27 1033H1195.57M1092.27 1136.3V1239.6M1092.27 1136.3H1195.57M1092.27 1239.6V1342.9M1092.27 1239.6H1195.57M1092.27 1342.9V1446.2M1092.27 1342.9H1195.57M1092.27 1446.2V1549.5M1092.27 1446.2H1195.57M1092.27 1549.5V1652.8M1092.27 1549.5H1195.57M1092.27 1652.8V1756.1M1092.27 1652.8H1195.57M1092.27 1756.1V1859.4M1092.27 1756.1H1195.57M1092.27 1859.4V1962.7M1092.27 1859.4H1195.57M1092.27 1962.7V2066M1092.27 1962.7H1195.57M1092.27 2066H1195.57M1195.57 0V103.3M1195.57 0H1298.86M1195.57 103.3V206.6M1195.57 103.3H1298.86M1195.57 206.6V309.9M1195.57 206.6H1298.86M1195.57 309.9V413.2M1195.57 309.9H1298.86M1195.57 413.2V516.5M1195.57 413.2H1298.86M1195.57 516.5V619.8M1195.57 516.5H1298.86M1195.57 619.8V723.1M1195.57 619.8H1298.86M1195.57 723.1V826.4M1195.57 723.1H1298.86M1195.57 826.4V929.7M1195.57 826.4H1298.86M1195.57 929.7V1033M1195.57 929.7H1298.86M1195.57 1033V1136.3M1195.57 1033H1298.86M1195.57 1136.3V1239.6M1195.57 1136.3H1298.86M1195.57 1239.6V1342.9M1195.57 1239.6H1298.86M1195.57 1342.9V1446.2M1195.57 1342.9H1298.86M1195.57 1446.2V1549.5M1195.57 1446.2H1298.86M1195.57 1549.5V1652.8M1195.57 1549.5H1298.86M1195.57 1652.8V1756.1M1195.57 1652.8H1298.86M1195.57 1756.1V1859.4M1195.57 1756.1H1298.86M1195.57 1859.4V1962.7M1195.57 1859.4H1298.86M1195.57 1962.7V2066M1195.57 1962.7H1298.86M1195.57 2066H1298.86M1298.86 0V103.3M1298.86 0H1402.16M1298.86 103.3V206.6M1298.86 103.3H1402.16M1298.86 206.6V309.9M1298.86 206.6H1402.16M1298.86 309.9V413.2M1298.86 309.9H1402.16M1298.86 413.2V516.5M1298.86 413.2H1402.16M1298.86 516.5V619.8M1298.86 516.5H1402.16M1298.86 619.8V723.1M1298.86 619.8H1402.16M1298.86 723.1V826.4M1298.86 723.1H1402.16M1298.86 826.4V929.7M1298.86 826.4H1402.16M1298.86 929.7V1033M1298.86 929.7H1402.16M1298.86 1033V1136.3M1298.86 1033H1402.16M1298.86 1136.3V1239.6M1298.86 1136.3H1402.16M1298.86 1239.6V1342.9M1298.86 1239.6H1402.16M1298.86 1342.9V1446.2M1298.86 1342.9H1402.16M1298.86 1446.2V1549.5M1298.86 1446.2H1402.16M1298.86 1549.5V1652.8M1298.86 1549.5H1402.16M1298.86 1652.8V1756.1M1298.86 1652.8H1402.16M1298.86 1756.1V1859.4M1298.86 1756.1H1402.16M1298.86 1859.4V1962.7M1298.86 1859.4H1402.16M1298.86 1962.7V2066M1298.86 1962.7H1402.16M1298.86 2066H1402.16M1402.16 0V103.3M1402.16 0H1505.45M1402.16 103.3V206.6M1402.16 103.3H1505.45M1402.16 206.6V309.9M1402.16 206.6H1505.45M1402.16 309.9V413.2M1402.16 309.9H1505.45M1402.16 413.2V516.5M1402.16 413.2H1505.45M1402.16 516.5V619.8M1402.16 516.5H1505.45M1402.16 619.8V723.1M1402.16 619.8H1505.45M1402.16 723.1V826.4M1402.16 723.1H1505.45M1402.16 826.4V929.7M1402.16 826.4H1505.45M1402.16 929.7V1033M1402.16 929.7H1505.45M1402.16 1033V1136.3M1402.16 1033H1505.45M1402.16 1136.3V1239.6M1402.16 1136.3H1505.45M1402.16 1239.6V1342.9M1402.16 1239.6H1505.45M1402.16 1342.9V1446.2M1402.16 1342.9H1505.45M1402.16 1446.2V1549.5M1402.16 1446.2H1505.45M1402.16 1549.5V1652.8M1402.16 1549.5H1505.45M1402.16 1652.8V1756.1M1402.16 1652.8H1505.45M1402.16 1756.1V1859.4M1402.16 1756.1H1505.45M1402.16 1859.4V1962.7M1402.16 1859.4H1505.45M1402.16 1962.7V2066M1402.16 1962.7H1505.45M1402.16 2066H1505.45M1505.45 0V103.3M1505.45 0H1608.75M1505.45 103.3V206.6M1505.45 103.3H1608.75M1505.45 206.6V309.9M1505.45 206.6H1608.75M1505.45 309.9V413.2M1505.45 309.9H1608.75M1505.45 413.2V516.5M1505.45 413.2H1608.75M1505.45 516.5V619.8M1505.45 516.5H1608.75M1505.45 619.8V723.1M1505.45 619.8H1608.75M1505.45 723.1V826.4M1505.45 723.1H1608.75M1505.45 826.4V929.7M1505.45 826.4H1608.75M1505.45 929.7V1033M1505.45 929.7H1608.75M1505.45 1033V1136.3M1505.45 1033H1608.75M1505.45 1136.3V1239.6M1505.45 1136.3H1608.75M1505.45 1239.6V1342.9M1505.45 1239.6H1608.75M1505.45 1342.9V1446.2M1505.45 1342.9H1608.75M1505.45 1446.2V1549.5M1505.45 1446.2H1608.75M1505.45 1549.5V1652.8M1505.45 1549.5H1608.75M1505.45 1652.8V1756.1M1505.45 1652.8H1608.75M1505.45 1756.1V1859.4M1505.45 1756.1H1608.75M1505.45 1859.4V1962.7M1505.45 1859.4H1608.75M1505.45 1962.7V2066M1505.45 1962.7H1608.75M1505.45 2066H1608.75M1608.75 0V103.3M1608.75 0H1712.05M1608.75 103.3V206.6M1608.75 103.3H1712.05M1608.75 206.6V309.9M1608.75 206.6H1712.05M1608.75 309.9V413.2M1608.75 309.9H1712.05M1608.75 413.2V516.5M1608.75 413.2H1712.05M1608.75 516.5V619.8M1608.75 516.5H1712.05M1608.75 619.8V723.1M1608.75 619.8H1712.05M1608.75 723.1V826.4M1608.75 723.1H1712.05M1608.75 826.4V929.7M1608.75 826.4H1712.05M1608.75 929.7V1033M1608.75 929.7H1712.05M1608.75 1033V1136.3M1608.75 1033H1712.05M1608.75 1136.3V1239.6M1608.75 1136.3H1712.05M1608.75 1239.6V1342.9M1608.75 1239.6H1712.05M1608.75 1342.9V1446.2M1608.75 1342.9H1712.05M1608.75 1446.2V1549.5M1608.75 1446.2H1712.05M1608.75 1549.5V1652.8M1608.75 1549.5H1712.05M1608.75 1652.8V1756.1M1608.75 1652.8H1712.05M1608.75 1756.1V1859.4M1608.75 1756.1H1712.05M1608.75 1859.4V1962.7M1608.75 1859.4H1712.05M1608.75 1962.7V2066M1608.75 1962.7H1712.05M1608.75 2066H1712.05M1712.05 0V103.3M1712.05 0H1815.34M1712.05 103.3V206.6M1712.05 103.3H1815.34M1712.05 206.6V309.9M1712.05 206.6H1815.34M1712.05 309.9V413.2M1712.05 309.9H1815.34M1712.05 413.2V516.5M1712.05 413.2H1815.34M1712.05 516.5V619.8M1712.05 516.5H1815.34M1712.05 619.8V723.1M1712.05 619.8H1815.34M1712.05 723.1V826.4M1712.05 723.1H1815.34M1712.05 826.4V929.7M1712.05 826.4H1815.34M1712.05 929.7V1033M1712.05 929.7H1815.34M1712.05 1033V1136.3M1712.05 1033H1815.34M1712.05 1136.3V1239.6M1712.05 1136.3H1815.34M1712.05 1239.6V1342.9M1712.05 1239.6H1815.34M1712.05 1342.9V1446.2M1712.05 1342.9H1815.34M1712.05 1446.2V1549.5M1712.05 1446.2H1815.34M1712.05 1549.5V1652.8M1712.05 1549.5H1815.34M1712.05 1652.8V1756.1M1712.05 1652.8H1815.34M1712.05 1756.1V1859.4M1712.05 1756.1H1815.34M1712.05 1859.4V1962.7M1712.05 1859.4H1815.34M1712.05 1962.7V2066M1712.05 1962.7H1815.34M1712.05 2066H1815.34M1815.34 0V103.3M1815.34 0H1918.64M1815.34 103.3V206.6M1815.34 103.3H1918.64M1815.34 206.6V309.9M1815.34 206.6H1918.64M1815.34 309.9V413.2M1815.34 309.9H1918.64M1815.34 413.2V516.5M1815.34 413.2H1918.64M1815.34 516.5V619.8M1815.34 516.5H1918.64M1815.34 619.8V723.1M1815.34 619.8H1918.64M1815.34 723.1V826.4M1815.34 723.1H1918.64M1815.34 826.4V929.7M1815.34 826.4H1918.64M1815.34 929.7V1033M1815.34 929.7H1918.64M1815.34 1033V1136.3M1815.34 1033H1918.64M1815.34 1136.3V1239.6M1815.34 1136.3H1918.64M1815.34 1239.6V1342.9M1815.34 1239.6H1918.64M1815.34 1342.9V1446.2M1815.34 1342.9H1918.64M1815.34 1446.2V1549.5M1815.34 1446.2H1918.64M1815.34 1549.5V1652.8M1815.34 1549.5H1918.64M1815.34 1652.8V1756.1M1815.34 1652.8H1918.64M1815.34 1756.1V1859.4M1815.34 1756.1H1918.64M1815.34 1859.4V1962.7M1815.34 1859.4H1918.64M1815.34 1962.7V2066M1815.34 1962.7H1918.64M1815.34 2066H1918.64M1918.64 0V103.3M1918.64 0H2021.93M1918.64 103.3V206.6M1918.64 103.3H2021.93M1918.64 206.6V309.9M1918.64 206.6H2021.93M1918.64 309.9V413.2M1918.64 309.9H2021.93M1918.64 413.2V516.5M1918.64 413.2H2021.93M1918.64 516.5V619.8M1918.64 516.5H2021.93M1918.64 619.8V723.1M1918.64 619.8H2021.93M1918.64 723.1V826.4M1918.64 723.1H2021.93M1918.64 826.4V929.7M1918.64 826.4H2021.93M1918.64 929.7V1033M1918.64 929.7H2021.93M1918.64 1033V1136.3M1918.64 1033H2021.93M1918.64 1136.3V1239.6M1918.64 1136.3H2021.93M1918.64 1239.6V1342.9M1918.64 1239.6H2021.93M1918.64 1342.9V1446.2M1918.64 1342.9H2021.93M1918.64 1446.2V1549.5M1918.64 1446.2H2021.93M1918.64 1549.5V1652.8M1918.64 1549.5H2021.93M1918.64 1652.8V1756.1M1918.64 1652.8H2021.93M1918.64 1756.1V1859.4M1918.64 1756.1H2021.93M1918.64 1859.4V1962.7M1918.64 1859.4H2021.93M1918.64 1962.7V2066M1918.64 1962.7H2021.93M1918.64 2066H2021.93M2021.93 0V103.3M2021.93 0H2125.23M2021.93 103.3V206.6M2021.93 103.3H2125.23M2021.93 206.6V309.9M2021.93 206.6H2125.23M2021.93 309.9V413.2M2021.93 309.9H2125.23M2021.93 413.2V516.5M2021.93 413.2H2125.23M2021.93 516.5V619.8M2021.93 516.5H2125.23M2021.93 619.8V723.1M2021.93 619.8H2125.23M2021.93 723.1V826.4M2021.93 723.1H2125.23M2021.93 826.4V929.7M2021.93 826.4H2125.23M2021.93 929.7V1033M2021.93 929.7H2125.23M2021.93 1033V1136.3M2021.93 1033H2125.23M2021.93 1136.3V1239.6M2021.93 1136.3H2125.23M2021.93 1239.6V1342.9M2021.93 1239.6H2125.23M2021.93 1342.9V1446.2M2021.93 1342.9H2125.23M2021.93 1446.2V1549.5M2021.93 1446.2H2125.23M2021.93 1549.5V1652.8M2021.93 1549.5H2125.23M2021.93 1652.8V1756.1M2021.93 1652.8H2125.23M2021.93 1756.1V1859.4M2021.93 1756.1H2125.23M2021.93 1859.4V1962.7M2021.93 1859.4H2125.23M2021.93 1962.7V2066M2021.93 1962.7H2125.23M2021.93 2066H2125.23M2125.23 0V103.3M2125.23 0H2228.52M2125.23 103.3V206.6M2125.23 103.3H2228.52M2125.23 206.6V309.9M2125.23 206.6H2228.52M2125.23 309.9V413.2M2125.23 309.9H2228.52M2125.23 413.2V516.5M2125.23 413.2H2228.52M2125.23 516.5V619.8M2125.23 516.5H2228.52M2125.23 619.8V723.1M2125.23 619.8H2228.52M2125.23 723.1V826.4M2125.23 723.1H2228.52M2125.23 826.4V929.7M2125.23 826.4H2228.52M2125.23 929.7V1033M2125.23 929.7H2228.52M2125.23 1033V1136.3M2125.23 1033H2228.52M2125.23 1136.3V1239.6M2125.23 1136.3H2228.52M2125.23 1239.6V1342.9M2125.23 1239.6H2228.52M2125.23 1342.9V1446.2M2125.23 1342.9H2228.52M2125.23 1446.2V1549.5M2125.23 1446.2H2228.52M2125.23 1549.5V1652.8M2125.23 1549.5H2228.52M2125.23 1652.8V1756.1M2125.23 1652.8H2228.52M2125.23 1756.1V1859.4M2125.23 1756.1H2228.52M2125.23 1859.4V1962.7M2125.23 1859.4H2228.52M2125.23 1962.7V2066M2125.23 1962.7H2228.52M2125.23 2066H2228.52M2228.52 0V103.3M2228.52 0H2331.82M2228.52 103.3V206.6M2228.52 103.3H2331.82M2228.52 206.6V309.9M2228.52 206.6H2331.82M2228.52 309.9V413.2M2228.52 309.9H2331.82M2228.52 413.2V516.5M2228.52 413.2H2331.82M2228.52 516.5V619.8M2228.52 516.5H2331.82M2228.52 619.8V723.1M2228.52 619.8H2331.82M2228.52 723.1V826.4M2228.52 723.1H2331.82M2228.52 826.4V929.7M2228.52 826.4H2331.82M2228.52 929.7V1033M2228.52 929.7H2331.82M2228.52 1033V1136.3M2228.52 1033H2331.82M2228.52 1136.3V1239.6M2228.52 1136.3H2331.82M2228.52 1239.6V1342.9M2228.52 1239.6H2331.82M2228.52 1342.9V1446.2M2228.52 1342.9H2331.82M2228.52 1446.2V1549.5M2228.52 1446.2H2331.82M2228.52 1549.5V1652.8M2228.52 1549.5H2331.82M2228.52 1652.8V1756.1M2228.52 1652.8H2331.82M2228.52 1756.1V1859.4M2228.52 1756.1H2331.82M2228.52 1859.4V1962.7M2228.52 1859.4H2331.82M2228.52 1962.7V2066M2228.52 1962.7H2331.82M2228.52 2066H2331.82M2331.82 0V103.3M2331.82 0H2435.11M2331.82 103.3V206.6M2331.82 103.3H2435.11M2331.82 206.6V309.9M2331.82 206.6H2435.11M2331.82 309.9V413.2M2331.82 309.9H2435.11M2331.82 413.2V516.5M2331.82 413.2H2435.11M2331.82 516.5V619.8M2331.82 516.5H2435.11M2331.82 619.8V723.1M2331.82 619.8H2435.11M2331.82 723.1V826.4M2331.82 723.1H2435.11M2331.82 826.4V929.7M2331.82 826.4H2435.11M2331.82 929.7V1033M2331.82 929.7H2435.11M2331.82 1033V1136.3M2331.82 1033H2435.11M2331.82 1136.3V1239.6M2331.82 1136.3H2435.11M2331.82 1239.6V1342.9M2331.82 1239.6H2435.11M2331.82 1342.9V1446.2M2331.82 1342.9H2435.11M2331.82 1446.2V1549.5M2331.82 1446.2H2435.11M2331.82 1549.5V1652.8M2331.82 1549.5H2435.11M2331.82 1652.8V1756.1M2331.82 1652.8H2435.11M2331.82 1756.1V1859.4M2331.82 1756.1H2435.11M2331.82 1859.4V1962.7M2331.82 1859.4H2435.11M2331.82 1962.7V2066M2331.82 1962.7H2435.11M2331.82 2066H2435.11M2435.11 0V103.3M2435.11 0H2538.41M2435.11 103.3V206.6M2435.11 103.3H2538.41M2435.11 206.6V309.9M2435.11 206.6H2538.41M2435.11 309.9V413.2M2435.11 309.9H2538.41M2435.11 413.2V516.5M2435.11 413.2H2538.41M2435.11 516.5V619.8M2435.11 516.5H2538.41M2435.11 619.8V723.1M2435.11 619.8H2538.41M2435.11 723.1V826.4M2435.11 723.1H2538.41M2435.11 826.4V929.7M2435.11 826.4H2538.41M2435.11 929.7V1033M2435.11 929.7H2538.41M2435.11 1033V1136.3M2435.11 1033H2538.41M2435.11 1136.3V1239.6M2435.11 1136.3H2538.41M2435.11 1239.6V1342.9M2435.11 1239.6H2538.41M2435.11 1342.9V1446.2M2435.11 1342.9H2538.41M2435.11 1446.2V1549.5M2435.11 1446.2H2538.41M2435.11 1549.5V1652.8M2435.11 1549.5H2538.41M2435.11 1652.8V1756.1M2435.11 1652.8H2538.41M2435.11 1756.1V1859.4M2435.11 1756.1H2538.41M2435.11 1859.4V1962.7M2435.11 1859.4H2538.41M2435.11 1962.7V2066M2435.11 1962.7H2538.41M2435.11 2066H2538.41M2538.41 0V103.3M2538.41 0H2641.7M2538.41 103.3V206.6M2538.41 103.3H2641.7M2538.41 206.6V309.9M2538.41 206.6H2641.7M2538.41 309.9V413.2M2538.41 309.9H2641.7M2538.41 413.2V516.5M2538.41 413.2H2641.7M2538.41 516.5V619.8M2538.41 516.5H2641.7M2538.41 619.8V723.1M2538.41 619.8H2641.7M2538.41 723.1V826.4M2538.41 723.1H2641.7M2538.41 826.4V929.7M2538.41 826.4H2641.7M2538.41 929.7V1033M2538.41 929.7H2641.7M2538.41 1033V1136.3M2538.41 1033H2641.7M2538.41 1136.3V1239.6M2538.41 1136.3H2641.7M2538.41 1239.6V1342.9M2538.41 1239.6H2641.7M2538.41 1342.9V1446.2M2538.41 1342.9H2641.7M2538.41 1446.2V1549.5M2538.41 1446.2H2641.7M2538.41 1549.5V1652.8M2538.41 1549.5H2641.7M2538.41 1652.8V1756.1M2538.41 1652.8H2641.7M2538.41 1756.1V1859.4M2538.41 1756.1H2641.7M2538.41 1859.4V1962.7M2538.41 1859.4H2641.7M2538.41 1962.7V2066M2538.41 1962.7H2641.7M2538.41 2066H2641.7M2641.7 0V103.3M2641.7 0H2745V103.3M2641.7 103.3V206.6M2641.7 103.3H2745M2641.7 206.6V309.9M2641.7 206.6H2745M2641.7 309.9V413.2M2641.7 309.9H2745M2641.7 413.2V516.5M2641.7 413.2H2745M2641.7 516.5V619.8M2641.7 516.5H2745M2641.7 619.8V723.1M2641.7 619.8H2745M2641.7 723.1V826.4M2641.7 723.1H2745M2641.7 826.4V929.7M2641.7 826.4H2745M2641.7 929.7V1033M2641.7 929.7H2745M2641.7 1033V1136.3M2641.7 1033H2745M2641.7 1136.3V1239.6M2641.7 1136.3H2745M2641.7 1239.6V1342.9M2641.7 1239.6H2745M2641.7 1342.9V1446.2M2641.7 1342.9H2745M2641.7 1446.2V1549.5M2641.7 1446.2H2745M2641.7 1549.5V1652.8M2641.7 1549.5H2745M2641.7 1652.8V1756.1M2641.7 1652.8H2745M2641.7 1756.1V1859.4M2641.7 1756.1H2745M2641.7 1859.4V1962.7M2641.7 1859.4H2745M2641.7 1962.7V2066M2641.7 1962.7H2745M2641.7 2066H2745V1962.7M2745 103.3V206.6M2745 206.6V309.9M2745 309.9V413.2M2745 413.2V516.5M2745 516.5V619.8M2745 619.8V723.1M2745 723.1V826.4M2745 826.4V929.7M2745 929.7V1033M2745 1033V1136.3M2745 1136.3V1239.6M2745 1239.6V1342.9M2745 1342.9V1446.2M2745 1446.2V1549.5M2745 1549.5V1652.8M2745 1652.8V1756.1M2745 1756.1V1859.4M2745 1859.4V1962.7" stroke="url(#paint0_radial_650_7)" stroke-width="0.804612"/>
</g>
<defs>
<filter id="filter0_f_650_7" x="-748" y="142" width="1285" height="1165" filterUnits="userSpaceOnUse" color-interpolation-filters="sRGB">
<feFlood flood-opacity="0" result="BackgroundImageFix"/>
<feBlend mode="normal" in="SourceGraphic" in2="BackgroundImageFix" result="shape"/>
<feGaussianBlur stdDeviation="200" result="effect1_foregroundBlur_650_7"/>
</filter>
<radialGradient id="paint0_radial_650_7" cx="0" cy="0" r="1" gradientUnits="userSpaceOnUse" gradientTransform="translate(472 -8.16093e-05) rotate(105.35) scale(528.867 1163.46)">
<stop stop-color="#230394" stop-opacity="0.5"/>
<stop offset="0.515" stop-color="white"/>
<stop offset="1" stop-color="#230394" stop-opacity="0.5"/>
</radialGradient>
<clipPath id="clip0_650_7">
<rect width="768" height="300" fill="white"/>
</clipPath>
</defs>
</svg>
