<svg width="375" height="308" viewBox="0 0 375 308" fill="none" xmlns="http://www.w3.org/2000/svg">
<g clip-path="url(#clip0_649_43)">
<rect width="375" height="308" fill="#2D34FF"/>
<g opacity="0.2" filter="url(#filter0_f_649_43)">
<rect x="-544" y="542" width="485" height="365" fill="#84FFD3"/>
</g>
<path opacity="0.15" d="M-1892.7 0H-1996V103.3M-1892.7 0V103.3M-1892.7 0H-1789.41M-1892.7 103.3H-1996M-1892.7 103.3V206.6M-1892.7 103.3H-1789.41M-1996 103.3V206.6M-1892.7 206.6H-1996M-1892.7 206.6V309.9M-1892.7 206.6H-1789.41M-1996 206.6V309.9M-1892.7 309.9H-1996M-1892.7 309.9V413.2M-1892.7 309.9H-1789.41M-1996 309.9V413.2M-1892.7 413.2H-1996M-1892.7 413.2V516.5M-1892.7 413.2H-1789.41M-1996 413.2V516.5M-1892.7 516.5H-1996M-1892.7 516.5V619.8M-1892.7 516.5H-1789.41M-1996 516.5V619.8M-1892.7 619.8H-1996M-1892.7 619.8V723.1M-1892.7 619.8H-1789.41M-1996 619.8V723.1M-1892.7 723.1H-1996M-1892.7 723.1V826.4M-1892.7 723.1H-1789.41M-1996 723.1V826.4M-1892.7 826.4H-1996M-1892.7 826.4V929.7M-1892.7 826.4H-1789.41M-1996 826.4V929.7M-1892.7 929.7H-1996M-1892.7 929.7V1033M-1892.7 929.7H-1789.41M-1996 929.7V1033M-1892.7 1033H-1996M-1892.7 1033V1136.3M-1892.7 1033H-1789.41M-1996 1033V1136.3M-1892.7 1136.3H-1996M-1892.7 1136.3V1239.6M-1892.7 1136.3H-1789.41M-1996 1136.3V1239.6M-1892.7 1239.6H-1996M-1892.7 1239.6V1342.9M-1892.7 1239.6H-1789.41M-1996 1239.6V1342.9M-1892.7 1342.9H-1996M-1892.7 1342.9V1446.2M-1892.7 1342.9H-1789.41M-1996 1342.9V1446.2M-1892.7 1446.2H-1996M-1892.7 1446.2V1549.5M-1892.7 1446.2H-1789.41M-1996 1446.2V1549.5M-1892.7 1549.5H-1996M-1892.7 1549.5V1652.8M-1892.7 1549.5H-1789.41M-1996 1549.5V1652.8M-1892.7 1652.8H-1996M-1892.7 1652.8V1756.1M-1892.7 1652.8H-1789.41M-1996 1652.8V1756.1M-1892.7 1756.1H-1996M-1892.7 1756.1V1859.4M-1892.7 1756.1H-1789.41M-1996 1756.1V1859.4M-1892.7 1859.4H-1996M-1892.7 1859.4V1962.7M-1892.7 1859.4H-1789.41M-1996 1859.4V1962.7M-1892.7 1962.7H-1996M-1892.7 1962.7V2066M-1892.7 1962.7H-1789.41M-1996 1962.7V2066H-1892.7M-1892.7 2066H-1789.41M-1789.41 0V103.3M-1789.41 0H-1686.11M-1789.41 103.3V206.6M-1789.41 103.3H-1686.11M-1789.41 206.6V309.9M-1789.41 206.6H-1686.11M-1789.41 309.9V413.2M-1789.41 309.9H-1686.11M-1789.41 413.2V516.5M-1789.41 413.2H-1686.11M-1789.41 516.5V619.8M-1789.41 516.5H-1686.11M-1789.41 619.8V723.1M-1789.41 619.8H-1686.11M-1789.41 723.1V826.4M-1789.41 723.1H-1686.11M-1789.41 826.4V929.7M-1789.41 826.4H-1686.11M-1789.41 929.7V1033M-1789.41 929.7H-1686.11M-1789.41 1033V1136.3M-1789.41 1033H-1686.11M-1789.41 1136.3V1239.6M-1789.41 1136.3H-1686.11M-1789.41 1239.6V1342.9M-1789.41 1239.6H-1686.11M-1789.41 1342.9V1446.2M-1789.41 1342.9H-1686.11M-1789.41 1446.2V1549.5M-1789.41 1446.2H-1686.11M-1789.41 1549.5V1652.8M-1789.41 1549.5H-1686.11M-1789.41 1652.8V1756.1M-1789.41 1652.8H-1686.11M-1789.41 1756.1V1859.4M-1789.41 1756.1H-1686.11M-1789.41 1859.4V1962.7M-1789.41 1859.4H-1686.11M-1789.41 1962.7V2066M-1789.41 1962.7H-1686.11M-1789.41 2066H-1686.11M-1686.11 0V103.3M-1686.11 0H-1582.82M-1686.11 103.3V206.6M-1686.11 103.3H-1582.82M-1686.11 206.6V309.9M-1686.11 206.6H-1582.82M-1686.11 309.9V413.2M-1686.11 309.9H-1582.82M-1686.11 413.2V516.5M-1686.11 413.2H-1582.82M-1686.11 516.5V619.8M-1686.11 516.5H-1582.82M-1686.11 619.8V723.1M-1686.11 619.8H-1582.82M-1686.11 723.1V826.4M-1686.11 723.1H-1582.82M-1686.11 826.4V929.7M-1686.11 826.4H-1582.82M-1686.11 929.7V1033M-1686.11 929.7H-1582.82M-1686.11 1033V1136.3M-1686.11 1033H-1582.82M-1686.11 1136.3V1239.6M-1686.11 1136.3H-1582.82M-1686.11 1239.6V1342.9M-1686.11 1239.6H-1582.82M-1686.11 1342.9V1446.2M-1686.11 1342.9H-1582.82M-1686.11 1446.2V1549.5M-1686.11 1446.2H-1582.82M-1686.11 1549.5V1652.8M-1686.11 1549.5H-1582.82M-1686.11 1652.8V1756.1M-1686.11 1652.8H-1582.82M-1686.11 1756.1V1859.4M-1686.11 1756.1H-1582.82M-1686.11 1859.4V1962.7M-1686.11 1859.4H-1582.82M-1686.11 1962.7V2066M-1686.11 1962.7H-1582.82M-1686.11 2066H-1582.82M-1582.82 0V103.3M-1582.82 0H-1479.52M-1582.82 103.3V206.6M-1582.82 103.3H-1479.52M-1582.82 206.6V309.9M-1582.82 206.6H-1479.52M-1582.82 309.9V413.2M-1582.82 309.9H-1479.52M-1582.82 413.2V516.5M-1582.82 413.2H-1479.52M-1582.82 516.5V619.8M-1582.82 516.5H-1479.52M-1582.82 619.8V723.1M-1582.82 619.8H-1479.52M-1582.82 723.1V826.4M-1582.82 723.1H-1479.52M-1582.82 826.4V929.7M-1582.82 826.4H-1479.52M-1582.82 929.7V1033M-1582.82 929.7H-1479.52M-1582.82 1033V1136.3M-1582.82 1033H-1479.52M-1582.82 1136.3V1239.6M-1582.82 1136.3H-1479.52M-1582.82 1239.6V1342.9M-1582.82 1239.6H-1479.52M-1582.82 1342.9V1446.2M-1582.82 1342.9H-1479.52M-1582.82 1446.2V1549.5M-1582.82 1446.2H-1479.52M-1582.82 1549.5V1652.8M-1582.82 1549.5H-1479.52M-1582.82 1652.8V1756.1M-1582.82 1652.8H-1479.52M-1582.82 1756.1V1859.4M-1582.82 1756.1H-1479.52M-1582.82 1859.4V1962.7M-1582.82 1859.4H-1479.52M-1582.82 1962.7V2066M-1582.82 1962.7H-1479.52M-1582.82 2066H-1479.52M-1479.52 0V103.3M-1479.52 0H-1376.23M-1479.52 103.3V206.6M-1479.52 103.3H-1376.23M-1479.52 206.6V309.9M-1479.52 206.6H-1376.23M-1479.52 309.9V413.2M-1479.52 309.9H-1376.23M-1479.52 413.2V516.5M-1479.52 413.2H-1376.23M-1479.52 516.5V619.8M-1479.52 516.5H-1376.23M-1479.52 619.8V723.1M-1479.52 619.8H-1376.23M-1479.52 723.1V826.4M-1479.52 723.1H-1376.23M-1479.52 826.4V929.7M-1479.52 826.4H-1376.23M-1479.52 929.7V1033M-1479.52 929.7H-1376.23M-1479.52 1033V1136.3M-1479.52 1033H-1376.23M-1479.52 1136.3V1239.6M-1479.52 1136.3H-1376.23M-1479.52 1239.6V1342.9M-1479.52 1239.6H-1376.23M-1479.52 1342.9V1446.2M-1479.52 1342.9H-1376.23M-1479.52 1446.2V1549.5M-1479.52 1446.2H-1376.23M-1479.52 1549.5V1652.8M-1479.52 1549.5H-1376.23M-1479.52 1652.8V1756.1M-1479.52 1652.8H-1376.23M-1479.52 1756.1V1859.4M-1479.52 1756.1H-1376.23M-1479.52 1859.4V1962.7M-1479.52 1859.4H-1376.23M-1479.52 1962.7V2066M-1479.52 1962.7H-1376.23M-1479.52 2066H-1376.23M-1376.23 0V103.3M-1376.23 0H-1272.93M-1376.23 103.3V206.6M-1376.23 103.3H-1272.93M-1376.23 206.6V309.9M-1376.23 206.6H-1272.93M-1376.23 309.9V413.2M-1376.23 309.9H-1272.93M-1376.23 413.2V516.5M-1376.23 413.2H-1272.93M-1376.23 516.5V619.8M-1376.23 516.5H-1272.93M-1376.23 619.8V723.1M-1376.23 619.8H-1272.93M-1376.23 723.1V826.4M-1376.23 723.1H-1272.93M-1376.23 826.4V929.7M-1376.23 826.4H-1272.93M-1376.23 929.7V1033M-1376.23 929.7H-1272.93M-1376.23 1033V1136.3M-1376.23 1033H-1272.93M-1376.23 1136.3V1239.6M-1376.23 1136.3H-1272.93M-1376.23 1239.6V1342.9M-1376.23 1239.6H-1272.93M-1376.23 1342.9V1446.2M-1376.23 1342.9H-1272.93M-1376.23 1446.2V1549.5M-1376.23 1446.2H-1272.93M-1376.23 1549.5V1652.8M-1376.23 1549.5H-1272.93M-1376.23 1652.8V1756.1M-1376.23 1652.8H-1272.93M-1376.23 1756.1V1859.4M-1376.23 1756.1H-1272.93M-1376.23 1859.4V1962.7M-1376.23 1859.4H-1272.93M-1376.23 1962.7V2066M-1376.23 1962.7H-1272.93M-1376.23 2066H-1272.93M-1272.93 0V103.3M-1272.93 0H-1169.64M-1272.93 103.3V206.6M-1272.93 103.3H-1169.64M-1272.93 206.6V309.9M-1272.93 206.6H-1169.64M-1272.93 309.9V413.2M-1272.93 309.9H-1169.64M-1272.93 413.2V516.5M-1272.93 413.2H-1169.64M-1272.93 516.5V619.8M-1272.93 516.5H-1169.64M-1272.93 619.8V723.1M-1272.93 619.8H-1169.64M-1272.93 723.1V826.4M-1272.93 723.1H-1169.64M-1272.93 826.4V929.7M-1272.93 826.4H-1169.64M-1272.93 929.7V1033M-1272.93 929.7H-1169.64M-1272.93 1033V1136.3M-1272.93 1033H-1169.64M-1272.93 1136.3V1239.6M-1272.93 1136.3H-1169.64M-1272.93 1239.6V1342.9M-1272.93 1239.6H-1169.64M-1272.93 1342.9V1446.2M-1272.93 1342.9H-1169.64M-1272.93 1446.2V1549.5M-1272.93 1446.2H-1169.64M-1272.93 1549.5V1652.8M-1272.93 1549.5H-1169.64M-1272.93 1652.8V1756.1M-1272.93 1652.8H-1169.64M-1272.93 1756.1V1859.4M-1272.93 1756.1H-1169.64M-1272.93 1859.4V1962.7M-1272.93 1859.4H-1169.64M-1272.93 1962.7V2066M-1272.93 1962.7H-1169.64M-1272.93 2066H-1169.64M-1169.64 0V103.3M-1169.64 0H-1066.34M-1169.64 103.3V206.6M-1169.64 103.3H-1066.34M-1169.64 206.6V309.9M-1169.64 206.6H-1066.34M-1169.64 309.9V413.2M-1169.64 309.9H-1066.34M-1169.64 413.2V516.5M-1169.64 413.2H-1066.34M-1169.64 516.5V619.8M-1169.64 516.5H-1066.34M-1169.64 619.8V723.1M-1169.64 619.8H-1066.34M-1169.64 723.1V826.4M-1169.64 723.1H-1066.34M-1169.64 826.4V929.7M-1169.64 826.4H-1066.34M-1169.64 929.7V1033M-1169.64 929.7H-1066.34M-1169.64 1033V1136.3M-1169.64 1033H-1066.34M-1169.64 1136.3V1239.6M-1169.64 1136.3H-1066.34M-1169.64 1239.6V1342.9M-1169.64 1239.6H-1066.34M-1169.64 1342.9V1446.2M-1169.64 1342.9H-1066.34M-1169.64 1446.2V1549.5M-1169.64 1446.2H-1066.34M-1169.64 1549.5V1652.8M-1169.64 1549.5H-1066.34M-1169.64 1652.8V1756.1M-1169.64 1652.8H-1066.34M-1169.64 1756.1V1859.4M-1169.64 1756.1H-1066.34M-1169.64 1859.4V1962.7M-1169.64 1859.4H-1066.34M-1169.64 1962.7V2066M-1169.64 1962.7H-1066.34M-1169.64 2066H-1066.34M-1066.34 0V103.3M-1066.34 0H-963.046M-1066.34 103.3V206.6M-1066.34 103.3H-963.046M-1066.34 206.6V309.9M-1066.34 206.6H-963.046M-1066.34 309.9V413.2M-1066.34 309.9H-963.046M-1066.34 413.2V516.5M-1066.34 413.2H-963.046M-1066.34 516.5V619.8M-1066.34 516.5H-963.046M-1066.34 619.8V723.1M-1066.34 619.8H-963.046M-1066.34 723.1V826.4M-1066.34 723.1H-963.046M-1066.34 826.4V929.7M-1066.34 826.4H-963.046M-1066.34 929.7V1033M-1066.34 929.7H-963.046M-1066.34 1033V1136.3M-1066.34 1033H-963.046M-1066.34 1136.3V1239.6M-1066.34 1136.3H-963.046M-1066.34 1239.6V1342.9M-1066.34 1239.6H-963.046M-1066.34 1342.9V1446.2M-1066.34 1342.9H-963.046M-1066.34 1446.2V1549.5M-1066.34 1446.2H-963.046M-1066.34 1549.5V1652.8M-1066.34 1549.5H-963.046M-1066.34 1652.8V1756.1M-1066.34 1652.8H-963.046M-1066.34 1756.1V1859.4M-1066.34 1756.1H-963.046M-1066.34 1859.4V1962.7M-1066.34 1859.4H-963.046M-1066.34 1962.7V2066M-1066.34 1962.7H-963.046M-1066.34 2066H-963.046M-963.046 0V103.3M-963.046 0H-859.75M-963.046 103.3V206.6M-963.046 103.3H-859.75M-963.046 206.6V309.9M-963.046 206.6H-859.75M-963.046 309.9V413.2M-963.046 309.9H-859.75M-963.046 413.2V516.5M-963.046 413.2H-859.75M-963.046 516.5V619.8M-963.046 516.5H-859.75M-963.046 619.8V723.1M-963.046 619.8H-859.75M-963.046 723.1V826.4M-963.046 723.1H-859.75M-963.046 826.4V929.7M-963.046 826.4H-859.75M-963.046 929.7V1033M-963.046 929.7H-859.75M-963.046 1033V1136.3M-963.046 1033H-859.75M-963.046 1136.3V1239.6M-963.046 1136.3H-859.75M-963.046 1239.6V1342.9M-963.046 1239.6H-859.75M-963.046 1342.9V1446.2M-963.046 1342.9H-859.75M-963.046 1446.2V1549.5M-963.046 1446.2H-859.75M-963.046 1549.5V1652.8M-963.046 1549.5H-859.75M-963.046 1652.8V1756.1M-963.046 1652.8H-859.75M-963.046 1756.1V1859.4M-963.046 1756.1H-859.75M-963.046 1859.4V1962.7M-963.046 1859.4H-859.75M-963.046 1962.7V2066M-963.046 1962.7H-859.75M-963.046 2066H-859.75M-859.75 0V103.3M-859.75 0H-756.455M-859.75 103.3V206.6M-859.75 103.3H-756.455M-859.75 206.6V309.9M-859.75 206.6H-756.455M-859.75 309.9V413.2M-859.75 309.9H-756.455M-859.75 413.2V516.5M-859.75 413.2H-756.455M-859.75 516.5V619.8M-859.75 516.5H-756.455M-859.75 619.8V723.1M-859.75 619.8H-756.455M-859.75 723.1V826.4M-859.75 723.1H-756.455M-859.75 826.4V929.7M-859.75 826.4H-756.455M-859.75 929.7V1033M-859.75 929.7H-756.455M-859.75 1033V1136.3M-859.75 1033H-756.455M-859.75 1136.3V1239.6M-859.75 1136.3H-756.455M-859.75 1239.6V1342.9M-859.75 1239.6H-756.455M-859.75 1342.9V1446.2M-859.75 1342.9H-756.455M-859.75 1446.2V1549.5M-859.75 1446.2H-756.455M-859.75 1549.5V1652.8M-859.75 1549.5H-756.455M-859.75 1652.8V1756.1M-859.75 1652.8H-756.455M-859.75 1756.1V1859.4M-859.75 1756.1H-756.455M-859.75 1859.4V1962.7M-859.75 1859.4H-756.455M-859.75 1962.7V2066M-859.75 1962.7H-756.455M-859.75 2066H-756.455M-756.455 0V103.3M-756.455 0H-653.159M-756.455 103.3V206.6M-756.455 103.3H-653.159M-756.455 206.6V309.9M-756.455 206.6H-653.159M-756.455 309.9V413.2M-756.455 309.9H-653.159M-756.455 413.2V516.5M-756.455 413.2H-653.159M-756.455 516.5V619.8M-756.455 516.5H-653.159M-756.455 619.8V723.1M-756.455 619.8H-653.159M-756.455 723.1V826.4M-756.455 723.1H-653.159M-756.455 826.4V929.7M-756.455 826.4H-653.159M-756.455 929.7V1033M-756.455 929.7H-653.159M-756.455 1033V1136.3M-756.455 1033H-653.159M-756.455 1136.3V1239.6M-756.455 1136.3H-653.159M-756.455 1239.6V1342.9M-756.455 1239.6H-653.159M-756.455 1342.9V1446.2M-756.455 1342.9H-653.159M-756.455 1446.2V1549.5M-756.455 1446.2H-653.159M-756.455 1549.5V1652.8M-756.455 1549.5H-653.159M-756.455 1652.8V1756.1M-756.455 1652.8H-653.159M-756.455 1756.1V1859.4M-756.455 1756.1H-653.159M-756.455 1859.4V1962.7M-756.455 1859.4H-653.159M-756.455 1962.7V2066M-756.455 1962.7H-653.159M-756.455 2066H-653.159M-653.159 0V103.3M-653.159 0H-549.864M-653.159 103.3V206.6M-653.159 103.3H-549.864M-653.159 206.6V309.9M-653.159 206.6H-549.864M-653.159 309.9V413.2M-653.159 309.9H-549.864M-653.159 413.2V516.5M-653.159 413.2H-549.864M-653.159 516.5V619.8M-653.159 516.5H-549.864M-653.159 619.8V723.1M-653.159 619.8H-549.864M-653.159 723.1V826.4M-653.159 723.1H-549.864M-653.159 826.4V929.7M-653.159 826.4H-549.864M-653.159 929.7V1033M-653.159 929.7H-549.864M-653.159 1033V1136.3M-653.159 1033H-549.864M-653.159 1136.3V1239.6M-653.159 1136.3H-549.864M-653.159 1239.6V1342.9M-653.159 1239.6H-549.864M-653.159 1342.9V1446.2M-653.159 1342.9H-549.864M-653.159 1446.2V1549.5M-653.159 1446.2H-549.864M-653.159 1549.5V1652.8M-653.159 1549.5H-549.864M-653.159 1652.8V1756.1M-653.159 1652.8H-549.864M-653.159 1756.1V1859.4M-653.159 1756.1H-549.864M-653.159 1859.4V1962.7M-653.159 1859.4H-549.864M-653.159 1962.7V2066M-653.159 1962.7H-549.864M-653.159 2066H-549.864M-549.864 0V103.3M-549.864 0H-446.568M-549.864 103.3V206.6M-549.864 103.3H-446.568M-549.864 206.6V309.9M-549.864 206.6H-446.568M-549.864 309.9V413.2M-549.864 309.9H-446.568M-549.864 413.2V516.5M-549.864 413.2H-446.568M-549.864 516.5V619.8M-549.864 516.5H-446.568M-549.864 619.8V723.1M-549.864 619.8H-446.568M-549.864 723.1V826.4M-549.864 723.1H-446.568M-549.864 826.4V929.7M-549.864 826.4H-446.568M-549.864 929.7V1033M-549.864 929.7H-446.568M-549.864 1033V1136.3M-549.864 1033H-446.568M-549.864 1136.3V1239.6M-549.864 1136.3H-446.568M-549.864 1239.6V1342.9M-549.864 1239.6H-446.568M-549.864 1342.9V1446.2M-549.864 1342.9H-446.568M-549.864 1446.2V1549.5M-549.864 1446.2H-446.568M-549.864 1549.5V1652.8M-549.864 1549.5H-446.568M-549.864 1652.8V1756.1M-549.864 1652.8H-446.568M-549.864 1756.1V1859.4M-549.864 1756.1H-446.568M-549.864 1859.4V1962.7M-549.864 1859.4H-446.568M-549.864 1962.7V2066M-549.864 1962.7H-446.568M-549.864 2066H-446.568M-446.568 0V103.3M-446.568 0H-343.273M-446.568 103.3V206.6M-446.568 103.3H-343.273M-446.568 206.6V309.9M-446.568 206.6H-343.273M-446.568 309.9V413.2M-446.568 309.9H-343.273M-446.568 413.2V516.5M-446.568 413.2H-343.273M-446.568 516.5V619.8M-446.568 516.5H-343.273M-446.568 619.8V723.1M-446.568 619.8H-343.273M-446.568 723.1V826.4M-446.568 723.1H-343.273M-446.568 826.4V929.7M-446.568 826.4H-343.273M-446.568 929.7V1033M-446.568 929.7H-343.273M-446.568 1033V1136.3M-446.568 1033H-343.273M-446.568 1136.3V1239.6M-446.568 1136.3H-343.273M-446.568 1239.6V1342.9M-446.568 1239.6H-343.273M-446.568 1342.9V1446.2M-446.568 1342.9H-343.273M-446.568 1446.2V1549.5M-446.568 1446.2H-343.273M-446.568 1549.5V1652.8M-446.568 1549.5H-343.273M-446.568 1652.8V1756.1M-446.568 1652.8H-343.273M-446.568 1756.1V1859.4M-446.568 1756.1H-343.273M-446.568 1859.4V1962.7M-446.568 1859.4H-343.273M-446.568 1962.7V2066M-446.568 1962.7H-343.273M-446.568 2066H-343.273M-343.273 0V103.3M-343.273 0H-239.977M-343.273 103.3V206.6M-343.273 103.3H-239.977M-343.273 206.6V309.9M-343.273 206.6H-239.977M-343.273 309.9V413.2M-343.273 309.9H-239.977M-343.273 413.2V516.5M-343.273 413.2H-239.977M-343.273 516.5V619.8M-343.273 516.5H-239.977M-343.273 619.8V723.1M-343.273 619.8H-239.977M-343.273 723.1V826.4M-343.273 723.1H-239.977M-343.273 826.4V929.7M-343.273 826.4H-239.977M-343.273 929.7V1033M-343.273 929.7H-239.977M-343.273 1033V1136.3M-343.273 1033H-239.977M-343.273 1136.3V1239.6M-343.273 1136.3H-239.977M-343.273 1239.6V1342.9M-343.273 1239.6H-239.977M-343.273 1342.9V1446.2M-343.273 1342.9H-239.977M-343.273 1446.2V1549.5M-343.273 1446.2H-239.977M-343.273 1549.5V1652.8M-343.273 1549.5H-239.977M-343.273 1652.8V1756.1M-343.273 1652.8H-239.977M-343.273 1756.1V1859.4M-343.273 1756.1H-239.977M-343.273 1859.4V1962.7M-343.273 1859.4H-239.977M-343.273 1962.7V2066M-343.273 1962.7H-239.977M-343.273 2066H-239.977M-239.977 0V103.3M-239.977 0H-136.682M-239.977 103.3V206.6M-239.977 103.3H-136.682M-239.977 206.6V309.9M-239.977 206.6H-136.682M-239.977 309.9V413.2M-239.977 309.9H-136.682M-239.977 413.2V516.5M-239.977 413.2H-136.682M-239.977 516.5V619.8M-239.977 516.5H-136.682M-239.977 619.8V723.1M-239.977 619.8H-136.682M-239.977 723.1V826.4M-239.977 723.1H-136.682M-239.977 826.4V929.7M-239.977 826.4H-136.682M-239.977 929.7V1033M-239.977 929.7H-136.682M-239.977 1033V1136.3M-239.977 1033H-136.682M-239.977 1136.3V1239.6M-239.977 1136.3H-136.682M-239.977 1239.6V1342.9M-239.977 1239.6H-136.682M-239.977 1342.9V1446.2M-239.977 1342.9H-136.682M-239.977 1446.2V1549.5M-239.977 1446.2H-136.682M-239.977 1549.5V1652.8M-239.977 1549.5H-136.682M-239.977 1652.8V1756.1M-239.977 1652.8H-136.682M-239.977 1756.1V1859.4M-239.977 1756.1H-136.682M-239.977 1859.4V1962.7M-239.977 1859.4H-136.682M-239.977 1962.7V2066M-239.977 1962.7H-136.682M-239.977 2066H-136.682M-136.682 0V103.3M-136.682 0H-33.3864M-136.682 103.3V206.6M-136.682 103.3H-33.3864M-136.682 206.6V309.9M-136.682 206.6H-33.3864M-136.682 309.9V413.2M-136.682 309.9H-33.3864M-136.682 413.2V516.5M-136.682 413.2H-33.3864M-136.682 516.5V619.8M-136.682 516.5H-33.3864M-136.682 619.8V723.1M-136.682 619.8H-33.3864M-136.682 723.1V826.4M-136.682 723.1H-33.3864M-136.682 826.4V929.7M-136.682 826.4H-33.3864M-136.682 929.7V1033M-136.682 929.7H-33.3864M-136.682 1033V1136.3M-136.682 1033H-33.3864M-136.682 1136.3V1239.6M-136.682 1136.3H-33.3864M-136.682 1239.6V1342.9M-136.682 1239.6H-33.3864M-136.682 1342.9V1446.2M-136.682 1342.9H-33.3864M-136.682 1446.2V1549.5M-136.682 1446.2H-33.3864M-136.682 1549.5V1652.8M-136.682 1549.5H-33.3864M-136.682 1652.8V1756.1M-136.682 1652.8H-33.3864M-136.682 1756.1V1859.4M-136.682 1756.1H-33.3864M-136.682 1859.4V1962.7M-136.682 1859.4H-33.3864M-136.682 1962.7V2066M-136.682 1962.7H-33.3864M-136.682 2066H-33.3864M-33.3864 0V103.3M-33.3864 0H69.9089M-33.3864 103.3V206.6M-33.3864 103.3H69.9089M-33.3864 206.6V309.9M-33.3864 206.6H69.9089M-33.3864 309.9V413.2M-33.3864 309.9H69.9089M-33.3864 413.2V516.5M-33.3864 413.2H69.9089M-33.3864 516.5V619.8M-33.3864 516.5H69.9089M-33.3864 619.8V723.1M-33.3864 619.8H69.9089M-33.3864 723.1V826.4M-33.3864 723.1H69.9089M-33.3864 826.4V929.7M-33.3864 826.4H69.9089M-33.3864 929.7V1033M-33.3864 929.7H69.9089M-33.3864 1033V1136.3M-33.3864 1033H69.9089M-33.3864 1136.3V1239.6M-33.3864 1136.3H69.9089M-33.3864 1239.6V1342.9M-33.3864 1239.6H69.9089M-33.3864 1342.9V1446.2M-33.3864 1342.9H69.9089M-33.3864 1446.2V1549.5M-33.3864 1446.2H69.9089M-33.3864 1549.5V1652.8M-33.3864 1549.5H69.9089M-33.3864 1652.8V1756.1M-33.3864 1652.8H69.9089M-33.3864 1756.1V1859.4M-33.3864 1756.1H69.9089M-33.3864 1859.4V1962.7M-33.3864 1859.4H69.9089M-33.3864 1962.7V2066M-33.3864 1962.7H69.9089M-33.3864 2066H69.9089M69.9089 0V103.3M69.9089 0H173.205M69.9089 103.3V206.6M69.9089 103.3H173.205M69.9089 206.6V309.9M69.9089 206.6H173.205M69.9089 309.9V413.2M69.9089 309.9H173.205M69.9089 413.2V516.5M69.9089 413.2H173.205M69.9089 516.5V619.8M69.9089 516.5H173.205M69.9089 619.8V723.1M69.9089 619.8H173.205M69.9089 723.1V826.4M69.9089 723.1H173.205M69.9089 826.4V929.7M69.9089 826.4H173.205M69.9089 929.7V1033M69.9089 929.7H173.205M69.9089 1033V1136.3M69.9089 1033H173.205M69.9089 1136.3V1239.6M69.9089 1136.3H173.205M69.9089 1239.6V1342.9M69.9089 1239.6H173.205M69.9089 1342.9V1446.2M69.9089 1342.9H173.205M69.9089 1446.2V1549.5M69.9089 1446.2H173.205M69.9089 1549.5V1652.8M69.9089 1549.5H173.205M69.9089 1652.8V1756.1M69.9089 1652.8H173.205M69.9089 1756.1V1859.4M69.9089 1756.1H173.205M69.9089 1859.4V1962.7M69.9089 1859.4H173.205M69.9089 1962.7V2066M69.9089 1962.7H173.205M69.9089 2066H173.205M173.205 0V103.3M173.205 0H276.5M173.205 103.3V206.6M173.205 103.3H276.5M173.205 206.6V309.9M173.205 206.6H276.5M173.205 309.9V413.2M173.205 309.9H276.5M173.205 413.2V516.5M173.205 413.2H276.5M173.205 516.5V619.8M173.205 516.5H276.5M173.205 619.8V723.1M173.205 619.8H276.5M173.205 723.1V826.4M173.205 723.1H276.5M173.205 826.4V929.7M173.205 826.4H276.5M173.205 929.7V1033M173.205 929.7H276.5M173.205 1033V1136.3M173.205 1033H276.5M173.205 1136.3V1239.6M173.205 1136.3H276.5M173.205 1239.6V1342.9M173.205 1239.6H276.5M173.205 1342.9V1446.2M173.205 1342.9H276.5M173.205 1446.2V1549.5M173.205 1446.2H276.5M173.205 1549.5V1652.8M173.205 1549.5H276.5M173.205 1652.8V1756.1M173.205 1652.8H276.5M173.205 1756.1V1859.4M173.205 1756.1H276.5M173.205 1859.4V1962.7M173.205 1859.4H276.5M173.205 1962.7V2066M173.205 1962.7H276.5M173.205 2066H276.5M276.5 0V103.3M276.5 0H379.795M276.5 103.3V206.6M276.5 103.3H379.795M276.5 206.6V309.9M276.5 206.6H379.795M276.5 309.9V413.2M276.5 309.9H379.795M276.5 413.2V516.5M276.5 413.2H379.795M276.5 516.5V619.8M276.5 516.5H379.795M276.5 619.8V723.1M276.5 619.8H379.795M276.5 723.1V826.4M276.5 723.1H379.795M276.5 826.4V929.7M276.5 826.4H379.795M276.5 929.7V1033M276.5 929.7H379.795M276.5 1033V1136.3M276.5 1033H379.795M276.5 1136.3V1239.6M276.5 1136.3H379.795M276.5 1239.6V1342.9M276.5 1239.6H379.795M276.5 1342.9V1446.2M276.5 1342.9H379.795M276.5 1446.2V1549.5M276.5 1446.2H379.795M276.5 1549.5V1652.8M276.5 1549.5H379.795M276.5 1652.8V1756.1M276.5 1652.8H379.795M276.5 1756.1V1859.4M276.5 1756.1H379.795M276.5 1859.4V1962.7M276.5 1859.4H379.795M276.5 1962.7V2066M276.5 1962.7H379.795M276.5 2066H379.795M379.795 0V103.3M379.795 0H483.091M379.795 103.3V206.6M379.795 103.3H483.091M379.795 206.6V309.9M379.795 206.6H483.091M379.795 309.9V413.2M379.795 309.9H483.091M379.795 413.2V516.5M379.795 413.2H483.091M379.795 516.5V619.8M379.795 516.5H483.091M379.795 619.8V723.1M379.795 619.8H483.091M379.795 723.1V826.4M379.795 723.1H483.091M379.795 826.4V929.7M379.795 826.4H483.091M379.795 929.7V1033M379.795 929.7H483.091M379.795 1033V1136.3M379.795 1033H483.091M379.795 1136.3V1239.6M379.795 1136.3H483.091M379.795 1239.6V1342.9M379.795 1239.6H483.091M379.795 1342.9V1446.2M379.795 1342.9H483.091M379.795 1446.2V1549.5M379.795 1446.2H483.091M379.795 1549.5V1652.8M379.795 1549.5H483.091M379.795 1652.8V1756.1M379.795 1652.8H483.091M379.795 1756.1V1859.4M379.795 1756.1H483.091M379.795 1859.4V1962.7M379.795 1859.4H483.091M379.795 1962.7V2066M379.795 1962.7H483.091M379.795 2066H483.091M483.091 0V103.3M483.091 0H586.386M483.091 103.3V206.6M483.091 103.3H586.386M483.091 206.6V309.9M483.091 206.6H586.386M483.091 309.9V413.2M483.091 309.9H586.386M483.091 413.2V516.5M483.091 413.2H586.386M483.091 516.5V619.8M483.091 516.5H586.386M483.091 619.8V723.1M483.091 619.8H586.386M483.091 723.1V826.4M483.091 723.1H586.386M483.091 826.4V929.7M483.091 826.4H586.386M483.091 929.7V1033M483.091 929.7H586.386M483.091 1033V1136.3M483.091 1033H586.386M483.091 1136.3V1239.6M483.091 1136.3H586.386M483.091 1239.6V1342.9M483.091 1239.6H586.386M483.091 1342.9V1446.2M483.091 1342.9H586.386M483.091 1446.2V1549.5M483.091 1446.2H586.386M483.091 1549.5V1652.8M483.091 1549.5H586.386M483.091 1652.8V1756.1M483.091 1652.8H586.386M483.091 1756.1V1859.4M483.091 1756.1H586.386M483.091 1859.4V1962.7M483.091 1859.4H586.386M483.091 1962.7V2066M483.091 1962.7H586.386M483.091 2066H586.386M586.386 0V103.3M586.386 0H689.682M586.386 103.3V206.6M586.386 103.3H689.682M586.386 206.6V309.9M586.386 206.6H689.682M586.386 309.9V413.2M586.386 309.9H689.682M586.386 413.2V516.5M586.386 413.2H689.682M586.386 516.5V619.8M586.386 516.5H689.682M586.386 619.8V723.1M586.386 619.8H689.682M586.386 723.1V826.4M586.386 723.1H689.682M586.386 826.4V929.7M586.386 826.4H689.682M586.386 929.7V1033M586.386 929.7H689.682M586.386 1033V1136.3M586.386 1033H689.682M586.386 1136.3V1239.6M586.386 1136.3H689.682M586.386 1239.6V1342.9M586.386 1239.6H689.682M586.386 1342.9V1446.2M586.386 1342.9H689.682M586.386 1446.2V1549.5M586.386 1446.2H689.682M586.386 1549.5V1652.8M586.386 1549.5H689.682M586.386 1652.8V1756.1M586.386 1652.8H689.682M586.386 1756.1V1859.4M586.386 1756.1H689.682M586.386 1859.4V1962.7M586.386 1859.4H689.682M586.386 1962.7V2066M586.386 1962.7H689.682M586.386 2066H689.682M689.682 0V103.3M689.682 0H792.977M689.682 103.3V206.6M689.682 103.3H792.977M689.682 206.6V309.9M689.682 206.6H792.977M689.682 309.9V413.2M689.682 309.9H792.977M689.682 413.2V516.5M689.682 413.2H792.977M689.682 516.5V619.8M689.682 516.5H792.977M689.682 619.8V723.1M689.682 619.8H792.977M689.682 723.1V826.4M689.682 723.1H792.977M689.682 826.4V929.7M689.682 826.4H792.977M689.682 929.7V1033M689.682 929.7H792.977M689.682 1033V1136.3M689.682 1033H792.977M689.682 1136.3V1239.6M689.682 1136.3H792.977M689.682 1239.6V1342.9M689.682 1239.6H792.977M689.682 1342.9V1446.2M689.682 1342.9H792.977M689.682 1446.2V1549.5M689.682 1446.2H792.977M689.682 1549.5V1652.8M689.682 1549.5H792.977M689.682 1652.8V1756.1M689.682 1652.8H792.977M689.682 1756.1V1859.4M689.682 1756.1H792.977M689.682 1859.4V1962.7M689.682 1859.4H792.977M689.682 1962.7V2066M689.682 1962.7H792.977M689.682 2066H792.977M792.977 0V103.3M792.977 0H896.273M792.977 103.3V206.6M792.977 103.3H896.273M792.977 206.6V309.9M792.977 206.6H896.273M792.977 309.9V413.2M792.977 309.9H896.273M792.977 413.2V516.5M792.977 413.2H896.273M792.977 516.5V619.8M792.977 516.5H896.273M792.977 619.8V723.1M792.977 619.8H896.273M792.977 723.1V826.4M792.977 723.1H896.273M792.977 826.4V929.7M792.977 826.4H896.273M792.977 929.7V1033M792.977 929.7H896.273M792.977 1033V1136.3M792.977 1033H896.273M792.977 1136.3V1239.6M792.977 1136.3H896.273M792.977 1239.6V1342.9M792.977 1239.6H896.273M792.977 1342.9V1446.2M792.977 1342.9H896.273M792.977 1446.2V1549.5M792.977 1446.2H896.273M792.977 1549.5V1652.8M792.977 1549.5H896.273M792.977 1652.8V1756.1M792.977 1652.8H896.273M792.977 1756.1V1859.4M792.977 1756.1H896.273M792.977 1859.4V1962.7M792.977 1859.4H896.273M792.977 1962.7V2066M792.977 1962.7H896.273M792.977 2066H896.273M896.273 0V103.3M896.273 0H999.568M896.273 103.3V206.6M896.273 103.3H999.568M896.273 206.6V309.9M896.273 206.6H999.568M896.273 309.9V413.2M896.273 309.9H999.568M896.273 413.2V516.5M896.273 413.2H999.568M896.273 516.5V619.8M896.273 516.5H999.568M896.273 619.8V723.1M896.273 619.8H999.568M896.273 723.1V826.4M896.273 723.1H999.568M896.273 826.4V929.7M896.273 826.4H999.568M896.273 929.7V1033M896.273 929.7H999.568M896.273 1033V1136.3M896.273 1033H999.568M896.273 1136.3V1239.6M896.273 1136.3H999.568M896.273 1239.6V1342.9M896.273 1239.6H999.568M896.273 1342.9V1446.2M896.273 1342.9H999.568M896.273 1446.2V1549.5M896.273 1446.2H999.568M896.273 1549.5V1652.8M896.273 1549.5H999.568M896.273 1652.8V1756.1M896.273 1652.8H999.568M896.273 1756.1V1859.4M896.273 1756.1H999.568M896.273 1859.4V1962.7M896.273 1859.4H999.568M896.273 1962.7V2066M896.273 1962.7H999.568M896.273 2066H999.568M999.568 0V103.3M999.568 0H1102.86M999.568 103.3V206.6M999.568 103.3H1102.86M999.568 206.6V309.9M999.568 206.6H1102.86M999.568 309.9V413.2M999.568 309.9H1102.86M999.568 413.2V516.5M999.568 413.2H1102.86M999.568 516.5V619.8M999.568 516.5H1102.86M999.568 619.8V723.1M999.568 619.8H1102.86M999.568 723.1V826.4M999.568 723.1H1102.86M999.568 826.4V929.7M999.568 826.4H1102.86M999.568 929.7V1033M999.568 929.7H1102.86M999.568 1033V1136.3M999.568 1033H1102.86M999.568 1136.3V1239.6M999.568 1136.3H1102.86M999.568 1239.6V1342.9M999.568 1239.6H1102.86M999.568 1342.9V1446.2M999.568 1342.9H1102.86M999.568 1446.2V1549.5M999.568 1446.2H1102.86M999.568 1549.5V1652.8M999.568 1549.5H1102.86M999.568 1652.8V1756.1M999.568 1652.8H1102.86M999.568 1756.1V1859.4M999.568 1756.1H1102.86M999.568 1859.4V1962.7M999.568 1859.4H1102.86M999.568 1962.7V2066M999.568 1962.7H1102.86M999.568 2066H1102.86M1102.86 0V103.3M1102.86 0H1206.16M1102.86 103.3V206.6M1102.86 103.3H1206.16M1102.86 206.6V309.9M1102.86 206.6H1206.16M1102.86 309.9V413.2M1102.86 309.9H1206.16M1102.86 413.2V516.5M1102.86 413.2H1206.16M1102.86 516.5V619.8M1102.86 516.5H1206.16M1102.86 619.8V723.1M1102.86 619.8H1206.16M1102.86 723.1V826.4M1102.86 723.1H1206.16M1102.86 826.4V929.7M1102.86 826.4H1206.16M1102.86 929.7V1033M1102.86 929.7H1206.16M1102.86 1033V1136.3M1102.86 1033H1206.16M1102.86 1136.3V1239.6M1102.86 1136.3H1206.16M1102.86 1239.6V1342.9M1102.86 1239.6H1206.16M1102.86 1342.9V1446.2M1102.86 1342.9H1206.16M1102.86 1446.2V1549.5M1102.86 1446.2H1206.16M1102.86 1549.5V1652.8M1102.86 1549.5H1206.16M1102.86 1652.8V1756.1M1102.86 1652.8H1206.16M1102.86 1756.1V1859.4M1102.86 1756.1H1206.16M1102.86 1859.4V1962.7M1102.86 1859.4H1206.16M1102.86 1962.7V2066M1102.86 1962.7H1206.16M1102.86 2066H1206.16M1206.16 0V103.3M1206.16 0H1309.45M1206.16 103.3V206.6M1206.16 103.3H1309.45M1206.16 206.6V309.9M1206.16 206.6H1309.45M1206.16 309.9V413.2M1206.16 309.9H1309.45M1206.16 413.2V516.5M1206.16 413.2H1309.45M1206.16 516.5V619.8M1206.16 516.5H1309.45M1206.16 619.8V723.1M1206.16 619.8H1309.45M1206.16 723.1V826.4M1206.16 723.1H1309.45M1206.16 826.4V929.7M1206.16 826.4H1309.45M1206.16 929.7V1033M1206.16 929.7H1309.45M1206.16 1033V1136.3M1206.16 1033H1309.45M1206.16 1136.3V1239.6M1206.16 1136.3H1309.45M1206.16 1239.6V1342.9M1206.16 1239.6H1309.45M1206.16 1342.9V1446.2M1206.16 1342.9H1309.45M1206.16 1446.2V1549.5M1206.16 1446.2H1309.45M1206.16 1549.5V1652.8M1206.16 1549.5H1309.45M1206.16 1652.8V1756.1M1206.16 1652.8H1309.45M1206.16 1756.1V1859.4M1206.16 1756.1H1309.45M1206.16 1859.4V1962.7M1206.16 1859.4H1309.45M1206.16 1962.7V2066M1206.16 1962.7H1309.45M1206.16 2066H1309.45M1309.45 0V103.3M1309.45 0H1412.75M1309.45 103.3V206.6M1309.45 103.3H1412.75M1309.45 206.6V309.9M1309.45 206.6H1412.75M1309.45 309.9V413.2M1309.45 309.9H1412.75M1309.45 413.2V516.5M1309.45 413.2H1412.75M1309.45 516.5V619.8M1309.45 516.5H1412.75M1309.45 619.8V723.1M1309.45 619.8H1412.75M1309.45 723.1V826.4M1309.45 723.1H1412.75M1309.45 826.4V929.7M1309.45 826.4H1412.75M1309.45 929.7V1033M1309.45 929.7H1412.75M1309.45 1033V1136.3M1309.45 1033H1412.75M1309.45 1136.3V1239.6M1309.45 1136.3H1412.75M1309.45 1239.6V1342.9M1309.45 1239.6H1412.75M1309.45 1342.9V1446.2M1309.45 1342.9H1412.75M1309.45 1446.2V1549.5M1309.45 1446.2H1412.75M1309.45 1549.5V1652.8M1309.45 1549.5H1412.75M1309.45 1652.8V1756.1M1309.45 1652.8H1412.75M1309.45 1756.1V1859.4M1309.45 1756.1H1412.75M1309.45 1859.4V1962.7M1309.45 1859.4H1412.75M1309.45 1962.7V2066M1309.45 1962.7H1412.75M1309.45 2066H1412.75M1412.75 0V103.3M1412.75 0H1516.05M1412.75 103.3V206.6M1412.75 103.3H1516.05M1412.75 206.6V309.9M1412.75 206.6H1516.05M1412.75 309.9V413.2M1412.75 309.9H1516.05M1412.75 413.2V516.5M1412.75 413.2H1516.05M1412.75 516.5V619.8M1412.75 516.5H1516.05M1412.75 619.8V723.1M1412.75 619.8H1516.05M1412.75 723.1V826.4M1412.75 723.1H1516.05M1412.75 826.4V929.7M1412.75 826.4H1516.05M1412.75 929.7V1033M1412.75 929.7H1516.05M1412.75 1033V1136.3M1412.75 1033H1516.05M1412.75 1136.3V1239.6M1412.75 1136.3H1516.05M1412.75 1239.6V1342.9M1412.75 1239.6H1516.05M1412.75 1342.9V1446.2M1412.75 1342.9H1516.05M1412.75 1446.2V1549.5M1412.75 1446.2H1516.05M1412.75 1549.5V1652.8M1412.75 1549.5H1516.05M1412.75 1652.8V1756.1M1412.75 1652.8H1516.05M1412.75 1756.1V1859.4M1412.75 1756.1H1516.05M1412.75 1859.4V1962.7M1412.75 1859.4H1516.05M1412.75 1962.7V2066M1412.75 1962.7H1516.05M1412.75 2066H1516.05M1516.05 0V103.3M1516.05 0H1619.34M1516.05 103.3V206.6M1516.05 103.3H1619.34M1516.05 206.6V309.9M1516.05 206.6H1619.34M1516.05 309.9V413.2M1516.05 309.9H1619.34M1516.05 413.2V516.5M1516.05 413.2H1619.34M1516.05 516.5V619.8M1516.05 516.5H1619.34M1516.05 619.8V723.1M1516.05 619.8H1619.34M1516.05 723.1V826.4M1516.05 723.1H1619.34M1516.05 826.4V929.7M1516.05 826.4H1619.34M1516.05 929.7V1033M1516.05 929.7H1619.34M1516.05 1033V1136.3M1516.05 1033H1619.34M1516.05 1136.3V1239.6M1516.05 1136.3H1619.34M1516.05 1239.6V1342.9M1516.05 1239.6H1619.34M1516.05 1342.9V1446.2M1516.05 1342.9H1619.34M1516.05 1446.2V1549.5M1516.05 1446.2H1619.34M1516.05 1549.5V1652.8M1516.05 1549.5H1619.34M1516.05 1652.8V1756.1M1516.05 1652.8H1619.34M1516.05 1756.1V1859.4M1516.05 1756.1H1619.34M1516.05 1859.4V1962.7M1516.05 1859.4H1619.34M1516.05 1962.7V2066M1516.05 1962.7H1619.34M1516.05 2066H1619.34M1619.34 0V103.3M1619.34 0H1722.64M1619.34 103.3V206.6M1619.34 103.3H1722.64M1619.34 206.6V309.9M1619.34 206.6H1722.64M1619.34 309.9V413.2M1619.34 309.9H1722.64M1619.34 413.2V516.5M1619.34 413.2H1722.64M1619.34 516.5V619.8M1619.34 516.5H1722.64M1619.34 619.8V723.1M1619.34 619.8H1722.64M1619.34 723.1V826.4M1619.34 723.1H1722.64M1619.34 826.4V929.7M1619.34 826.4H1722.64M1619.34 929.7V1033M1619.34 929.7H1722.64M1619.34 1033V1136.3M1619.34 1033H1722.64M1619.34 1136.3V1239.6M1619.34 1136.3H1722.64M1619.34 1239.6V1342.9M1619.34 1239.6H1722.64M1619.34 1342.9V1446.2M1619.34 1342.9H1722.64M1619.34 1446.2V1549.5M1619.34 1446.2H1722.64M1619.34 1549.5V1652.8M1619.34 1549.5H1722.64M1619.34 1652.8V1756.1M1619.34 1652.8H1722.64M1619.34 1756.1V1859.4M1619.34 1756.1H1722.64M1619.34 1859.4V1962.7M1619.34 1859.4H1722.64M1619.34 1962.7V2066M1619.34 1962.7H1722.64M1619.34 2066H1722.64M1722.64 0V103.3M1722.64 0H1825.93M1722.64 103.3V206.6M1722.64 103.3H1825.93M1722.64 206.6V309.9M1722.64 206.6H1825.93M1722.64 309.9V413.2M1722.64 309.9H1825.93M1722.64 413.2V516.5M1722.64 413.2H1825.93M1722.64 516.5V619.8M1722.64 516.5H1825.93M1722.64 619.8V723.1M1722.64 619.8H1825.93M1722.64 723.1V826.4M1722.64 723.1H1825.93M1722.64 826.4V929.7M1722.64 826.4H1825.93M1722.64 929.7V1033M1722.64 929.7H1825.93M1722.64 1033V1136.3M1722.64 1033H1825.93M1722.64 1136.3V1239.6M1722.64 1136.3H1825.93M1722.64 1239.6V1342.9M1722.64 1239.6H1825.93M1722.64 1342.9V1446.2M1722.64 1342.9H1825.93M1722.64 1446.2V1549.5M1722.64 1446.2H1825.93M1722.64 1549.5V1652.8M1722.64 1549.5H1825.93M1722.64 1652.8V1756.1M1722.64 1652.8H1825.93M1722.64 1756.1V1859.4M1722.64 1756.1H1825.93M1722.64 1859.4V1962.7M1722.64 1859.4H1825.93M1722.64 1962.7V2066M1722.64 1962.7H1825.93M1722.64 2066H1825.93M1825.93 0V103.3M1825.93 0H1929.23M1825.93 103.3V206.6M1825.93 103.3H1929.23M1825.93 206.6V309.9M1825.93 206.6H1929.23M1825.93 309.9V413.2M1825.93 309.9H1929.23M1825.93 413.2V516.5M1825.93 413.2H1929.23M1825.93 516.5V619.8M1825.93 516.5H1929.23M1825.93 619.8V723.1M1825.93 619.8H1929.23M1825.93 723.1V826.4M1825.93 723.1H1929.23M1825.93 826.4V929.7M1825.93 826.4H1929.23M1825.93 929.7V1033M1825.93 929.7H1929.23M1825.93 1033V1136.3M1825.93 1033H1929.23M1825.93 1136.3V1239.6M1825.93 1136.3H1929.23M1825.93 1239.6V1342.9M1825.93 1239.6H1929.23M1825.93 1342.9V1446.2M1825.93 1342.9H1929.23M1825.93 1446.2V1549.5M1825.93 1446.2H1929.23M1825.93 1549.5V1652.8M1825.93 1549.5H1929.23M1825.93 1652.8V1756.1M1825.93 1652.8H1929.23M1825.93 1756.1V1859.4M1825.93 1756.1H1929.23M1825.93 1859.4V1962.7M1825.93 1859.4H1929.23M1825.93 1962.7V2066M1825.93 1962.7H1929.23M1825.93 2066H1929.23M1929.23 0V103.3M1929.23 0H2032.52M1929.23 103.3V206.6M1929.23 103.3H2032.52M1929.23 206.6V309.9M1929.23 206.6H2032.52M1929.23 309.9V413.2M1929.23 309.9H2032.52M1929.23 413.2V516.5M1929.23 413.2H2032.52M1929.23 516.5V619.8M1929.23 516.5H2032.52M1929.23 619.8V723.1M1929.23 619.8H2032.52M1929.23 723.1V826.4M1929.23 723.1H2032.52M1929.23 826.4V929.7M1929.23 826.4H2032.52M1929.23 929.7V1033M1929.23 929.7H2032.52M1929.23 1033V1136.3M1929.23 1033H2032.52M1929.23 1136.3V1239.6M1929.23 1136.3H2032.52M1929.23 1239.6V1342.9M1929.23 1239.6H2032.52M1929.23 1342.9V1446.2M1929.23 1342.9H2032.52M1929.23 1446.2V1549.5M1929.23 1446.2H2032.52M1929.23 1549.5V1652.8M1929.23 1549.5H2032.52M1929.23 1652.8V1756.1M1929.23 1652.8H2032.52M1929.23 1756.1V1859.4M1929.23 1756.1H2032.52M1929.23 1859.4V1962.7M1929.23 1859.4H2032.52M1929.23 1962.7V2066M1929.23 1962.7H2032.52M1929.23 2066H2032.52M2032.52 0V103.3M2032.52 0H2135.82M2032.52 103.3V206.6M2032.52 103.3H2135.82M2032.52 206.6V309.9M2032.52 206.6H2135.82M2032.52 309.9V413.2M2032.52 309.9H2135.82M2032.52 413.2V516.5M2032.52 413.2H2135.82M2032.52 516.5V619.8M2032.52 516.5H2135.82M2032.52 619.8V723.1M2032.52 619.8H2135.82M2032.52 723.1V826.4M2032.52 723.1H2135.82M2032.52 826.4V929.7M2032.52 826.4H2135.82M2032.52 929.7V1033M2032.52 929.7H2135.82M2032.52 1033V1136.3M2032.52 1033H2135.82M2032.52 1136.3V1239.6M2032.52 1136.3H2135.82M2032.52 1239.6V1342.9M2032.52 1239.6H2135.82M2032.52 1342.9V1446.2M2032.52 1342.9H2135.82M2032.52 1446.2V1549.5M2032.52 1446.2H2135.82M2032.52 1549.5V1652.8M2032.52 1549.5H2135.82M2032.52 1652.8V1756.1M2032.52 1652.8H2135.82M2032.52 1756.1V1859.4M2032.52 1756.1H2135.82M2032.52 1859.4V1962.7M2032.52 1859.4H2135.82M2032.52 1962.7V2066M2032.52 1962.7H2135.82M2032.52 2066H2135.82M2135.82 0V103.3M2135.82 0H2239.11M2135.82 103.3V206.6M2135.82 103.3H2239.11M2135.82 206.6V309.9M2135.82 206.6H2239.11M2135.82 309.9V413.2M2135.82 309.9H2239.11M2135.82 413.2V516.5M2135.82 413.2H2239.11M2135.82 516.5V619.8M2135.82 516.5H2239.11M2135.82 619.8V723.1M2135.82 619.8H2239.11M2135.82 723.1V826.4M2135.82 723.1H2239.11M2135.82 826.4V929.7M2135.82 826.4H2239.11M2135.82 929.7V1033M2135.82 929.7H2239.11M2135.82 1033V1136.3M2135.82 1033H2239.11M2135.82 1136.3V1239.6M2135.82 1136.3H2239.11M2135.82 1239.6V1342.9M2135.82 1239.6H2239.11M2135.82 1342.9V1446.2M2135.82 1342.9H2239.11M2135.82 1446.2V1549.5M2135.82 1446.2H2239.11M2135.82 1549.5V1652.8M2135.82 1549.5H2239.11M2135.82 1652.8V1756.1M2135.82 1652.8H2239.11M2135.82 1756.1V1859.4M2135.82 1756.1H2239.11M2135.82 1859.4V1962.7M2135.82 1859.4H2239.11M2135.82 1962.7V2066M2135.82 1962.7H2239.11M2135.82 2066H2239.11M2239.11 0V103.3M2239.11 0H2342.41M2239.11 103.3V206.6M2239.11 103.3H2342.41M2239.11 206.6V309.9M2239.11 206.6H2342.41M2239.11 309.9V413.2M2239.11 309.9H2342.41M2239.11 413.2V516.5M2239.11 413.2H2342.41M2239.11 516.5V619.8M2239.11 516.5H2342.41M2239.11 619.8V723.1M2239.11 619.8H2342.41M2239.11 723.1V826.4M2239.11 723.1H2342.41M2239.11 826.4V929.7M2239.11 826.4H2342.41M2239.11 929.7V1033M2239.11 929.7H2342.41M2239.11 1033V1136.3M2239.11 1033H2342.41M2239.11 1136.3V1239.6M2239.11 1136.3H2342.41M2239.11 1239.6V1342.9M2239.11 1239.6H2342.41M2239.11 1342.9V1446.2M2239.11 1342.9H2342.41M2239.11 1446.2V1549.5M2239.11 1446.2H2342.41M2239.11 1549.5V1652.8M2239.11 1549.5H2342.41M2239.11 1652.8V1756.1M2239.11 1652.8H2342.41M2239.11 1756.1V1859.4M2239.11 1756.1H2342.41M2239.11 1859.4V1962.7M2239.11 1859.4H2342.41M2239.11 1962.7V2066M2239.11 1962.7H2342.41M2239.11 2066H2342.41M2342.41 0V103.3M2342.41 0H2445.7M2342.41 103.3V206.6M2342.41 103.3H2445.7M2342.41 206.6V309.9M2342.41 206.6H2445.7M2342.41 309.9V413.2M2342.41 309.9H2445.7M2342.41 413.2V516.5M2342.41 413.2H2445.7M2342.41 516.5V619.8M2342.41 516.5H2445.7M2342.41 619.8V723.1M2342.41 619.8H2445.7M2342.41 723.1V826.4M2342.41 723.1H2445.7M2342.41 826.4V929.7M2342.41 826.4H2445.7M2342.41 929.7V1033M2342.41 929.7H2445.7M2342.41 1033V1136.3M2342.41 1033H2445.7M2342.41 1136.3V1239.6M2342.41 1136.3H2445.7M2342.41 1239.6V1342.9M2342.41 1239.6H2445.7M2342.41 1342.9V1446.2M2342.41 1342.9H2445.7M2342.41 1446.2V1549.5M2342.41 1446.2H2445.7M2342.41 1549.5V1652.8M2342.41 1549.5H2445.7M2342.41 1652.8V1756.1M2342.41 1652.8H2445.7M2342.41 1756.1V1859.4M2342.41 1756.1H2445.7M2342.41 1859.4V1962.7M2342.41 1859.4H2445.7M2342.41 1962.7V2066M2342.41 1962.7H2445.7M2342.41 2066H2445.7M2445.7 0V103.3M2445.7 0H2549V103.3M2445.7 103.3V206.6M2445.7 103.3H2549M2445.7 206.6V309.9M2445.7 206.6H2549M2445.7 309.9V413.2M2445.7 309.9H2549M2445.7 413.2V516.5M2445.7 413.2H2549M2445.7 516.5V619.8M2445.7 516.5H2549M2445.7 619.8V723.1M2445.7 619.8H2549M2445.7 723.1V826.4M2445.7 723.1H2549M2445.7 826.4V929.7M2445.7 826.4H2549M2445.7 929.7V1033M2445.7 929.7H2549M2445.7 1033V1136.3M2445.7 1033H2549M2445.7 1136.3V1239.6M2445.7 1136.3H2549M2445.7 1239.6V1342.9M2445.7 1239.6H2549M2445.7 1342.9V1446.2M2445.7 1342.9H2549M2445.7 1446.2V1549.5M2445.7 1446.2H2549M2445.7 1549.5V1652.8M2445.7 1549.5H2549M2445.7 1652.8V1756.1M2445.7 1652.8H2549M2445.7 1756.1V1859.4M2445.7 1756.1H2549M2445.7 1859.4V1962.7M2445.7 1859.4H2549M2445.7 1962.7V2066M2445.7 1962.7H2549M2445.7 2066H2549V1962.7M2549 103.3V206.6M2549 206.6V309.9M2549 309.9V413.2M2549 413.2V516.5M2549 516.5V619.8M2549 619.8V723.1M2549 723.1V826.4M2549 826.4V929.7M2549 929.7V1033M2549 1033V1136.3M2549 1136.3V1239.6M2549 1239.6V1342.9M2549 1342.9V1446.2M2549 1446.2V1549.5M2549 1549.5V1652.8M2549 1652.8V1756.1M2549 1756.1V1859.4M2549 1859.4V1962.7" stroke="url(#paint0_radial_649_43)" stroke-width="0.804612"/>
</g>
<defs>
<filter id="filter0_f_649_43" x="-944" y="142" width="1285" height="1165" filterUnits="userSpaceOnUse" color-interpolation-filters="sRGB">
<feFlood flood-opacity="0" result="BackgroundImageFix"/>
<feBlend mode="normal" in="SourceGraphic" in2="BackgroundImageFix" result="shape"/>
<feGaussianBlur stdDeviation="200" result="effect1_foregroundBlur_649_43"/>
</filter>
<radialGradient id="paint0_radial_649_43" cx="0" cy="0" r="1" gradientUnits="userSpaceOnUse" gradientTransform="translate(276 -8.16093e-05) rotate(105.35) scale(528.867 1163.46)">
<stop stop-color="#230394" stop-opacity="0.5"/>
<stop offset="0.515" stop-color="white"/>
<stop offset="1" stop-color="#230394" stop-opacity="0.5"/>
</radialGradient>
<clipPath id="clip0_649_43">
<rect width="375" height="308" fill="white"/>
</clipPath>
</defs>
</svg>
