<svg width="114" height="30" viewBox="0 0 114 30" fill="none" xmlns="http://www.w3.org/2000/svg">
<path d="M7.08643 20.6384C7.08643 13.9154 12.5365 8.46533 19.2595 8.46533C22.6237 8.46533 25.6692 9.83008 27.8726 12.0362V29.0218L10.4332 29.0218C8.35916 26.8388 7.08643 23.8872 7.08643 20.6384Z" fill="url(#paint0_linear_2712_50455)"/>
<path d="M0 13.1439C5.87406e-07 6.42472 5.44695 0.977783 12.1661 0.977783C15.5284 0.977783 18.5722 2.34175 20.7742 4.54656V21.5225H3.3449C1.27201 19.3408 -2.83862e-07 16.3909 0 13.1439Z" fill="url(#paint1_linear_2712_50455)"/>
<path d="M20.7744 8.55818L20.7744 21.522L7.11804 21.522C7.09708 21.23 7.08643 20.9352 7.08643 20.6379C7.08643 13.9149 12.5365 8.46484 19.2595 8.46484C19.7725 8.46484 20.2781 8.49658 20.7744 8.55818Z" fill="url(#paint2_linear_2712_50455)"/>
<path d="M40.4609 22.5842C37.1942 22.5842 35.0298 20.4599 35.0298 17.2934C35.0298 14.1269 37.1942 12.0025 40.4609 12.0025C43.7276 12.0025 45.892 14.1269 45.892 17.2934V17.7543L45.6916 17.9547H37.4748C37.6952 19.538 38.8977 20.5801 40.4609 20.5801C41.6433 20.5801 42.7456 19.8987 43.2065 18.8967H45.6515C44.9902 21.1012 42.9059 22.5842 40.4609 22.5842ZM37.6351 15.9506H43.2867C42.8258 14.7081 41.8037 14.0066 40.4609 14.0066C39.1182 14.0066 38.0961 14.7081 37.6351 15.9506Z" fill="#0E0E0E"/>
<path d="M47.33 10.76V8.55548H49.7349V10.76H47.33ZM47.33 22.3036V12.2831H49.7349V22.3036H47.33Z" fill="#0E0E0E"/>
<path d="M56.5471 8.2749C59.7938 8.2749 61.9582 11.1408 61.9582 15.4296C61.9582 19.7183 59.7938 22.5842 56.5271 22.5842C53.9418 22.5842 52.1181 21.2415 51.4768 18.8766H53.7815C54.1422 19.8987 55.1242 20.4599 56.5271 20.4599C58.1905 20.4599 59.3729 18.9969 59.4932 16.7923C58.8318 17.8746 57.469 18.596 56.0662 18.596C53.1001 18.576 51.1361 16.5118 51.1361 13.4455C51.1361 10.3391 53.3005 8.2749 56.5471 8.2749ZM56.4068 16.4917C58.0903 16.4917 59.2126 15.2692 59.2126 13.4255C59.2126 11.6017 58.0903 10.3792 56.4269 10.3792C54.7034 10.3792 53.541 11.6017 53.541 13.4455C53.541 15.2692 54.6833 16.4917 56.4068 16.4917Z" fill="#0E0E0E"/>
<path d="M67.3754 22.3036L63.3672 12.2831H65.9525L68.5979 19.7785L71.2634 12.2831H73.8487L69.8204 22.3036H67.3754Z" fill="#0E0E0E"/>
<path d="M79.6427 22.5842C76.376 22.5842 74.2116 20.4599 74.2116 17.2934C74.2116 14.1269 76.376 12.0025 79.6427 12.0025C82.9094 12.0025 85.0738 14.1269 85.0738 17.2934V17.7543L84.8734 17.9547H76.6566C76.8771 19.538 78.0795 20.5801 79.6427 20.5801C80.8251 20.5801 81.9274 19.8987 82.3883 18.8967H84.8334C84.172 21.1012 82.0877 22.5842 79.6427 22.5842ZM76.8169 15.9506H82.4685C82.0076 14.7081 80.9855 14.0066 79.6427 14.0066C78.3 14.0066 77.2779 14.7081 76.8169 15.9506Z" fill="#0E0E0E"/>
<path d="M86.5118 22.3036V12.2831H88.9167V13.4655C89.4378 12.6439 90.4198 12.0827 91.3417 12.0827C91.7024 12.0827 92.1233 12.1629 92.4039 12.2831V14.1269H91.5822C89.9789 14.1269 88.9167 15.0287 88.9167 16.3715V22.3036H86.5118Z" fill="#0E0E0E"/>
<path d="M93.6945 10.76V8.55548H96.0994V10.76H93.6945ZM93.6945 22.3036V12.2831H96.0994V22.3036H93.6945Z" fill="#0E0E0E"/>
<path d="M99.184 22.3036V14.2872H97.5807V12.2831H99.184V11.1809C99.184 9.43728 100.427 8.2749 102.27 8.2749C102.691 8.2749 103.413 8.35507 103.693 8.55548V10.279H102.471C101.869 10.279 101.589 10.5596 101.589 11.1608V12.2831H103.693V14.2872H101.589V22.3036H99.184Z" fill="#0E0E0E"/>
<path d="M106.004 26.0313L107.727 21.6623L103.899 12.2831H106.465L108.95 18.576L111.415 12.2831H114L108.589 26.0313H106.004Z" fill="#0E0E0E"/>
<defs>
<linearGradient id="paint0_linear_2712_50455" x1="25.8723" y1="13.7326" x2="20.5567" y2="31.0125" gradientUnits="userSpaceOnUse">
<stop stop-color="#2A33FF"/>
<stop offset="1" stop-color="#5D41FD"/>
</linearGradient>
<linearGradient id="paint1_linear_2712_50455" x1="15.0512" y1="21.5225" x2="16.4367" y2="5.7375" gradientUnits="userSpaceOnUse">
<stop stop-color="#7DA9FF"/>
<stop offset="1" stop-color="#A6D0FF"/>
</linearGradient>
<linearGradient id="paint2_linear_2712_50455" x1="19.9199" y1="11.6122" x2="8.45678" y2="23.1407" gradientUnits="userSpaceOnUse">
<stop stop-color="#2D34FF"/>
<stop offset="1" stop-color="#2F0092"/>
</linearGradient>
</defs>
</svg>
